<svg width="353" height="188" viewBox="0 0 353 188" fill="none" xmlns="http://www.w3.org/2000/svg">
<path d="M231.537 84.8154L369.166 84.8154C373.559 84.8154 377.119 81.2647 377.119 76.8846C377.119 72.5046 373.559 68.9539 369.166 68.9539L231.537 68.9539C227.145 68.9539 223.584 72.5046 223.584 76.8846C223.584 81.2647 227.145 84.8154 231.537 84.8154Z" fill="#24A98B"/>
<path d="M177.855 84.8154H206.794C211.187 84.8154 214.747 81.2647 214.747 76.8846C214.747 72.5046 211.187 68.9538 206.794 68.9538H177.855C173.463 68.9538 169.902 72.5046 169.902 76.8846C169.902 81.2647 173.463 84.8154 177.855 84.8154Z" fill="white"/>
<path d="M106.058 84.8154H153.333C157.726 84.8154 161.286 81.2647 161.286 76.8846C161.286 72.5046 157.726 68.9538 153.333 68.9538H106.058C101.666 68.9538 98.1051 72.5046 98.1051 76.8846C98.1051 81.2647 101.666 84.8154 106.058 84.8154Z" fill="#FFDF00"/>
<path d="M7.97242 50.2283L55.2479 50.2283C59.6402 50.2283 63.2008 46.6775 63.2008 42.2975C63.2008 37.9174 59.6402 34.3667 55.2479 34.3667L7.97242 34.3667C3.58016 34.3667 0.0195312 37.9174 0.0195312 42.2975C0.0195312 46.6775 3.58016 50.2283 7.97242 50.2283Z" fill="white"/>
<path d="M242.141 50.2283L289.416 50.2283C293.809 50.2283 297.369 46.6775 297.369 42.2975C297.369 37.9174 293.809 34.3667 289.416 34.3667L242.141 34.3667C237.749 34.3667 234.188 37.9174 234.188 42.2975C234.188 46.6775 237.749 50.2283 242.141 50.2283Z" fill="#24A98B"/>
<path d="M314.379 50.2283L451.788 50.2283C456.18 50.2283 459.74 46.6775 459.74 42.2975C459.74 37.9174 456.18 34.3667 451.788 34.3667L314.379 34.3667C309.987 34.3667 306.427 37.9174 306.427 42.2975C306.427 46.6775 309.987 50.2283 314.379 50.2283Z" fill="#FFDF00"/>
<path d="M296.375 16.082L336.361 16.082C340.814 16.082 344.424 12.482 344.424 8.04108C344.424 3.60018 340.814 0.00012207 336.361 0.00012207L296.375 0.00012207C291.922 0.00012207 288.312 3.60018 288.312 8.04108C288.312 12.482 291.922 16.082 296.375 16.082Z" fill="white"/>
<path d="M231.647 16.082L271.412 16.082C275.865 16.082 279.475 12.482 279.475 8.04108C279.475 3.60018 275.865 0.00012207 271.412 0.00012207L231.647 0.00012207C227.194 0.00012207 223.584 3.60018 223.584 8.04108C223.584 12.482 227.194 16.082 231.647 16.082Z" fill="#FFDF00"/>
<path d="M166.92 16.0818L206.684 16.0818C211.137 16.0818 214.747 12.4817 214.747 8.04085C214.747 3.59996 211.137 -9.15527e-05 206.684 -9.15527e-05L166.92 -9.15527e-05C162.466 -9.15527e-05 158.856 3.59996 158.856 8.04085C158.856 12.4817 162.466 16.0818 166.92 16.0818Z" fill="white"/>
<path d="M79.99 50.2283L217.619 50.2283C222.011 50.2283 225.572 46.6775 225.572 42.2975C225.572 37.9174 222.011 34.3667 217.619 34.3667L79.99 34.3667C75.5977 34.3667 72.0371 37.9174 72.0371 42.2975C72.0371 46.6775 75.5977 50.2283 79.99 50.2283Z" fill="#24A98B"/>
<path d="M299.247 187.916L436.876 187.916C441.329 187.916 444.939 184.316 444.939 179.875C444.939 175.434 441.329 171.834 436.876 171.834L299.247 171.834C294.794 171.834 291.184 175.434 291.184 179.875C291.184 184.316 294.794 187.916 299.247 187.916Z" fill="#24A98B"/>
<path d="M245.786 187.916H274.284C278.737 187.916 282.347 184.316 282.347 179.875C282.347 175.434 278.737 171.834 274.284 171.834H245.786C241.333 171.834 237.723 175.434 237.723 179.875C237.723 184.316 241.333 187.916 245.786 187.916Z" fill="white"/>
<path d="M120.307 187.916H148.584C153.037 187.916 156.647 184.316 156.647 179.875C156.647 175.434 153.037 171.834 148.584 171.834H120.307C115.853 171.834 112.243 175.434 112.243 179.875C112.243 184.316 115.853 187.916 120.307 187.916Z" fill="white"/>
<path d="M173.768 187.916H220.822C225.276 187.916 228.886 184.316 228.886 179.875C228.886 175.434 225.276 171.834 220.822 171.834H173.768C169.315 171.834 165.704 175.434 165.704 179.875C165.704 184.316 169.315 187.916 173.768 187.916Z" fill="#FFDF00"/>
<path d="M309.74 153.549H357.016C361.408 153.549 364.969 149.998 364.969 145.618C364.969 141.238 361.408 137.688 357.016 137.688H309.74C305.348 137.688 301.787 141.238 301.787 145.618C301.787 149.998 305.348 153.549 309.74 153.549Z" fill="#24A98B"/>
<path d="M299.136 118.962H339.122C343.514 118.962 347.075 115.411 347.075 111.031C347.075 106.651 343.514 103.1 339.122 103.1H299.136C294.744 103.1 291.184 106.651 291.184 111.031C291.184 115.411 294.744 118.962 299.136 118.962Z" fill="#FFDF00"/>
<path d="M234.409 118.962H274.394C278.786 118.962 282.347 115.411 282.347 111.031C282.347 106.651 278.786 103.1 274.394 103.1H234.409C230.016 103.1 226.456 106.651 226.456 111.031C226.456 115.411 230.016 118.962 234.409 118.962Z" fill="white"/>
<path d="M147.59 153.549L285.44 153.549C289.832 153.549 293.393 149.998 293.393 145.618C293.393 141.238 289.832 137.688 285.44 137.688L147.59 137.688C143.197 137.688 139.637 141.238 139.637 145.618C139.637 149.998 143.197 153.549 147.59 153.549Z" fill="#24A98B"/>
<path d="M71.8163 118.962L209.666 118.962C214.059 118.962 217.619 115.411 217.619 111.031C217.619 106.651 214.059 103.1 209.666 103.1L71.8163 103.1C67.424 103.1 63.8634 106.651 63.8634 111.031C63.8634 115.411 67.424 118.962 71.8163 118.962Z" fill="#FFDF00"/>
</svg>
