<svg width="266" height="408" viewBox="0 0 266 408" fill="none" xmlns="http://www.w3.org/2000/svg">
<path fill-rule="evenodd" clip-rule="evenodd" d="M101.866 406.045C100.442 407.42 98.1726 407.38 96.7978 405.956L94.9059 403.995L92.9457 405.887C91.5212 407.262 89.252 407.222 87.8771 405.797C86.5023 404.373 86.5425 402.104 87.967 400.729L89.9272 398.837L87.8361 396.67C86.4613 395.246 86.5015 392.977 87.9259 391.602C89.3504 390.227 91.6197 390.267 92.9945 391.692L95.0855 393.858L97.252 391.767C98.6765 390.392 100.946 390.433 102.321 391.857C103.695 393.282 103.655 395.551 102.231 396.926L100.064 399.017L101.956 400.977C103.331 402.401 103.291 404.671 101.866 406.045ZM233.577 381.785C234.952 383.21 237.221 383.25 238.645 381.875C240.07 380.5 240.11 378.231 238.735 376.807L236.843 374.846L239.01 372.755C240.434 371.381 240.474 369.111 239.1 367.687C237.725 366.262 235.456 366.222 234.031 367.597L231.865 369.688L229.774 367.522C228.399 366.097 226.129 366.057 224.705 367.432C223.281 368.806 223.24 371.076 224.615 372.5L226.706 374.667L224.746 376.559C223.322 377.933 223.281 380.203 224.656 381.627C226.031 383.052 228.3 383.092 229.725 381.717L231.685 379.825L233.577 381.785ZM-16.5643 377.559C-17.9887 378.934 -20.258 378.894 -21.6328 377.469L-23.5247 375.509L-25.4849 377.401C-26.9093 378.776 -29.1786 378.736 -30.5534 377.311C-31.9283 375.887 -31.888 373.618 -30.4636 372.243L-28.5034 370.351L-30.5944 368.184C-31.9693 366.76 -31.9291 364.491 -30.5046 363.116C-29.0802 361.741 -26.8109 361.781 -25.4361 363.206L-23.345 365.372L-21.1785 363.281C-19.7541 361.906 -17.4848 361.946 -16.11 363.371C-14.7352 364.795 -14.7754 367.065 -16.1998 368.439L-18.3663 370.531L-16.4744 372.491C-15.0996 373.915 -15.1398 376.184 -16.5643 377.559ZM32.3485 349.362C30.9241 350.737 28.6548 350.697 27.28 349.273L25.3881 347.312L23.4279 349.204C22.0034 350.579 19.7342 350.539 18.3593 349.115C16.9845 347.69 17.0247 345.421 18.4492 344.046L20.4094 342.154L18.3183 339.988C16.9435 338.563 16.9837 336.294 18.4082 334.919C19.8326 333.544 22.1019 333.584 23.4767 335.009L25.5677 337.175L27.7343 335.084C29.1587 333.71 31.428 333.75 32.8028 335.174C34.1776 336.599 34.1374 338.868 32.7129 340.243L30.5464 342.334L32.4383 344.294C33.8132 345.718 33.7729 347.988 32.3485 349.362ZM96.9088 326.255C98.2836 327.679 100.553 327.72 101.977 326.345C103.402 324.97 103.442 322.701 102.067 321.276L100.175 319.316L102.342 317.225C103.766 315.85 103.806 313.581 102.432 312.156C101.057 310.732 98.7875 310.692 97.363 312.067L95.1965 314.158L93.1055 311.991C91.7307 310.567 89.4614 310.526 88.0369 311.901C86.6125 313.276 86.5723 315.545 87.9471 316.97L90.0381 319.136L88.078 321.028C86.6535 322.403 86.6133 324.672 87.9881 326.097C89.3629 327.521 91.6322 327.561 93.0567 326.187L95.0168 324.295L96.9088 326.255ZM-32.9644 232.547C-34.3889 233.922 -36.6581 233.882 -38.033 232.457L-39.9249 230.497L-41.8851 232.389C-43.3095 233.764 -45.5788 233.724 -46.9536 232.299C-48.3284 230.875 -48.2882 228.605 -46.8638 227.231L-44.9036 225.339L-46.9946 223.172C-48.3695 221.748 -48.3292 219.479 -46.9048 218.104C-45.4803 216.729 -43.2111 216.769 -41.8363 218.194L-39.7452 220.36L-37.5787 218.269C-36.1542 216.894 -33.885 216.934 -32.5102 218.359C-31.1353 219.783 -31.1756 222.053 -32.6 223.427L-34.7665 225.518L-32.8746 227.479C-31.4998 228.903 -31.54 231.172 -32.9644 232.547ZM236.344 218.449C234.919 219.824 232.65 219.783 231.275 218.359L229.383 216.399L227.423 218.291C225.998 219.666 223.729 219.625 222.354 218.201C220.98 216.776 221.02 214.507 222.444 213.132L224.404 211.24L222.313 209.074C220.939 207.65 220.979 205.38 222.403 204.005C223.828 202.631 226.097 202.671 227.472 204.095L229.563 206.262L231.729 204.171C233.154 202.796 235.423 202.836 236.798 204.261C238.173 205.685 238.132 207.954 236.708 209.329L234.542 211.42L236.433 213.38C237.808 214.805 237.768 217.074 236.344 218.449ZM-18.4679 288.563C-17.093 289.988 -14.8238 290.028 -13.3993 288.653C-11.9749 287.278 -11.9347 285.009 -13.3095 283.584L-15.2014 281.624L-13.0349 279.533C-11.6105 278.158 -11.5702 275.889 -12.9451 274.465C-14.3199 273.04 -16.5891 273 -18.0136 274.375L-20.1801 276.466L-22.2712 274.299C-23.646 272.875 -25.9152 272.835 -27.3397 274.21C-28.7641 275.584 -28.8044 277.854 -27.4295 279.278L-25.3385 281.445L-27.2987 283.337C-28.7231 284.711 -28.7633 286.981 -27.3885 288.405C-26.0137 289.83 -23.7444 289.87 -22.32 288.495L-20.3598 286.603L-18.4679 288.563ZM40.5815 294.697C39.157 296.072 36.8878 296.032 35.5129 294.607L33.621 292.647L31.6608 294.539C30.2364 295.914 27.9671 295.873 26.5923 294.449C25.2175 293.025 25.2577 290.755 26.6822 289.38L28.6423 287.489L26.5513 285.322C25.1765 283.898 25.2167 281.628 26.6411 280.253C28.0656 278.879 30.3348 278.919 31.7097 280.343L33.8007 282.51L35.9672 280.419C37.3917 279.044 39.6609 279.084 41.0358 280.509C42.4106 281.933 42.3704 284.202 40.9459 285.577L38.7794 287.668L40.6713 289.628C42.0461 291.053 42.0059 293.322 40.5815 294.697ZM145.534 364.522C146.909 365.946 149.178 365.987 150.602 364.612C152.027 363.237 152.067 360.968 150.692 359.543L148.8 357.583L150.967 355.492C152.391 354.117 152.431 351.848 151.057 350.423C149.682 348.999 147.413 348.959 145.988 350.334L143.822 352.425L141.731 350.258C140.356 348.834 138.086 348.793 136.662 350.168C135.238 351.543 135.197 353.812 136.572 355.237L138.663 357.403L136.703 359.295C135.279 360.67 135.238 362.939 136.613 364.364C137.988 365.788 140.257 365.828 141.682 364.454L143.642 362.562L145.534 364.522ZM198.475 260.079C199.85 261.503 202.119 261.543 203.543 260.169C204.968 258.794 205.008 256.524 203.633 255.1L201.741 253.14L203.908 251.049C205.332 249.674 205.372 247.405 203.998 245.98C202.623 244.556 200.353 244.516 198.929 245.89L196.762 247.981L194.671 245.815C193.297 244.39 191.027 244.35 189.603 245.725C188.178 247.1 188.138 249.369 189.513 250.794L191.604 252.96L189.644 254.852C188.219 256.227 188.179 258.496 189.554 259.921C190.929 261.345 193.198 261.385 194.623 260.01L196.583 258.119L198.475 260.079ZM152.041 276.856C150.616 278.231 148.347 278.191 146.972 276.767L145.08 274.806L143.12 276.698C141.696 278.073 139.427 278.033 138.052 276.608C136.677 275.184 136.717 272.915 138.142 271.54L140.102 269.648L138.011 267.481C136.636 266.057 136.676 263.788 138.101 262.413C139.525 261.038 141.794 261.078 143.169 262.503L145.26 264.669L147.427 262.578C148.851 261.203 151.12 261.244 152.495 262.668C153.87 264.093 153.83 266.362 152.405 267.737L150.239 269.828L152.131 271.788C153.506 273.212 153.465 275.482 152.041 276.856ZM94.3193 243.103C95.6941 244.528 97.9634 244.568 99.3878 243.193C100.812 241.818 100.852 239.549 99.4776 238.124L97.5857 236.164L99.7523 234.073C101.177 232.698 101.217 230.429 99.8421 229.005C98.4673 227.58 96.198 227.54 94.7736 228.915L92.6071 231.006L90.516 228.839C89.1412 227.415 86.8719 227.375 85.4475 228.75C84.023 230.124 83.9828 232.394 85.3576 233.818L87.4487 235.985L85.4885 237.876C84.064 239.251 84.0238 241.521 85.3986 242.945C86.7735 244.369 89.0427 244.41 90.4672 243.035L92.4274 241.143L94.3193 243.103ZM184.841 405.756C183.417 407.131 181.148 407.091 179.773 405.666L177.881 403.706L175.921 405.598C174.496 406.973 172.227 406.933 170.852 405.508C169.477 404.084 169.518 401.814 170.942 400.44L172.902 398.548L170.811 396.381C169.436 394.957 169.476 392.687 170.901 391.313C172.325 389.938 174.595 389.978 175.969 391.402L178.06 393.569L180.227 391.478C181.651 390.103 183.921 390.143 185.296 391.568C186.67 392.992 186.63 395.261 185.206 396.636L183.039 398.727L184.931 400.688C186.306 402.112 186.266 404.381 184.841 405.756ZM213.724 304.963C215.099 306.388 217.368 306.428 218.793 305.053C220.217 303.678 220.257 301.409 218.882 299.985L216.99 298.025L219.157 295.933C220.581 294.559 220.622 292.289 219.247 290.865C217.872 289.44 215.603 289.4 214.178 290.775L212.012 292.866L209.921 290.7C208.546 289.275 206.277 289.235 204.852 290.61C203.428 291.985 203.387 294.254 204.762 295.678L206.853 297.845L204.893 299.737C203.469 301.112 203.429 303.381 204.803 304.805C206.178 306.23 208.447 306.27 209.872 304.895L211.832 303.003L213.724 304.963ZM264.54 274.267C263.116 275.642 260.847 275.602 259.472 274.177L257.58 272.217L255.62 274.109C254.195 275.484 251.926 275.443 250.551 274.019C249.176 272.595 249.217 270.325 250.641 268.95L252.601 267.059L250.51 264.892C249.135 263.468 249.176 261.198 250.6 259.823C252.024 258.449 254.294 258.489 255.669 259.913L257.76 262.08L259.926 259.989C261.351 258.614 263.62 258.654 264.995 260.079C266.369 261.503 266.329 263.772 264.905 265.147L262.738 267.238L264.63 269.198C266.005 270.623 265.965 272.892 264.54 274.267ZM-30.4684 322.691C-30.123 320.596 -31.5415 318.617 -33.6369 318.272C-35.7322 317.926 -37.7109 319.345 -38.0564 321.44C-38.4019 323.536 -36.9833 325.514 -34.8879 325.86C-32.7926 326.205 -30.8139 324.787 -30.4684 322.691ZM67.9291 266.482C70.0244 266.827 71.443 268.806 71.0975 270.901C70.752 272.997 68.7734 274.415 66.678 274.07C64.5826 273.724 63.1641 271.746 63.5096 269.65C63.855 267.555 65.8337 266.136 67.9291 266.482ZM58.7255 384.839C59.0709 382.744 57.6524 380.765 55.557 380.42C53.4617 380.074 51.483 381.493 51.1375 383.588C50.792 385.684 52.2106 387.662 54.3059 388.008C56.4013 388.353 58.38 386.935 58.7255 384.839ZM24.0843 238.574C26.1797 238.92 27.5982 240.899 27.2528 242.994C26.9073 245.089 24.9286 246.508 22.8332 246.162C20.7379 245.817 19.3193 243.838 19.6648 241.743C20.0103 239.647 21.989 238.229 24.0843 238.574ZM216.973 333.625C217.318 331.529 215.9 329.551 213.804 329.205C211.709 328.86 209.73 330.278 209.385 332.374C209.039 334.469 210.458 336.448 212.553 336.793C214.649 337.139 216.627 335.72 216.973 333.625ZM249.77 333.809C251.865 334.154 253.283 336.133 252.938 338.228C252.593 340.324 250.614 341.742 248.518 341.397C246.423 341.051 245.005 339.073 245.35 336.977C245.696 334.882 247.674 333.463 249.77 333.809ZM163.169 318.375C163.514 316.28 162.096 314.301 160 313.956C157.905 313.61 155.926 315.029 155.581 317.124C155.235 319.22 156.654 321.198 158.749 321.544C160.844 321.889 162.823 320.471 163.169 318.375ZM145.902 204.046C147.997 204.392 149.416 206.37 149.07 208.466C148.725 210.561 146.746 211.98 144.651 211.634C142.555 211.289 141.137 209.31 141.482 207.215C141.828 205.119 143.806 203.701 145.902 204.046Z" fill="#FFEC66"/>
<path fill-rule="evenodd" clip-rule="evenodd" d="M-8.1337 184.045C-9.55815 185.42 -11.8274 185.38 -13.2022 183.956L-15.0941 181.995L-17.0543 183.887C-18.4788 185.262 -20.748 185.222 -22.1229 183.797C-23.4977 182.373 -23.4575 180.104 -22.033 178.729L-20.0728 176.837L-22.1639 174.67C-23.5387 173.246 -23.4985 170.977 -22.0741 169.602C-20.6496 168.227 -18.3803 168.267 -17.0055 169.692L-14.9145 171.858L-12.748 169.767C-11.3235 168.392 -9.05425 168.433 -7.67941 169.857C-6.3046 171.282 -6.34482 173.551 -7.76926 174.926L-9.93578 177.017L-8.04387 178.977C-6.66904 180.401 -6.70926 182.671 -8.1337 184.045ZM123.577 159.785C124.952 161.21 127.221 161.25 128.645 159.875C130.07 158.5 130.11 156.231 128.735 154.807L126.843 152.846L129.01 150.755C130.434 149.381 130.474 147.111 129.1 145.687C127.725 144.262 125.456 144.222 124.031 145.597L121.865 147.688L119.774 145.522C118.399 144.097 116.129 144.057 114.705 145.432C113.281 146.806 113.24 149.076 114.615 150.5L116.706 152.667L114.746 154.559C113.322 155.933 113.281 158.203 114.656 159.627C116.031 161.052 118.3 161.092 119.725 159.717L121.685 157.825L123.577 159.785ZM-126.564 155.559C-127.989 156.934 -130.258 156.894 -131.633 155.469L-133.525 153.509L-135.485 155.401C-136.909 156.776 -139.179 156.736 -140.553 155.311C-141.928 153.887 -141.888 151.618 -140.464 150.243L-138.503 148.351L-140.594 146.184C-141.969 144.76 -141.929 142.491 -140.505 141.116C-139.08 139.741 -136.811 139.781 -135.436 141.206L-133.345 143.372L-131.179 141.281C-129.754 139.906 -127.485 139.946 -126.11 141.371C-124.735 142.795 -124.775 145.065 -126.2 146.439L-128.366 148.531L-126.474 150.491C-125.1 151.915 -125.14 154.184 -126.564 155.559ZM-77.6515 127.362C-79.0759 128.737 -81.3452 128.697 -82.72 127.273L-84.6119 125.312L-86.5721 127.204C-87.9966 128.579 -90.2658 128.539 -91.6407 127.115C-93.0155 125.69 -92.9753 123.421 -91.5508 122.046L-89.5906 120.154L-91.6817 117.988C-93.0565 116.563 -93.0163 114.294 -91.5918 112.919C-90.1674 111.544 -87.8981 111.584 -86.5233 113.009L-84.4323 115.175L-82.2657 113.084C-80.8413 111.71 -78.572 111.75 -77.1972 113.174C-75.8224 114.599 -75.8626 116.868 -77.2871 118.243L-79.4536 120.334L-77.5617 122.294C-76.1868 123.718 -76.2271 125.988 -77.6515 127.362ZM-13.0912 104.255C-11.7164 105.679 -9.44716 105.72 -8.02271 104.345C-6.59827 102.97 -6.55805 100.701 -7.93288 99.2762L-9.82478 97.316L-7.65827 95.2249C-6.23383 93.8501 -6.1936 91.5808 -7.56842 90.1564C-8.94325 88.7319 -11.2125 88.6917 -12.637 90.0665L-14.8035 92.1576L-16.8945 89.9911C-18.2693 88.5666 -20.5386 88.5264 -21.9631 89.9012C-23.3875 91.2761 -23.4277 93.5453 -22.0529 94.9698L-19.9619 97.1363L-21.922 99.0282C-23.3465 100.403 -23.3867 102.672 -22.0119 104.097C-20.6371 105.521 -18.3678 105.561 -16.9433 104.187L-14.9832 102.295L-13.0912 104.255ZM-142.964 10.5472C-144.389 11.922 -146.658 11.8818 -148.033 10.4573L-149.925 8.49714L-151.885 10.389C-153.31 11.7639 -155.579 11.7236 -156.954 10.2992C-158.328 8.87476 -158.288 6.60549 -156.864 5.23067L-154.904 3.33877L-156.995 1.17225C-158.369 -0.252191 -158.329 -2.52146 -156.905 -3.89628C-155.48 -5.27111 -153.211 -5.23089 -151.836 -3.80645L-149.745 -1.63993L-147.579 -3.73098C-146.154 -5.10581 -143.885 -5.06559 -142.51 -3.64114C-141.135 -2.2167 -141.176 0.0525574 -142.6 1.42739L-144.767 3.51844L-142.875 5.47863C-141.5 6.90307 -141.54 9.17234 -142.964 10.5472ZM126.344 -3.55114C124.919 -2.17631 122.65 -2.21653 121.275 -3.64097L119.383 -5.60116L117.423 -3.70925C115.998 -2.33442 113.729 -2.37466 112.354 -3.7991C110.98 -5.22354 111.02 -7.49281 112.444 -8.86762L114.404 -10.7595L112.313 -12.926C110.939 -14.3505 110.979 -16.6198 112.403 -17.9946C113.828 -19.3694 116.097 -19.3292 117.472 -17.9047L119.563 -15.7382L121.729 -17.8293C123.154 -19.2041 125.423 -19.1639 126.798 -17.7394C128.173 -16.315 128.132 -14.0457 126.708 -12.6709L124.542 -10.5799L126.433 -8.61967C127.808 -7.19523 127.768 -4.92596 126.344 -3.55114ZM-128.468 66.5632C-127.093 67.9876 -124.824 68.0278 -123.399 66.653C-121.975 65.2782 -121.935 63.0089 -123.31 61.5845L-125.201 59.6243L-123.035 57.5332C-121.61 56.1584 -121.57 53.8892 -122.945 52.4647C-124.32 51.0403 -126.589 51.0001 -128.014 52.3749L-130.18 54.4659L-132.271 52.2994C-133.646 50.875 -135.915 50.8347 -137.34 52.2096C-138.764 53.5844 -138.804 55.8537 -137.43 57.2781L-135.338 59.4446L-137.299 61.3365C-138.723 62.7114 -138.763 64.9806 -137.389 66.4051C-136.014 67.8295 -133.744 67.8697 -132.32 66.4949L-130.36 64.603L-128.468 66.5632ZM-69.4185 72.6969C-70.843 74.0718 -73.1122 74.0315 -74.4871 72.6071L-76.379 70.6469L-78.3392 72.5388C-79.7636 73.9136 -82.0329 73.8734 -83.4077 72.449C-84.7825 71.0245 -84.7423 68.7553 -83.3178 67.3804L-81.3577 65.4885L-83.4487 63.322C-84.8235 61.8976 -84.7833 59.6283 -83.3589 58.2535C-81.9344 56.8787 -79.6652 56.9189 -78.2903 58.3433L-76.1993 60.5098L-74.0328 58.4188C-72.6083 57.044 -70.3391 57.0842 -68.9642 58.5086C-67.5894 59.9331 -67.6296 62.2023 -69.0541 63.5772L-71.2206 65.6682L-69.3287 67.6284C-67.9539 69.0528 -67.9941 71.3221 -69.4185 72.6969ZM35.5338 142.522C36.9086 143.946 39.1779 143.987 40.6023 142.612C42.0268 141.237 42.067 138.968 40.6922 137.543L38.8003 135.583L40.9668 133.492C42.3912 132.117 42.4314 129.848 41.0566 128.423C39.6818 126.999 37.4125 126.959 35.9881 128.334L33.8216 130.425L31.7305 128.258C30.3557 126.834 28.0864 126.793 26.662 128.168C25.2375 129.543 25.1973 131.812 26.5722 133.237L28.6632 135.403L26.703 137.295C25.2786 138.67 25.2383 140.939 26.6132 142.364C27.988 143.788 30.2573 143.828 31.6817 142.454L33.6419 140.562L35.5338 142.522ZM88.4747 38.0787C89.8495 39.5031 92.1188 39.5434 93.5432 38.1685C94.9677 36.7937 95.0079 34.5245 93.6331 33.1L91.7412 31.1398L93.9077 29.0488C95.3321 27.6739 95.3723 25.4047 93.9975 23.9802C92.6227 22.5558 90.3534 22.5156 88.929 23.8904L86.7625 25.9815L84.6714 23.8149C83.2966 22.3905 81.0273 22.3503 79.6029 23.7251C78.1785 25.0999 78.1382 27.3692 79.5131 28.7936L81.6041 30.9601L79.6439 32.8521C78.2195 34.2269 78.1792 36.4961 79.5541 37.9206C80.9289 39.345 83.1982 39.3853 84.6226 38.0104L86.5828 36.1185L88.4747 38.0787ZM42.0409 54.8564C40.6165 56.2312 38.3472 56.191 36.9724 54.7666L35.0805 52.8064L33.1203 54.6983C31.6959 56.0731 29.4266 56.0329 28.0518 54.6085C26.6769 53.184 26.7172 50.9147 28.1416 49.5399L30.1018 47.648L28.0108 45.4815C26.6359 44.0571 26.6761 41.7878 28.1006 40.413C29.525 39.0381 31.7943 39.0784 33.1691 40.5028L35.2602 42.6693L37.4267 40.5783C38.8511 39.2034 41.1204 39.2437 42.4952 40.6681C43.87 42.0926 43.8298 44.3618 42.4054 45.7366L40.2389 47.8277L42.1308 49.7879C43.5056 51.2123 43.4654 53.4816 42.0409 54.8564ZM-15.6807 21.1031C-14.3059 22.5276 -12.0366 22.5678 -10.6122 21.193C-9.18775 19.8182 -9.14752 17.5489 -10.5224 16.1244L-12.4143 14.1643L-10.2477 12.0732C-8.8233 10.6984 -8.78308 8.42911 -10.1579 7.00468C-11.5327 5.58022 -13.802 5.54 -15.2264 6.91483L-17.3929 9.00588L-19.484 6.83936C-20.8588 5.41492 -23.1281 5.3747 -24.5525 6.74953C-25.977 8.12435 -26.0172 10.3936 -24.6424 11.8181L-22.5513 13.9846L-24.5115 15.8765C-25.936 17.2513 -25.9762 19.5206 -24.6014 20.945C-23.2265 22.3695 -20.9573 22.4097 -19.5328 21.0349L-17.5726 19.143L-15.6807 21.1031ZM74.8413 183.756C73.4168 185.131 71.1476 185.091 69.7727 183.666L67.8808 181.706L65.9206 183.598C64.4962 184.973 62.2269 184.933 60.8521 183.508C59.4773 182.084 59.5175 179.814 60.9419 178.44L62.9021 176.548L60.8111 174.381C59.4363 172.957 59.4765 170.687 60.9009 169.313C62.3254 167.938 64.5946 167.978 65.9695 169.402L68.0605 171.569L70.227 169.478C71.6515 168.103 73.9207 168.143 75.2956 169.568C76.6704 170.992 76.6302 173.261 75.2057 174.636L73.0392 176.727L74.9311 178.688C76.3059 180.112 76.2657 182.381 74.8413 183.756ZM103.724 82.9634C105.099 84.3878 107.368 84.4281 108.793 83.0532C110.217 81.6784 110.257 79.4091 108.882 77.9847L106.99 76.0245L109.157 73.9335C110.581 72.5586 110.622 70.2894 109.247 68.8649C107.872 67.4405 105.603 67.4003 104.178 68.7751L102.012 70.8661L99.9207 68.6996C98.5459 67.2752 96.2766 67.235 94.8522 68.6098C93.4277 69.9846 93.3875 72.2539 94.7623 73.6783L96.8534 75.8448L94.8932 77.7367C93.4687 79.1116 93.4285 81.3808 94.8033 82.8053C96.1782 84.2297 98.4474 84.2699 99.8719 82.8951L101.832 81.0032L103.724 82.9634ZM154.54 52.2669C153.116 53.6417 150.847 53.6015 149.472 52.1771L147.58 50.2169L145.62 52.1088C144.195 53.4836 141.926 53.4434 140.551 52.019C139.176 50.5945 139.217 48.3252 140.641 46.9504L142.601 45.0585L140.51 42.892C139.135 41.4676 139.176 39.1983 140.6 37.8235C142.024 36.4486 144.294 36.4889 145.669 37.9133L147.76 40.0798L149.926 37.9888C151.351 36.6139 153.62 36.6542 154.995 38.0786C156.369 39.5031 156.329 41.7723 154.905 43.1471L152.738 45.2382L154.63 47.1984C156.005 48.6228 155.965 50.8921 154.54 52.2669ZM-140.468 100.691C-140.123 98.596 -141.542 96.6173 -143.637 96.2718C-145.732 95.9263 -147.711 97.3449 -148.056 99.4402C-148.402 101.536 -146.983 103.514 -144.888 103.86C-142.793 104.205 -140.814 102.787 -140.468 100.691ZM-42.0709 44.4818C-39.9756 44.8272 -38.557 46.8059 -38.9025 48.9013C-39.248 50.9966 -41.2266 52.4152 -43.322 52.0697C-45.4174 51.7242 -46.8359 49.7455 -46.4904 47.6502C-46.145 45.5548 -44.1663 44.1363 -42.0709 44.4818ZM-51.2745 162.839C-50.9291 160.744 -52.3476 158.765 -54.443 158.42C-56.5383 158.074 -58.517 159.493 -58.8625 161.588C-59.208 163.684 -57.7894 165.662 -55.6941 166.008C-53.5987 166.353 -51.62 164.935 -51.2745 162.839ZM-85.9157 16.5744C-83.8203 16.9198 -82.4018 18.8985 -82.7472 20.9939C-83.0927 23.0892 -85.0714 24.5078 -87.1668 24.1623C-89.2621 23.8168 -90.6807 21.8381 -90.3352 19.7428C-89.9897 17.6474 -88.011 16.2289 -85.9157 16.5744ZM106.973 111.625C107.318 109.529 105.9 107.551 103.804 107.205C101.709 106.86 99.7302 108.278 99.3848 110.374C99.0393 112.469 100.458 114.448 102.553 114.793C104.649 115.139 106.627 113.72 106.973 111.625ZM139.77 111.809C141.865 112.154 143.283 114.133 142.938 116.228C142.593 118.324 140.614 119.742 138.518 119.397C136.423 119.051 135.005 117.073 135.35 114.977C135.696 112.882 137.674 111.463 139.77 111.809ZM53.1686 96.3754C53.5141 94.2801 52.0955 92.3014 50.0002 91.9559C47.9048 91.6104 45.9262 93.029 45.5807 95.1243C45.2352 97.2197 46.6538 99.1984 48.7491 99.5439C50.8445 99.8893 52.8232 98.4708 53.1686 96.3754ZM35.9018 -17.9539C37.9972 -17.6084 39.4157 -15.6297 39.0703 -13.5344C38.7248 -11.439 36.7461 -10.0205 34.6508 -10.3659C32.5554 -10.7114 31.1368 -12.6901 31.4823 -14.7854C31.8278 -16.8808 33.8065 -18.2993 35.9018 -17.9539Z" fill="#FFEC66"/>
</svg>
