<svg width="278" height="145" viewBox="0 0 278 145" fill="none" xmlns="http://www.w3.org/2000/svg">
<path fill-rule="evenodd" clip-rule="evenodd" d="M164.134 -58.9946C165.558 -60.3695 167.827 -60.3293 169.202 -58.9048L171.094 -56.9446L173.054 -58.8365C174.479 -60.2114 176.748 -60.1711 178.123 -58.7467C179.498 -57.3222 179.457 -55.053 178.033 -53.6782L176.073 -51.7862L178.164 -49.6197C179.539 -48.1953 179.498 -45.926 178.074 -44.5512C176.65 -43.1764 174.38 -43.2166 173.006 -44.641L170.914 -46.8075L168.748 -44.7165C167.324 -43.3417 165.054 -43.3819 163.679 -44.8063C162.305 -46.2308 162.345 -48.5 163.769 -49.8749L165.936 -51.9659L164.044 -53.9261C162.669 -55.3506 162.709 -57.6198 164.134 -58.9946ZM32.4232 -34.7345C31.0483 -36.159 28.7791 -36.1992 27.3546 -34.8244C25.9302 -33.4495 25.89 -31.1803 27.2648 -29.7558L29.1567 -27.7956L26.9902 -25.7046C25.5658 -24.3298 25.5255 -22.0605 26.9004 -20.636C28.2752 -19.2116 30.5445 -19.1714 31.9689 -20.5462L34.1354 -22.6373L36.2265 -20.4707C37.6013 -19.0463 39.8705 -19.0061 41.295 -20.3809C42.7195 -21.7557 42.7597 -24.025 41.3848 -25.4494L39.2938 -27.616L41.254 -29.5079C42.6784 -30.8827 42.7187 -33.1519 41.3438 -34.5764C39.969 -36.0008 37.6997 -36.0411 36.2753 -34.6662L34.3151 -32.7743L32.4232 -34.7345ZM282.564 -30.5085C283.989 -31.8833 286.258 -31.8431 287.633 -30.4186L289.525 -28.4584L291.485 -30.3503C292.909 -31.7252 295.179 -31.685 296.553 -30.2605C297.928 -28.8361 297.888 -26.5668 296.464 -25.192L294.503 -23.3001L296.594 -21.1336C297.969 -19.7091 297.929 -17.4399 296.505 -16.065C295.08 -14.6902 292.811 -14.7304 291.436 -16.1549L289.345 -18.3214L287.179 -16.2303C285.754 -14.8555 283.485 -14.8957 282.11 -16.3202C280.735 -17.7446 280.775 -20.0139 282.2 -21.3887L284.366 -23.4797L282.474 -25.4399C281.1 -26.8644 281.14 -29.1336 282.564 -30.5085ZM233.651 -2.31172C235.076 -3.68655 237.345 -3.64633 238.72 -2.22188L240.612 -0.261692L242.572 -2.1536C243.997 -3.52843 246.266 -3.4882 247.641 -2.06376C249.015 -0.639313 248.975 1.62994 247.551 3.00477L245.591 4.89668L247.682 7.06319C249.057 8.48764 249.016 10.7569 247.592 12.1317C246.167 13.5066 243.898 13.4663 242.523 12.0419L240.432 9.87537L238.266 11.9664C236.841 13.3413 234.572 13.301 233.197 11.8766C231.822 10.4521 231.863 8.18288 233.287 6.80805L235.454 4.717L233.562 2.75681C232.187 1.33237 232.227 -0.93689 233.651 -2.31172ZM169.091 20.7959C167.716 19.3715 165.447 19.3312 164.023 20.7061C162.598 22.0809 162.558 24.3502 163.933 25.7746L165.825 27.7348L163.658 29.8258C162.234 31.2007 162.194 33.4699 163.568 34.8944C164.943 36.3188 167.213 36.359 168.637 34.9842L170.803 32.8932L172.895 35.0597C174.269 36.4841 176.539 36.5243 177.963 35.1495C179.387 33.7747 179.428 31.5054 178.053 30.081L175.962 27.9145L177.922 26.0226C179.346 24.6477 179.387 22.3785 178.012 20.954C176.637 19.5296 174.368 19.4894 172.943 20.8642L170.983 22.7561L169.091 20.7959ZM298.964 114.504C300.389 113.129 302.658 113.169 304.033 114.593L305.925 116.554L307.885 114.662C309.31 113.287 311.579 113.327 312.954 114.752C314.328 116.176 314.288 118.445 312.864 119.82L310.904 121.712L312.995 123.879C314.369 125.303 314.329 127.572 312.905 128.947C311.48 130.322 309.211 130.282 307.836 128.857L305.745 126.691L303.579 128.782C302.154 130.157 299.885 130.116 298.51 128.692C297.135 127.267 297.176 124.998 298.6 123.623L300.767 121.532L298.875 119.572C297.5 118.148 297.54 115.878 298.964 114.504ZM29.6564 128.602C31.0809 127.227 33.3501 127.267 34.725 128.692L36.6169 130.652L38.5771 128.76C40.0015 127.385 42.2708 127.425 43.6456 128.85C45.0204 130.274 44.9802 132.544 43.5558 133.918L41.5956 135.81L43.6866 137.977C45.0615 139.401 45.0212 141.671 43.5968 143.045C42.1723 144.42 39.9031 144.38 38.5283 142.956L36.4372 140.789L34.2707 142.88C32.8463 144.255 30.577 144.215 29.2021 142.79C27.8273 141.366 27.8676 139.096 29.292 137.722L31.4585 135.631L29.5666 133.67C28.1918 132.246 28.232 129.977 29.6564 128.602ZM284.468 58.4876C283.093 57.0631 280.824 57.0229 279.399 58.3977C277.975 59.7726 277.935 62.0418 279.31 63.4663L281.201 65.4265L279.035 67.5175C277.61 68.8923 277.57 71.1616 278.945 72.586C280.32 74.0105 282.589 74.0507 284.014 72.6759L286.18 70.5848L288.271 72.7513C289.646 74.1758 291.915 74.216 293.34 72.8412C294.764 71.4664 294.804 69.1971 293.43 67.7727L291.338 65.6061L293.299 63.7142C294.723 62.3394 294.763 60.0701 293.389 58.6457C292.014 57.2213 289.744 57.181 288.32 58.5559L286.36 60.4478L284.468 58.4876ZM225.419 52.3538C226.843 50.979 229.112 51.0192 230.487 52.4437L232.379 54.4039L234.339 52.5119C235.764 51.1371 238.033 51.1773 239.408 52.6018C240.783 54.0262 240.742 56.2955 239.318 57.6703L237.358 59.5622L239.449 61.7287C240.824 63.1532 240.783 65.4224 239.359 66.7973C237.934 68.1721 235.665 68.1319 234.29 66.7074L232.199 64.5409L230.033 66.632C228.608 68.0068 226.339 67.9666 224.964 66.5421C223.589 65.1177 223.63 62.8484 225.054 61.4736L227.221 59.3825L225.329 57.4224C223.954 55.9979 223.994 53.7287 225.419 52.3538ZM120.466 -17.4711C119.091 -18.8956 116.822 -18.9358 115.398 -17.561C113.973 -16.1861 113.933 -13.9169 115.308 -12.4924L117.2 -10.5323L115.033 -8.4412C113.609 -7.06637 113.569 -4.79712 114.943 -3.37267C116.318 -1.94822 118.587 -1.908 120.012 -3.28283L122.178 -5.37387L124.269 -3.20737C125.644 -1.78292 127.914 -1.7427 129.338 -3.11753C130.762 -4.49236 130.803 -6.76162 129.428 -8.18607L127.337 -10.3526L129.297 -12.2445C130.721 -13.6193 130.762 -15.8886 129.387 -17.313C128.012 -18.7375 125.743 -18.7777 124.318 -17.4029L122.358 -15.5109L120.466 -17.4711ZM67.5253 86.972C66.1505 85.5476 63.8812 85.5074 62.4568 86.8822C61.0323 88.257 60.9921 90.5263 62.3669 91.9507L64.2588 93.9109L62.0923 96.002C60.6679 97.3768 60.6277 99.6461 62.0025 101.071C63.3773 102.495 65.6466 102.535 67.071 101.16L69.2375 99.0693L71.3286 101.236C72.7034 102.66 74.9727 102.7 76.3971 101.326C77.8215 99.9508 77.8618 97.6816 76.4869 96.2571L74.3959 94.0906L76.3561 92.1987C77.7805 90.8239 77.8208 88.5546 76.4459 87.1302C75.0711 85.7057 72.8018 85.6655 71.3774 87.0403L69.4172 88.9322L67.5253 86.972ZM113.959 70.1944C115.384 68.8195 117.653 68.8597 119.028 70.2842L120.92 72.2444L122.88 70.3525C124.304 68.9776 126.573 69.0179 127.948 70.4423C129.323 71.8667 129.283 74.136 127.858 75.5108L125.898 77.4028L127.989 79.5693C129.364 80.9937 129.324 83.263 127.899 84.6378C126.475 86.0126 124.206 85.9724 122.831 84.548L120.74 82.3814L118.573 84.4725C117.149 85.8473 114.88 85.8071 113.505 84.3826C112.13 82.9582 112.17 80.6889 113.595 79.3141L115.761 77.2231L113.869 75.2629C112.494 73.8384 112.535 71.5692 113.959 70.1944ZM171.681 103.948C170.306 102.523 168.037 102.483 166.612 103.858C165.188 105.233 165.148 107.502 166.522 108.926L168.414 110.887L166.248 112.978C164.823 114.352 164.783 116.622 166.158 118.046C167.533 119.471 169.802 119.511 171.226 118.136L173.393 116.045L175.484 118.211C176.859 119.636 179.128 119.676 180.553 118.301C181.977 116.926 182.017 114.657 180.642 113.233L178.551 111.066L180.512 109.174C181.936 107.799 181.976 105.53 180.601 104.106C179.227 102.681 176.957 102.641 175.533 104.016L173.573 105.908L171.681 103.948ZM81.1587 -58.7053C82.5832 -60.0801 84.8524 -60.0399 86.2273 -58.6155L88.1192 -56.6553L90.0794 -58.5472C91.5038 -59.922 93.7731 -59.8818 95.1479 -58.4573C96.5227 -57.0329 96.4825 -54.7636 95.0581 -53.3888L93.0979 -51.4969L95.1889 -49.3304C96.5637 -47.9059 96.5235 -45.6367 95.0991 -44.2619C93.6746 -42.887 91.4054 -42.9272 90.0305 -44.3517L87.9395 -46.5182L85.773 -44.4272C84.3485 -43.0523 82.0793 -43.0925 80.7044 -44.517C79.3296 -45.9414 79.3698 -48.2107 80.7943 -49.5855L82.9608 -51.6766L81.0689 -53.6368C79.6941 -55.0612 79.7343 -57.3305 81.1587 -58.7053ZM52.276 42.0874C50.9012 40.6629 48.6319 40.6227 47.2075 41.9975C45.7831 43.3724 45.7428 45.6416 47.1176 47.0661L49.0096 49.0262L46.843 51.1173C45.4186 52.4921 45.3784 54.7614 46.7532 56.1858C48.1281 57.6103 50.3973 57.6505 51.8217 56.2757L53.9883 54.1846L56.0793 56.3511C57.4541 57.7756 59.7234 57.8158 61.1478 56.441C62.5723 55.0661 62.6125 52.7969 61.2377 51.3724L59.1466 49.2059L61.1068 47.314C62.5313 45.9392 62.5715 43.6699 61.1967 42.2455C59.8218 40.821 57.5526 40.7808 56.1281 42.1556L54.1679 44.0475L52.276 42.0874ZM1.45966 72.7838C2.88409 71.409 5.15335 71.4492 6.5282 72.8737L8.4201 74.8339L10.3803 72.942C11.8047 71.5671 14.074 71.6074 15.4488 73.0318C16.8237 74.4562 16.7834 76.7255 15.359 78.1003L13.3988 79.9922L15.4898 82.1588C16.8647 83.5832 16.8245 85.8525 15.4 87.2273C13.9756 88.6021 11.7063 88.5619 10.3315 87.1375L8.24042 84.9709L6.07391 87.062C4.64948 88.4368 2.38022 88.3966 1.00537 86.9721C-0.369446 85.5477 -0.329224 83.2784 1.09521 81.9036L3.26172 79.8126L1.36981 77.8524C-0.00500488 76.4279 0.0352173 74.1587 1.45966 72.7838ZM296.468 24.3595C296.123 26.4548 297.542 28.4335 299.637 28.779C301.732 29.1244 303.711 27.7059 304.056 25.6105C304.402 23.5152 302.983 21.5365 300.888 21.191C298.793 20.8455 296.814 22.2641 296.468 24.3595ZM198.071 80.569C195.976 80.2235 194.557 78.2448 194.902 76.1495C195.248 74.0541 197.227 72.6356 199.322 72.9811C201.417 73.3265 202.836 75.3052 202.49 77.4006C202.145 79.4959 200.166 80.9145 198.071 80.569ZM207.275 -37.7885C206.929 -35.6932 208.348 -33.7145 210.443 -33.369C212.538 -33.0235 214.517 -34.4421 214.862 -36.5375C215.208 -38.6328 213.789 -40.6115 211.694 -40.957C209.599 -41.3024 207.62 -39.8839 207.275 -37.7885ZM241.916 108.476C239.82 108.131 238.402 106.152 238.747 104.057C239.093 101.962 241.071 100.543 243.167 100.888C245.262 101.234 246.681 103.213 246.335 105.308C245.99 107.403 244.011 108.822 241.916 108.476ZM49.0273 13.426C48.6818 15.5214 50.1004 17.5 52.1957 17.8455C54.2911 18.191 56.2698 16.7724 56.6152 14.6771C56.9607 12.5817 55.5422 10.603 53.4468 10.2576C51.3515 9.91209 49.3728 11.3306 49.0273 13.426ZM16.2304 13.242C14.1351 12.8965 12.7165 10.9178 13.062 8.82247C13.4075 6.72711 15.3862 5.30856 17.4815 5.65403C19.5769 5.99951 20.9954 7.97819 20.6499 10.0735C20.3045 12.1689 18.3258 13.5875 16.2304 13.242ZM102.831 28.6753C102.486 30.7707 103.904 32.7494 106 33.0948C108.095 33.4403 110.074 32.0218 110.419 29.9264C110.765 27.8311 109.346 25.8524 107.251 25.5069C105.156 25.1614 103.177 26.58 102.831 28.6753ZM120.098 143.005C118.003 142.659 116.584 140.68 116.93 138.585C117.275 136.49 119.254 135.071 121.349 135.417C123.445 135.762 124.863 137.741 124.518 139.836C124.172 141.932 122.194 143.35 120.098 143.005Z" fill="#50BAA2"/>
</svg>
