<svg width="477" height="165" viewBox="0 0 477 165" fill="none" xmlns="http://www.w3.org/2000/svg">
<path d="M138.046 23.4104C106.465 -7.81498 55.6627 -7.8018 24.0942 23.44C23.9788 23.5543 23.8608 23.6649 23.7458 23.7801C-5.6814 53.2478 -7.75567 99.7256 17.5119 131.6C17.5076 131.415 17.5005 131.231 17.5015 131.046C17.5243 126.045 19.519 121.256 23.0525 117.717C26.5859 114.179 31.3727 112.178 36.3732 112.148C37.0012 112.145 37.6242 112.172 38.2423 112.229C30.8774 102.025 27.3822 89.5351 28.3819 76.9914C29.3817 64.4476 34.8111 52.6685 43.6991 43.7608C43.8142 43.6454 43.9317 43.5345 44.0475 43.4206C53.9659 33.6641 67.3332 28.2151 81.2459 28.2573C95.1585 28.2995 108.493 33.8295 118.352 43.646L118.466 43.7608C121.126 46.3573 124.702 47.8002 128.419 47.7766C132.136 47.7529 135.694 46.2645 138.32 43.6344C140.947 41.0043 142.43 37.4446 142.449 33.7276C142.468 30.0107 141.02 26.4363 138.42 23.7801L138.305 23.6653C138.218 23.578 138.133 23.493 138.046 23.4104Z" fill="white"/>
<path d="M147.301 33.7572C147.279 38.7577 145.284 43.5472 141.75 47.0856C138.217 50.6239 133.43 52.6252 128.43 52.6548C127.802 52.6582 127.179 52.6314 126.561 52.5744C133.926 62.7775 137.421 75.2678 136.421 87.8116C135.421 100.355 129.992 112.134 121.104 121.042C120.989 121.157 120.871 121.268 120.755 121.382C110.837 131.139 97.4697 136.588 83.5571 136.546C69.6444 136.503 56.3103 130.974 46.4513 121.157L46.3366 121.042C43.6768 118.446 40.1005 117.003 36.3836 117.027C32.6667 117.05 29.109 118.539 26.4825 121.169C23.856 123.799 22.3725 127.359 22.354 131.075C22.3354 134.792 23.7833 138.367 26.3834 141.023L26.4981 141.138C26.5852 141.225 26.6701 141.31 26.7572 141.393C58.3375 172.618 109.14 172.605 140.709 141.363C140.824 141.249 140.942 141.138 141.057 141.023C170.484 111.555 172.559 65.0774 147.291 33.2035C147.295 33.3879 147.302 33.572 147.301 33.7572Z" fill="white"/>
<path d="M94.9031 50.9273C98.2646 52.2304 101.329 54.1978 103.913 56.7119L97.3603 64.3959C93.2784 61.0584 88.9101 59.3892 84.2552 59.3883C81.7831 59.3883 79.8289 59.8919 78.3924 60.8991C76.955 61.907 76.2365 63.3604 76.2368 65.2593C76.1848 66.4138 76.5185 67.5528 77.1851 68.4968C77.817 69.3319 78.9379 70.1233 80.5477 70.8711C82.9085 71.9014 85.3266 72.795 87.79 73.5475C93.8818 75.505 98.3651 77.908 101.24 80.7567C104.113 83.6057 105.55 87.6491 105.551 92.8869C105.551 96.629 104.602 99.9242 102.706 102.772C100.809 105.621 98.0786 107.837 94.5149 109.42C90.9505 111.003 86.7259 111.794 81.8412 111.794C76.9551 111.794 72.6298 111.017 68.8654 109.463C65.2705 108.019 61.9799 105.91 59.1659 103.247L66.322 95.3905C68.4376 97.2354 70.8401 98.7226 73.4349 99.7936C75.9743 100.791 78.682 101.289 81.41 101.261C84.3415 101.261 86.655 100.614 88.3505 99.3187C90.0453 98.0237 90.8931 96.225 90.894 93.9227C90.9405 92.6062 90.6116 91.3036 89.9456 90.167C89.3125 89.1607 88.2204 88.2542 86.6694 87.4475C84.5024 86.4013 82.2531 85.535 79.9442 84.8574C73.3338 82.8433 68.635 80.3683 65.8477 77.4324C63.0591 74.4971 61.6652 70.7846 61.666 66.295C61.604 63.0441 62.5695 59.8566 64.425 57.1865C66.2639 54.5682 68.8217 52.5537 72.0985 51.143C75.3747 49.7333 79.0821 49.0282 83.2205 49.0277C87.7038 49.0278 91.598 49.661 94.9031 50.9273Z" fill="white"/>
<path d="M226.844 99.9776C233.756 99.9776 239.276 95.0336 239.276 88.0736C239.276 80.9216 233.756 75.9776 226.892 75.9776C220.028 75.9776 214.46 80.8736 214.46 88.0736C214.46 95.0816 220.028 99.9776 226.844 99.9776ZM226.844 92.8736C224.012 92.8736 221.948 90.8096 221.948 88.0736C221.948 85.1936 223.964 83.0816 226.844 83.0816C229.724 83.0816 231.788 85.1936 231.788 88.0736C231.788 90.7616 229.772 92.8736 226.844 92.8736ZM253.81 75.9776C252.082 75.9776 250.258 76.6496 249.202 77.6096V76.5536H241.521V99.4016H249.202V84.3776C249.682 83.4176 250.642 82.9376 251.458 82.9376C252.898 82.9376 253.81 83.9456 253.81 85.4816V99.4016H261.49V84.0416C261.49 79.7216 258.898 75.9776 253.81 75.9776Z" fill="white"/>
<g clip-path="url(#clip0)">
<path d="M451.71 30.8454C441.203 26.1073 429.942 22.6053 418.165 20.6139C418.06 20.5938 417.952 20.6067 417.855 20.651C417.757 20.6953 417.676 20.7687 417.623 20.8611C416.181 23.3949 414.574 26.6979 413.448 29.3072C400.958 27.4411 388.26 27.4411 375.77 29.3072C374.515 26.4154 373.101 23.5956 371.533 20.8611C371.48 20.7676 371.399 20.6925 371.302 20.6459C371.206 20.5993 371.097 20.5833 370.99 20.6002C359.221 22.5915 347.959 26.0936 337.446 30.8385C337.356 30.8765 337.279 30.9412 337.226 31.0239C315.857 62.4395 310 93.0791 312.877 123.334C312.885 123.408 312.908 123.48 312.944 123.545C312.981 123.61 313.03 123.667 313.09 123.712C325.562 132.793 339.474 139.71 354.242 144.175C354.345 144.207 354.455 144.206 354.558 144.175C354.661 144.143 354.752 144.081 354.819 143.996C357.992 139.739 360.821 135.241 363.238 130.517C363.382 130.242 363.245 129.913 362.956 129.803C358.52 128.132 354.222 126.116 350.102 123.774C350.028 123.731 349.965 123.671 349.92 123.599C349.875 123.527 349.848 123.444 349.843 123.359C349.838 123.274 349.853 123.189 349.889 123.112C349.924 123.034 349.979 122.967 350.047 122.915C350.912 122.277 351.777 121.611 352.601 120.945C352.675 120.885 352.765 120.846 352.859 120.834C352.954 120.822 353.05 120.837 353.137 120.876C380.103 132.989 409.307 132.989 435.957 120.876C436.044 120.834 436.141 120.818 436.237 120.829C436.333 120.84 436.424 120.878 436.5 120.938C437.324 121.611 438.182 122.277 439.054 122.915C439.123 122.966 439.178 123.032 439.215 123.109C439.251 123.186 439.268 123.271 439.264 123.356C439.26 123.441 439.235 123.523 439.191 123.596C439.147 123.669 439.086 123.73 439.013 123.774C434.907 126.136 430.635 128.134 426.151 129.796C426.083 129.821 426.02 129.86 425.967 129.911C425.915 129.963 425.874 130.024 425.847 130.093C425.821 130.161 425.809 130.234 425.813 130.307C425.817 130.38 425.836 130.452 425.87 130.517C428.342 135.234 431.171 139.725 434.282 143.989C434.346 144.077 434.436 144.142 434.54 144.177C434.643 144.211 434.754 144.213 434.858 144.182C449.652 139.73 463.586 132.809 476.073 123.712C476.134 123.669 476.185 123.614 476.223 123.55C476.261 123.486 476.285 123.415 476.293 123.341C479.726 88.3616 470.538 57.9692 451.922 31.0377C451.877 30.9502 451.801 30.8819 451.71 30.8454ZM367.269 104.911C359.152 104.911 352.457 97.57 352.457 88.5676C352.457 79.5584 359.022 72.2247 367.269 72.2247C375.577 72.2247 382.211 79.6202 382.08 88.5676C382.08 97.5768 375.516 104.911 367.269 104.911ZM422.031 104.911C413.908 104.911 407.22 97.57 407.22 88.5676C407.22 79.5584 413.777 72.2247 422.031 72.2247C430.34 72.2247 436.973 79.6202 436.843 88.5676C436.843 97.5768 430.347 104.911 422.031 104.911Z" fill="white"/>
</g>
<defs>
<clipPath id="clip0">
<rect width="164.803" height="164.803" fill="white" transform="translate(312.197 0.00012207)"/>
</clipPath>
</defs>
</svg>
