<svg width="264" height="51" viewBox="0 0 264 51" fill="none" xmlns="http://www.w3.org/2000/svg">
<path d="M42.659 7.85614C47.3212 12.5478 49.9334 18.8964 49.923 25.5106C49.9126 32.1248 47.2805 38.4651 42.6035 43.1421C37.9265 47.8191 31.5862 50.4512 24.972 50.4616C18.3578 50.472 12.0092 47.8598 7.31754 43.1976L7.2821 43.1622C7.25526 43.1355 7.22917 43.1092 7.20377 43.0825C6.41625 42.2532 5.98708 41.1472 6.00917 40.0038C6.03127 38.8605 6.50287 37.7718 7.32184 36.9737C8.14081 36.1755 9.24123 35.7321 10.3848 35.7394C11.5283 35.7467 12.623 36.2042 13.4317 37.0128L13.4669 37.0482C16.5162 40.1056 20.6545 41.8275 24.9726 41.8357C29.2907 41.8438 33.4355 40.1376 36.4964 37.0918C39.5573 34.0459 41.2839 29.9096 41.2971 25.5915C41.3102 21.2734 39.6086 17.1267 36.5663 14.0623C36.5474 14.0434 36.5285 14.0245 36.5095 14.0057C37.3281 14.8063 38.4293 15.2518 39.5743 15.2455C40.7193 15.2391 41.8155 14.7815 42.6251 13.9719C43.4348 13.1623 43.8924 12.066 43.8987 10.921C43.9051 9.77607 43.4596 8.6748 42.659 7.85627V7.85614Z" fill="#FFDF00"/>
<path d="M42.6248 7.8217L42.6602 7.85706C43.46 8.67574 43.9049 9.77675 43.8982 10.9213C43.8916 12.0658 43.434 13.1616 42.6247 13.9709C41.8153 14.7803 40.7196 15.2379 39.575 15.2446C38.4305 15.2512 37.3295 14.8064 36.5108 14.0065L36.4753 13.9712C33.4172 10.9272 29.2766 9.22049 24.9618 9.22548C20.647 9.23047 16.5103 10.9467 13.4593 13.9978C10.4083 17.0488 8.69202 21.1855 8.68705 25.5003C8.68207 29.8151 10.3888 33.9557 13.4328 37.0138C12.6241 36.2052 11.5295 35.7477 10.3859 35.7404C9.24234 35.7331 8.14193 36.1765 7.32296 36.9747C6.50399 37.7728 6.03239 38.8615 6.01029 40.0048C5.98819 41.1482 6.41737 42.2542 7.20488 43.0834C2.56871 38.3866 -0.0213074 32.0466 0.000132049 25.447C0.0215715 18.8475 2.65273 12.5244 7.31932 7.85778C11.9859 3.19118 18.309 0.560008 24.9085 0.538554C31.5081 0.5171 37.8482 3.1071 42.545 7.74327C42.5716 7.76867 42.5976 7.79486 42.6248 7.8217Z" fill="#24A98B"/>
<path d="M36.4744 13.9702L36.5098 14.0055C39.5551 17.0634 41.2629 21.2044 41.2584 25.5199C41.254 29.8355 39.5377 33.973 36.4861 37.0245C33.4345 40.0761 29.297 41.7923 24.9815 41.7968C20.6659 41.8012 16.5249 40.0934 13.4671 37.0481L13.4319 37.0127C10.3901 33.9542 8.68531 29.8143 8.69124 25.5007C8.69717 21.1872 10.4134 17.052 13.4635 14.0018C16.5137 10.9517 20.6489 9.23547 24.9624 9.22954C29.276 9.2236 33.4159 10.9284 36.4744 13.9702V13.9702Z" fill="white" stroke="black" stroke-width="0.460997" stroke-miterlimit="10"/>
<path d="M36.5078 13.9287L36.5432 13.964C39.5989 17.0197 41.3155 21.164 41.3155 25.4854C41.3155 29.8067 39.5989 33.9511 36.5432 37.0067C33.4875 40.0624 29.3432 41.779 25.0218 41.779C20.7005 41.779 16.5561 40.0623 13.5005 37.0067L13.4652 36.9713C10.4212 33.9133 8.71452 29.7726 8.71949 25.4578C8.72447 21.143 10.4407 17.0063 13.4917 13.9553C16.5428 10.9043 20.6794 9.18799 24.9943 9.18299C29.3091 9.178 33.4497 10.8847 36.5078 13.9287Z" fill="black"/>
<path d="M28.8897 16.4546C29.9254 16.8556 30.8697 17.461 31.6664 18.2349L29.6468 20.5998C28.5255 19.6242 27.0943 19.078 25.6081 19.0587C24.9723 19.0246 24.3414 19.1869 23.8011 19.5238C23.5852 19.6723 23.4109 19.8736 23.2947 20.1084C23.1784 20.3433 23.1241 20.6039 23.1368 20.8656C23.121 21.221 23.2238 21.5715 23.4291 21.862C23.7126 22.1834 24.0676 22.4336 24.4655 22.5927C25.193 22.9099 25.9383 23.1849 26.6974 23.4164C28.575 24.0189 29.9567 24.7585 30.8427 25.6352C31.7286 26.5119 32.1713 27.7563 32.1709 29.3685C32.1919 30.4479 31.8862 31.5084 31.294 32.411C30.6674 33.3221 29.7908 34.0327 28.7697 34.457C27.5331 34.9709 26.2025 35.2198 24.8638 35.1877C23.4966 35.2133 22.1378 34.9694 20.8648 34.4701C19.757 34.0258 18.7429 33.3768 17.8755 32.557L20.0809 30.1389C20.7331 30.7069 21.4735 31.1646 22.2731 31.4941C23.0558 31.801 23.8903 31.9544 24.731 31.9458C25.6344 31.9458 26.3474 31.7465 26.8699 31.348C27.1255 31.1556 27.3304 30.9038 27.4669 30.6145C27.6034 30.3251 27.6674 30.0069 27.6534 29.6873C27.6678 29.2819 27.5664 28.8809 27.361 28.5311C27.1038 28.1682 26.7556 27.8795 26.3514 27.6941C25.6837 27.3716 24.9905 27.105 24.2789 26.8969C22.2414 26.2771 20.7932 25.5153 19.9343 24.6117C19.5046 24.1532 19.1697 23.6144 18.9485 23.0262C18.7274 22.438 18.6244 21.8119 18.6456 21.1839C18.6266 20.1832 18.9242 19.2021 19.496 18.3806C20.0935 17.5503 20.9132 16.9056 21.8609 16.5205C22.9471 16.0718 24.1136 15.8503 25.2887 15.8696C26.5146 15.8437 27.735 16.042 28.8897 16.4546Z" fill="white"/>
<path d="M66.8816 23.1134C65.7794 23.1351 64.6851 22.9219 63.6716 22.4881C62.7868 22.107 62.0264 21.4856 61.4767 20.6944C60.9221 19.8508 60.6343 18.8598 60.6506 17.8503H63.8369C63.8518 18.5838 64.1524 19.2824 64.6748 19.7975C65.2018 20.3249 65.9295 20.5884 66.8579 20.5881C67.5432 20.625 68.2197 20.4204 68.7696 20.01C69 19.8253 69.1839 19.5893 69.3069 19.3209C69.4298 19.0525 69.4882 18.7591 69.4776 18.464C69.4941 18.1709 69.4467 17.8776 69.3387 17.6046C69.2307 17.3315 69.0647 17.0852 68.8521 16.8827C68.3657 16.466 67.7996 16.1528 67.1881 15.9623C66.4958 15.7263 65.7564 15.4745 64.9699 15.2071C63.6952 14.7668 62.7235 14.2003 62.0549 13.5077C61.3859 12.8155 61.0516 11.8951 61.0519 10.7465C61.0121 9.85608 61.2559 8.97603 61.7481 8.23299C62.2435 7.51992 62.9252 6.9566 63.7188 6.60449C64.6368 6.22083 65.6222 6.02425 66.6171 6.02626C67.612 6.02827 68.5966 6.22883 69.513 6.6162C70.3128 6.97477 70.9987 7.5463 71.4956 8.26832C71.9885 9.01898 72.2548 9.89574 72.2625 10.7937H69.0293C69.0131 10.2109 68.772 9.65688 68.3565 9.24779C68.1187 9.01665 67.8353 8.83749 67.5245 8.7217C67.2137 8.60591 66.8822 8.55601 66.5511 8.57518C65.9573 8.53966 65.3694 8.71058 64.8872 9.05897C64.6634 9.23145 64.4851 9.45599 64.3679 9.71307C64.2506 9.97015 64.198 10.252 64.2145 10.534C64.2025 10.7768 64.2426 11.0193 64.3322 11.2452C64.4217 11.4712 64.5586 11.6753 64.7337 11.8439C65.1473 12.2062 65.6286 12.4829 66.1498 12.6582C66.7477 12.8787 67.4321 13.1147 68.2032 13.3662C68.9782 13.6304 69.7284 13.9621 70.4454 14.3575C71.1021 14.7171 71.6611 15.2316 72.0739 15.8562C72.5095 16.577 72.7229 17.4102 72.6873 18.2517C72.6921 19.0995 72.4635 19.9324 72.0266 20.6591C71.5555 21.4265 70.8762 22.0445 70.0677 22.441C69.075 22.9174 67.9822 23.148 66.8816 23.1134Z" fill="#0B151C"/>
<path d="M80.8767 23.1131C79.8069 23.1294 78.752 22.8605 77.8203 22.3343C76.9223 21.822 76.18 21.0756 75.6726 20.1747C75.131 19.1974 74.8581 18.0939 74.882 16.9768C74.8583 15.8582 75.1354 14.7537 75.6844 13.7788C76.1985 12.879 76.9442 12.1333 77.8439 11.6193C78.7774 11.1083 79.8244 10.8405 80.8886 10.8405C81.9527 10.8405 82.9997 11.1083 83.9332 11.6193C84.831 12.1319 85.5732 12.8782 86.0808 13.7788C86.6223 14.7562 86.8951 15.8597 86.8714 16.9768C86.8951 18.0939 86.6223 19.1974 86.0808 20.1747C85.5709 21.0777 84.8242 21.8244 83.9213 22.3343C82.9928 22.8577 81.9425 23.1263 80.8767 23.1131ZM80.8767 20.4934C81.2615 20.4953 81.6424 20.4177 81.9958 20.2654C82.3491 20.1131 82.6671 19.8894 82.9299 19.6084C83.512 19.0184 83.803 18.1412 83.8032 16.9769C83.8034 15.8126 83.5123 14.9354 82.9299 14.3453C82.6671 14.0658 82.3499 13.8431 81.9978 13.6909C81.6457 13.5386 81.2661 13.4601 80.8825 13.4601C80.4989 13.4601 80.1193 13.5386 79.7672 13.6909C79.4151 13.8431 79.0979 14.0658 78.8351 14.3453C78.2606 14.9355 77.9734 15.8126 77.9736 16.9769C77.9736 18.1414 78.2608 19.0186 78.8351 19.6084C79.0951 19.8899 79.411 20.1139 79.7625 20.2663C80.1141 20.4187 80.4936 20.4961 80.8767 20.4934Z" fill="#0B151C"/>
<path d="M90.1045 22.8299V13.649H88.4997V11.1237H90.1045V9.75482C90.1045 8.33871 90.4625 7.33171 91.1784 6.73382C91.8943 6.13593 92.8659 5.83697 94.0933 5.83691H95.3913V8.40944H94.5653C94.0461 8.40944 93.6763 8.51172 93.4561 8.71629C93.2359 8.92086 93.1257 9.26704 93.1256 9.75482V11.1237H95.651V13.6489H93.1256V22.8299H90.1045Z" fill="#0B151C"/>
<path d="M103.25 22.8299C102.023 22.8299 101.04 22.531 100.3 21.9331C99.5605 21.3352 99.1907 20.2732 99.1908 18.7469V13.649H97.1846V11.1236H99.1908L99.5449 7.98456H102.212V11.1236H105.375V13.6489H102.212V18.7705C102.212 19.337 102.334 19.7264 102.578 19.9387C102.822 20.151 103.243 20.2573 103.84 20.2574H105.304V22.8299H103.25Z" fill="#0B151C"/>
<path d="M110.26 22.8299L106.838 11.1237H109.835L111.865 19.5493L114.225 11.1237H117.576L119.936 19.5493L121.99 11.1237H124.987L121.541 22.8299H118.402L115.9 14.0738L113.399 22.8299H110.26Z" fill="#0B151C"/>
<path d="M130.344 23.1132C129.492 23.1448 128.644 22.9792 127.866 22.6294C127.27 22.3515 126.769 21.9041 126.426 21.3432C126.111 20.8069 125.948 20.195 125.954 19.5731C125.942 19.063 126.051 18.5574 126.273 18.0978C126.495 17.6382 126.822 17.2379 127.229 16.9297C128.078 16.2534 129.353 15.9151 131.052 15.9149H134.026V15.6316C134.026 14.829 133.798 14.239 133.342 13.8615C132.861 13.4755 132.258 13.2746 131.642 13.295C131.076 13.2819 130.519 13.4336 130.037 13.7315C129.813 13.8737 129.621 14.0618 129.475 14.2835C129.328 14.5053 129.23 14.7556 129.188 15.0179H126.238C126.3 14.2096 126.6 13.4378 127.099 12.7993C127.607 12.1607 128.269 11.6613 129.022 11.3479C129.86 10.9998 130.759 10.8272 131.666 10.8406C133.333 10.8406 134.647 11.2575 135.607 12.0913C136.567 12.9255 137.047 14.1056 137.047 15.6316V22.8299H134.475L134.191 20.9418C133.844 21.5729 133.345 22.1081 132.74 22.4994C132.019 22.9352 131.186 23.1487 130.344 23.1132ZM131.029 20.753C131.407 20.7736 131.786 20.7079 132.136 20.5607C132.485 20.4135 132.797 20.1887 133.047 19.9033C133.541 19.3028 133.856 18.5747 133.955 17.8029H131.383C130.58 17.8029 130.006 17.9484 129.66 18.2395C129.497 18.3668 129.365 18.5299 129.275 18.716C129.185 18.9022 129.139 19.1066 129.14 19.3134C129.131 19.5197 129.174 19.725 129.265 19.9105C129.356 20.096 129.491 20.2558 129.66 20.3754C130.064 20.6441 130.544 20.7765 131.029 20.753Z" fill="#0B151C"/>
<path d="M139.926 22.8299V11.1236H142.617L142.9 13.3184C143.312 12.5765 143.91 11.9544 144.635 11.513C145.416 11.0513 146.312 10.8183 147.219 10.8405V14.0264H146.37C145.765 14.0165 145.165 14.1206 144.599 14.3333C144.083 14.5353 143.653 14.9108 143.384 15.3953C143.093 15.8991 142.947 16.5992 142.947 17.4958V22.8299H139.926Z" fill="#0B151C"/>
<path d="M154.748 23.1132C153.655 23.1342 152.574 22.8742 151.609 22.3579C150.708 21.8658 149.964 21.1296 149.462 20.2338C148.929 19.2664 148.66 18.1755 148.683 17.0711C148.662 15.9459 148.926 14.8337 149.45 13.8377C149.938 12.918 150.674 12.1535 151.574 11.631C152.55 11.0859 153.654 10.8129 154.772 10.8406C155.836 10.8194 156.886 11.0799 157.816 11.5958C158.681 12.0825 159.395 12.7967 159.882 13.6609C160.381 14.5502 160.638 15.5556 160.625 16.5756C160.625 16.7489 160.621 16.9299 160.613 17.1185C160.605 17.3072 160.593 17.5042 160.578 17.7084H151.68C151.689 18.1119 151.778 18.5095 151.942 18.8782C152.107 19.2469 152.342 19.5794 152.636 19.8562C153.207 20.3741 153.954 20.6529 154.725 20.635C155.27 20.6538 155.808 20.5101 156.271 20.222C156.677 19.9592 157 19.5869 157.203 19.1481H160.271C160.049 19.8898 159.676 20.577 159.173 21.166C158.657 21.7756 158.012 22.2632 157.285 22.5939C156.488 22.9505 155.622 23.1277 154.748 23.1132ZM154.772 13.295C154.068 13.2837 153.38 13.5033 152.813 13.9204C152.217 14.3874 151.827 15.0694 151.727 15.8203H157.557C157.549 15.4716 157.469 15.1283 157.323 14.8116C157.177 14.495 156.967 14.2117 156.707 13.9794C156.171 13.5169 155.48 13.2726 154.772 13.295Z" fill="#0B151C"/>
<path d="M174.502 23.1131C173.4 23.1348 172.306 22.9217 171.292 22.4878C170.407 22.1067 169.647 21.4854 169.097 20.6941C168.543 19.8505 168.255 18.8595 168.271 17.8501H171.458C171.472 18.5835 171.773 19.2821 172.295 19.7972C172.822 20.3246 173.55 20.5881 174.479 20.5878C175.164 20.6247 175.84 20.4201 176.39 20.0097C176.621 19.825 176.805 19.5891 176.928 19.3206C177.05 19.0522 177.109 18.7588 177.098 18.4638C177.115 18.1706 177.067 17.8773 176.959 17.6043C176.851 17.3312 176.685 17.0849 176.473 16.8824C175.986 16.4657 175.42 16.1525 174.809 15.962C174.116 15.726 173.377 15.4743 172.591 15.2068C171.316 14.7665 170.344 14.2 169.676 13.5074C169.007 12.8152 168.672 11.8948 168.673 10.7462C168.633 9.8558 168.877 8.97575 169.369 8.23271C169.864 7.51964 170.546 6.95632 171.34 6.60421C172.258 6.22056 173.243 6.02398 174.238 6.02599C175.233 6.028 176.217 6.22856 177.134 6.61592C177.934 6.9745 178.619 7.54603 179.116 8.26805C179.609 9.0187 179.875 9.89546 179.883 10.7935H176.65C176.634 10.2106 176.393 9.65661 175.977 9.24751C175.739 9.01637 175.456 8.83722 175.145 8.72143C174.834 8.60564 174.503 8.55574 174.172 8.5749C173.578 8.53938 172.99 8.71031 172.508 9.0587C172.284 9.23117 172.106 9.45571 171.989 9.71279C171.871 9.96987 171.819 10.2517 171.835 10.5338C171.823 10.7765 171.863 11.019 171.953 11.2449C172.042 11.4709 172.179 11.675 172.354 11.8436C172.768 12.2059 173.249 12.4827 173.77 12.6579C174.368 12.8784 175.053 13.1144 175.824 13.3659C176.599 13.6301 177.349 13.9618 178.066 14.3572C178.723 14.7169 179.282 15.2313 179.695 15.8559C180.13 16.5767 180.344 17.4099 180.308 18.2514C180.313 19.0993 180.084 19.9321 179.647 20.6588C179.176 21.4263 178.497 22.0442 177.688 22.4407C176.696 22.9171 175.603 23.1477 174.502 23.1131Z" fill="#0B151C"/>
<path d="M184.344 28.0222L187.058 22.0511H186.35L181.795 11.1237H185.075L188.356 19.3605L191.778 11.1237H194.988L187.553 28.0222L184.344 28.0222Z" fill="#0B151C"/>
<path d="M201.475 23.2727C200.538 23.2918 199.606 23.1191 198.738 22.7653C198 22.4639 197.35 21.9808 196.85 21.361C196.377 20.7622 196.082 20.0424 196 19.284H199.045C199.148 19.7546 199.421 20.1705 199.811 20.4523C200.28 20.7913 200.85 20.9617 201.428 20.9361C202.089 20.9361 202.573 20.8024 202.88 20.5349C203.02 20.4254 203.134 20.2859 203.214 20.1267C203.293 19.9675 203.336 19.7925 203.34 19.6145C203.356 19.3948 203.3 19.1757 203.181 18.9905C203.062 18.8052 202.886 18.6638 202.679 18.5877C202.081 18.3607 201.465 18.1831 200.838 18.0567C200.334 17.9467 199.823 17.813 199.304 17.6555C198.807 17.508 198.329 17.3061 197.876 17.0536C197.458 16.8235 197.099 16.5005 196.826 16.1095C196.547 15.6868 196.407 15.1878 196.424 14.6817C196.419 14.1798 196.528 13.6832 196.743 13.2295C196.958 12.7757 197.272 12.3765 197.664 12.062C198.49 11.3539 199.65 10.9999 201.145 11C202.529 11 203.635 11.3225 204.461 11.9676C204.872 12.2912 205.215 12.6939 205.468 13.1519C205.721 13.6099 205.88 14.114 205.936 14.6345H203.08C202.907 13.7694 202.254 13.3367 201.121 13.3365C200.661 13.3081 200.203 13.4235 199.812 13.6668C199.672 13.7549 199.556 13.8767 199.476 14.021C199.395 14.1654 199.353 14.3276 199.351 14.4929C199.351 14.8392 199.579 15.1145 200.036 15.3189C200.622 15.5649 201.231 15.7546 201.853 15.8854C202.671 16.0742 203.422 16.2827 204.107 16.5107C204.732 16.7019 205.297 17.0515 205.747 17.5256C206.156 17.9741 206.361 18.6153 206.361 19.4491C206.384 20.1456 206.186 20.8316 205.794 21.4081C205.369 22.0162 204.78 22.491 204.095 22.777C203.267 23.1248 202.374 23.2937 201.475 23.2727Z" fill="#0B151C"/>
<path d="M213.633 22.8299C212.406 22.8299 211.422 22.531 210.683 21.9331C209.943 21.3352 209.573 20.2732 209.573 18.7469V13.649H207.567V11.1236H209.573L209.928 7.98456H212.594V11.1236H215.757V13.6489H212.594V18.7705C212.594 19.337 212.716 19.7264 212.96 19.9387C213.204 20.151 213.625 20.2573 214.223 20.2574H215.686V22.8299H213.633Z" fill="#0B151C"/>
<path d="M223.734 23.1132C222.641 23.1342 221.56 22.8742 220.595 22.3579C219.694 21.8658 218.95 21.1296 218.448 20.2338C217.914 19.2664 217.646 18.1755 217.669 17.0711C217.648 15.9459 217.912 14.8337 218.436 13.8377C218.923 12.9181 219.659 12.1535 220.56 11.631C221.536 11.0859 222.64 10.8129 223.758 10.8406C224.822 10.8194 225.872 11.0799 226.802 11.5958C227.667 12.0825 228.381 12.7967 228.868 13.6609C229.367 14.5503 229.624 15.5557 229.611 16.5757C229.611 16.749 229.607 16.93 229.599 17.1186C229.591 17.3073 229.579 17.5043 229.564 17.7085H220.666C220.675 18.112 220.764 18.5096 220.928 18.8783C221.093 19.247 221.328 19.5795 221.622 19.8563C222.193 20.3742 222.94 20.653 223.711 20.635C224.256 20.6539 224.794 20.5101 225.257 20.222C225.663 19.9593 225.986 19.5869 226.189 19.1481H229.257C229.035 19.8898 228.662 20.5771 228.159 21.166C227.643 21.7756 226.998 22.2632 226.271 22.5939C225.474 22.9505 224.608 23.1277 223.734 23.1132ZM223.758 13.295C223.054 13.2837 222.366 13.5033 221.799 13.9204C221.203 14.3874 220.813 15.0694 220.713 15.8203H226.543C226.535 15.4716 226.455 15.1283 226.309 14.8116C226.163 14.495 225.953 14.2117 225.693 13.9794C225.157 13.5169 224.466 13.2726 223.758 13.295Z" fill="#0B151C"/>
<path d="M232.16 22.8299V11.1236H234.827L235.086 12.7049C235.467 12.136 235.981 11.6699 236.585 11.3478C237.25 10.999 237.993 10.8245 238.745 10.8405C240.554 10.8405 241.836 11.5407 242.592 12.941C243.021 12.2915 243.61 11.7633 244.303 11.4069C245.027 11.0273 245.833 10.8327 246.651 10.8405C248.177 10.8405 249.349 11.2968 250.168 12.2094C250.986 13.1221 251.395 14.4595 251.395 16.2216V22.8301H248.374V16.5046C248.374 15.4979 248.181 14.7269 247.796 14.1917C247.41 13.657 246.816 13.3896 246.014 13.3892C245.638 13.3764 245.265 13.4507 244.923 13.6063C244.581 13.7619 244.28 13.9945 244.043 14.2861C243.548 14.8843 243.3 15.7182 243.3 16.7878V22.8299H240.279V16.5046C240.279 15.4979 240.082 14.7269 239.689 14.1917C239.295 13.657 238.689 13.3896 237.871 13.3892C237.5 13.3781 237.13 13.4533 236.793 13.6089C236.455 13.7645 236.158 13.9963 235.924 14.2861C235.429 14.8843 235.181 15.7182 235.181 16.7878V22.8299H232.16Z" fill="#0B151C"/>
<path d="M259.113 23.1131C258.175 23.1323 257.244 22.9596 256.375 22.6057C255.637 22.3044 254.988 21.8213 254.487 21.2014C254.014 20.6027 253.72 19.8829 253.637 19.1245H256.682C256.785 19.595 257.058 20.011 257.449 20.2928C257.918 20.6317 258.487 20.8022 259.065 20.7766C259.726 20.7766 260.21 20.6429 260.517 20.3754C260.657 20.2659 260.771 20.1264 260.851 19.9672C260.931 19.808 260.974 19.633 260.977 19.455C260.993 19.2353 260.938 19.0162 260.818 18.831C260.699 18.6457 260.523 18.5043 260.316 18.4282C259.718 18.2011 259.102 18.0235 258.475 17.8972C257.972 17.7872 257.46 17.6535 256.941 17.4959C256.445 17.3484 255.966 17.1466 255.513 16.8941C255.096 16.664 254.736 16.341 254.463 15.95C254.185 15.5273 254.044 15.0283 254.062 14.5222C254.057 14.0203 254.166 13.5237 254.38 13.0699C254.595 12.6162 254.91 12.217 255.301 11.9025C256.127 11.1944 257.287 10.8404 258.782 10.8405C260.167 10.8405 261.272 11.163 262.098 11.8081C262.509 12.1317 262.852 12.5344 263.105 12.9924C263.359 13.4504 263.518 13.9545 263.573 14.475H260.718C260.544 13.6099 259.891 13.1772 258.759 13.177C258.298 13.1485 257.841 13.264 257.449 13.5073C257.309 13.5954 257.194 13.7172 257.113 13.8615C257.033 14.0059 256.99 14.1681 256.988 14.3334C256.988 14.6797 257.217 14.955 257.673 15.1594C258.259 15.4054 258.868 15.5951 259.49 15.7259C260.308 15.9147 261.06 16.1232 261.744 16.3512C262.369 16.5424 262.934 16.892 263.384 17.3661C263.793 17.8146 263.998 18.4557 263.998 19.2896C264.022 19.9861 263.823 20.6721 263.432 21.2486C263.006 21.8567 262.417 22.3314 261.732 22.6175C260.904 22.9653 260.011 23.1342 259.113 23.1131Z" fill="#0B151C"/>
<path d="M64.2617 46.1226C63.5417 46.1395 62.8276 45.9904 62.1746 45.6866C61.6109 45.4211 61.1353 44.9995 60.804 44.4717C60.4752 43.9274 60.3078 43.3008 60.3212 42.665H61.6919C61.6881 43.0759 61.7899 43.4808 61.9877 43.841C62.1885 44.2029 62.4884 44.5001 62.8522 44.6976C63.2867 44.9236 63.7723 45.0336 64.2618 45.0169C64.8784 45.056 65.4879 44.8676 65.9749 44.4874C66.1688 44.3262 66.324 44.1236 66.4291 43.8945C66.5342 43.6653 66.5866 43.4155 66.5823 43.1635C66.6003 42.7924 66.5024 42.425 66.302 42.1121C66.1056 41.8393 65.8466 41.6176 65.5466 41.4658C65.1975 41.2867 64.8325 41.1407 64.4562 41.0296C64.046 40.9051 63.6177 40.7649 63.1712 40.6092C62.471 40.4022 61.8302 40.0311 61.3023 39.5267C60.8857 39.065 60.6676 38.458 60.6949 37.8367C60.675 37.2916 60.8159 36.7527 61.1001 36.287C61.3886 35.8281 61.8019 35.4608 62.2915 35.228C62.8639 34.961 63.4903 34.8304 64.1216 34.8464C64.7487 34.8314 65.3704 34.9648 65.9361 35.2358C66.4279 35.4756 66.8431 35.8478 67.1353 36.3104C67.424 36.7787 67.5777 37.3177 67.5793 37.8679H66.2086C66.2055 37.5547 66.1252 37.2471 65.9748 36.9724C65.8117 36.6689 65.566 36.4178 65.2661 36.2481C64.9013 36.0494 64.4898 35.9526 64.0747 35.9678C63.5504 35.936 63.0326 36.0966 62.6183 36.4195C62.4299 36.5762 62.2805 36.7746 62.1819 36.9989C62.0832 37.2232 62.038 37.4674 62.0499 37.7122C62.0369 37.9092 62.0655 38.1067 62.134 38.2919C62.2024 38.477 62.3092 38.6457 62.4472 38.7868C62.7702 39.0691 63.1499 39.2789 63.5608 39.4021C64.0382 39.5632 64.5885 39.7475 65.2116 39.955C65.699 40.127 66.1685 40.3461 66.6134 40.6092C67.0141 40.8438 67.3489 41.176 67.5867 41.5748C67.8371 42.0378 67.9582 42.5597 67.9373 43.0856C67.9375 43.6037 67.7976 44.1122 67.5324 44.5574C67.2392 45.0413 66.8153 45.4327 66.3096 45.6866C65.673 45.9976 64.9697 46.1473 64.2617 46.1226Z" fill="#0B151C"/>
<path d="M72.7655 45.9365C72.1663 45.9709 71.5746 45.7885 71.0988 45.4226C70.694 45.0799 70.4915 44.4621 70.4915 43.569V39.3172H69.152V38.2113H70.4915L70.6629 36.3579H71.7998V38.2113H74.0737V39.3172H71.7998V43.5691C71.7998 44.0574 71.8985 44.3871 72.0958 44.5582C72.2928 44.7295 72.6406 44.8152 73.1392 44.8152H73.9492V45.9366L72.7655 45.9365Z" fill="#0B151C"/>
<path d="M78.559 46.1234C78.1577 46.1431 77.7566 46.0793 77.3812 45.9358C77.0058 45.7924 76.6644 45.5725 76.3785 45.2901C75.8384 44.7347 75.5685 43.8807 75.5687 42.7281V38.2113H76.877V42.588C76.877 44.1975 77.5363 45.0022 78.8548 45.002C79.1698 45.0101 79.4827 44.9494 79.7719 44.8244C80.061 44.6993 80.3195 44.5128 80.5293 44.2778C80.9703 43.795 81.191 43.1071 81.1912 42.2142V38.2113H82.4996V45.9365H81.3158L81.2223 44.5503C80.9892 45.0321 80.6177 45.4334 80.1553 45.7029C79.6716 45.9863 79.1195 46.1317 78.559 46.1234Z" fill="#0B151C"/>
<path d="M88.1533 46.1233C87.4446 46.1392 86.7458 45.9557 86.1363 45.5938C85.5638 45.245 85.0999 44.7434 84.7968 44.1454C84.472 43.4984 84.309 42.7822 84.3218 42.0584C84.3085 41.336 84.4743 40.6216 84.8046 39.9791C85.1114 39.3877 85.5747 38.892 86.1441 38.5461C86.7573 38.1872 87.4585 38.0065 88.1689 38.0244C88.7531 38.0129 89.3311 38.1468 89.8509 38.4138C90.3261 38.6612 90.7206 39.0395 90.9878 39.504V34.7226H92.2961V45.9366H91.1123L90.9877 44.6594C90.703 45.0672 90.3372 45.4119 89.9131 45.6718C89.3827 45.9898 88.7713 46.1467 88.1533 46.1233ZM88.2935 44.9864C88.7781 44.9957 89.2556 44.8689 89.6717 44.6204C90.0728 44.3748 90.3967 44.0213 90.6063 43.6002C90.8268 43.1216 90.941 42.6008 90.941 42.0739C90.941 41.5469 90.8268 41.0261 90.6063 40.5475C90.3966 40.1265 90.0728 39.773 89.6717 39.5274C89.2555 39.279 88.7781 39.1522 88.2935 39.1613C87.8139 39.1535 87.3418 39.2803 86.9307 39.5274C86.5294 39.7728 86.2055 40.1264 85.996 40.5475C85.7755 41.0261 85.6613 41.5469 85.6613 42.0739C85.6613 42.6008 85.7755 43.1216 85.996 43.6002C86.2054 44.0214 86.5294 44.375 86.9307 44.6204C87.3417 44.8676 87.8139 44.9944 88.2935 44.9864Z" fill="#0B151C"/>
<path d="M97.9031 46.1233C97.2151 46.1361 96.5366 45.9611 95.9406 45.6172C95.3702 45.2805 94.9039 44.7927 94.5934 44.2076C94.2529 43.5489 94.0842 42.815 94.1028 42.0738C94.086 41.3362 94.2519 40.6059 94.5856 39.9479C94.8914 39.3574 95.3586 38.8658 95.9329 38.5305C96.5422 38.1846 97.2337 38.0097 97.9343 38.0244C98.6154 38.0068 99.2877 38.1822 99.8734 38.5305C100.404 38.8528 100.837 39.313 101.127 39.8622C101.417 40.409 101.567 41.019 101.563 41.6378C101.563 41.7522 101.561 41.8664 101.555 41.9804C101.55 42.0948 101.548 42.2246 101.548 42.3698H95.3956C95.4053 42.8876 95.5473 43.3943 95.8082 43.8418C96.0255 44.2025 96.3329 44.5006 96.7001 44.7067C97.0674 44.9129 97.4819 45.02 97.9031 45.0176C98.3824 45.0347 98.8554 44.9043 99.2582 44.6438C99.6205 44.3959 99.8978 44.0424 100.052 43.6314H101.345C101.141 44.3767 100.688 45.0299 100.063 45.4831C99.4367 45.9362 98.6748 46.1621 97.9031 46.1234V46.1233ZM97.9031 39.1301C97.3011 39.123 96.7152 39.3239 96.2442 39.6989C95.9973 39.9018 95.7956 40.1543 95.6521 40.44C95.5086 40.7256 95.4265 41.0382 95.4111 41.3575H100.27C100.271 41.0501 100.208 40.7459 100.085 40.4643C99.9613 40.1827 99.7805 39.93 99.554 39.7222C99.0979 39.324 98.5083 39.1125 97.9031 39.1301Z" fill="#0B151C"/>
<path d="M103.292 45.9365V38.2113H104.475L104.553 39.5975C104.794 39.1185 105.167 38.7186 105.628 38.445C106.109 38.161 106.658 38.0154 107.217 38.0244C107.619 38.0053 108.021 38.0694 108.398 38.2128C108.774 38.3561 109.117 38.5757 109.405 38.8576C109.95 39.4133 110.223 40.2673 110.223 41.4197V45.9365H108.914V41.5599C108.914 39.9506 108.25 39.1458 106.921 39.1458C106.608 39.1388 106.298 39.2 106.012 39.3251C105.725 39.4502 105.469 39.6361 105.262 39.87C104.821 40.3529 104.6 41.0408 104.6 41.9338V45.9365H103.292Z" fill="#0B151C"/>
<path d="M115.253 45.9365C114.654 45.9709 114.062 45.7885 113.587 45.4226C113.182 45.0799 112.979 44.4621 112.979 43.569V39.3172H111.64V38.2113H112.979L113.151 36.3579H114.287V38.2113H116.561V39.3172H114.287V43.5691C114.287 44.0574 114.386 44.3871 114.583 44.5582C114.78 44.7295 115.128 44.8152 115.627 44.8152H116.437V45.9366L115.253 45.9365Z" fill="#0B151C"/>
<path d="M125.906 46.1233C125.186 46.1403 124.472 45.9911 123.819 45.6873C123.256 45.4219 122.78 45.0002 122.449 44.4725C122.12 43.9281 121.953 43.3016 121.966 42.6657H123.336C123.333 43.0766 123.434 43.4816 123.632 43.8418C123.833 44.2037 124.133 44.5008 124.497 44.6983C124.931 44.9244 125.417 45.0344 125.906 45.0176C126.523 45.0567 127.132 44.8683 127.619 44.4881C127.813 44.327 127.969 44.1244 128.074 43.8952C128.179 43.6661 128.231 43.4163 128.227 43.1642C128.245 42.7932 128.147 42.4257 127.947 42.1129C127.75 41.84 127.491 41.6184 127.191 41.4665C126.842 41.2875 126.477 41.1415 126.101 41.0304C125.691 40.9058 125.262 40.7657 124.816 40.6099C124.116 40.403 123.475 40.0318 122.947 39.5274C122.53 39.0657 122.312 38.4587 122.339 37.8375C122.32 37.2924 122.46 36.7534 122.745 36.2878C123.033 35.8288 123.446 35.4615 123.936 35.2288C124.508 34.9618 125.135 34.8312 125.766 34.8472C126.393 34.8321 127.015 34.9656 127.581 35.2366C128.072 35.4764 128.488 35.8485 128.78 36.3112C129.069 36.7795 129.222 37.3185 129.224 37.8687H127.853C127.85 37.5555 127.77 37.2479 127.62 36.9731C127.456 36.6696 127.211 36.4185 126.911 36.2488C126.546 36.0502 126.134 35.9533 125.719 35.9685C125.195 35.9367 124.677 36.0974 124.263 36.4202C124.075 36.577 123.925 36.7753 123.827 36.9997C123.728 37.224 123.683 37.4682 123.695 37.713C123.682 37.91 123.71 38.1075 123.779 38.2926C123.847 38.4778 123.954 38.6465 124.092 38.7876C124.415 39.0698 124.795 39.2797 125.205 39.4029C125.683 39.564 126.233 39.7483 126.856 39.9558C127.344 40.1278 127.813 40.3469 128.258 40.6099C128.659 40.8446 128.994 41.1768 129.231 41.5756C129.482 42.0385 129.603 42.5604 129.582 43.0863C129.582 43.6045 129.442 44.113 129.177 44.5581C128.884 45.0421 128.46 45.4335 127.954 45.6874C127.318 45.9984 126.614 46.1481 125.906 46.1233Z" fill="#0B151C"/>
<path d="M134.877 46.1233C134.191 46.1336 133.513 45.9617 132.915 45.625C132.333 45.2927 131.856 44.8045 131.536 44.2154C131.187 43.5569 131.012 42.8193 131.03 42.0739C131.012 41.3274 131.189 40.5893 131.544 39.9323C131.869 39.3425 132.352 38.8545 132.938 38.5227C133.54 38.1867 134.219 38.0148 134.909 38.0244C135.595 38.0142 136.272 38.1862 136.871 38.5227C137.453 38.8553 137.93 39.3435 138.249 39.9323C138.599 40.5908 138.774 41.3284 138.756 42.0739C138.774 42.8203 138.596 43.5585 138.241 44.2154C137.916 44.8052 137.434 45.2932 136.848 45.625C136.246 45.961 135.566 46.1329 134.877 46.1233ZM134.877 45.002C135.314 45.0045 135.744 44.8916 136.123 44.6749C136.521 44.4425 136.845 44.1024 137.058 43.6937C137.312 43.1925 137.435 42.6354 137.416 42.0739C137.435 41.5133 137.314 40.9568 137.066 40.454C136.857 40.0447 136.536 39.7041 136.139 39.4728C135.765 39.2574 135.34 39.1446 134.909 39.1457C134.472 39.1432 134.042 39.256 133.663 39.4728C133.265 39.7051 132.941 40.0453 132.728 40.454C132.492 40.9615 132.37 41.5143 132.37 42.0738C132.37 42.6334 132.492 43.1862 132.728 43.6937C132.939 44.1009 133.26 44.4408 133.655 44.6749C134.026 44.8909 134.448 45.0038 134.877 45.002Z" fill="#0B151C"/>
<path d="M144.129 46.1233C143.434 46.1341 142.748 45.9594 142.143 45.6172C141.558 45.2823 141.079 44.7916 140.757 44.1998C140.424 43.5405 140.251 42.8123 140.251 42.0738C140.251 41.3354 140.424 40.6072 140.757 39.9479C141.079 39.3562 141.559 38.8656 142.143 38.5305C142.748 38.1883 143.434 38.0136 144.129 38.0244C144.958 37.9979 145.772 38.2502 146.442 38.7409C147.064 39.2086 147.489 39.8918 147.633 40.6566H146.294C146.248 40.429 146.157 40.213 146.026 40.0216C145.895 39.8302 145.726 39.6674 145.531 39.5429C145.108 39.2731 144.615 39.1349 144.113 39.1457C143.667 39.1429 143.228 39.2636 142.846 39.4945C142.464 39.7254 142.153 40.0575 141.948 40.454C141.712 40.9615 141.59 41.5143 141.59 42.0738C141.59 42.6334 141.712 43.1862 141.948 43.6937C142.162 44.1036 142.486 44.446 142.883 44.6827C143.255 44.9029 143.68 45.0186 144.113 45.0176C144.615 45.0284 145.108 44.8902 145.531 44.6204C145.728 44.4939 145.897 44.3286 146.029 44.1345C146.16 43.9403 146.25 43.7214 146.294 43.4912H147.633C147.49 44.2502 147.067 44.928 146.449 45.3914C145.781 45.8908 144.963 46.1488 144.129 46.1233Z" fill="#0B151C"/>
<path d="M150.25 36.4981C150.13 36.5015 150.011 36.4805 149.9 36.4363C149.789 36.3921 149.688 36.3257 149.603 36.2411C149.519 36.1566 149.452 36.0556 149.408 35.9445C149.364 35.8334 149.343 35.7144 149.346 35.5948C149.343 35.4788 149.365 35.3634 149.409 35.2561C149.453 35.1488 149.519 35.0519 149.603 34.9717C149.779 34.8114 150.008 34.7225 150.246 34.7225C150.484 34.7225 150.713 34.8114 150.888 34.9717C150.974 35.0507 151.042 35.1472 151.088 35.2547C151.134 35.3621 151.156 35.4781 151.153 35.5948C151.156 35.7151 151.135 35.8347 151.089 35.946C151.043 36.0573 150.975 36.1578 150.888 36.2412C150.804 36.3245 150.705 36.3902 150.595 36.4344C150.485 36.4785 150.368 36.5002 150.25 36.4981ZM149.596 45.9365V38.2113H150.904V45.9365L149.596 45.9365Z" fill="#0B151C"/>
<path d="M156.651 46.1233C155.963 46.1361 155.285 45.9611 154.689 45.6172C154.118 45.2806 153.652 44.7927 153.341 44.2076C153.001 43.549 152.832 42.8151 152.851 42.074C152.834 41.3364 153 40.606 153.334 39.948C153.639 39.3575 154.107 38.866 154.681 38.5306C155.29 38.1847 155.982 38.0098 156.682 38.0245C157.363 38.0069 158.036 38.1824 158.621 38.5306C159.152 38.8529 159.585 39.3132 159.875 39.8623C160.165 40.4091 160.315 41.0192 160.311 41.638C160.311 41.7523 160.309 41.8665 160.303 41.9805C160.298 42.095 160.296 42.2248 160.296 42.3699H154.143C154.153 42.8877 154.295 43.3945 154.556 43.8419C154.773 44.2026 155.081 44.5007 155.448 44.7069C155.815 44.913 156.23 45.0201 156.651 45.0178C157.13 45.0349 157.603 44.9044 158.006 44.6439C158.368 44.396 158.646 44.0425 158.8 43.6315H160.093C159.889 44.3768 159.436 45.03 158.81 45.4832C158.185 45.9363 157.423 46.1622 156.651 46.1235V46.1233ZM156.651 39.1302C156.049 39.123 155.463 39.3239 154.992 39.6989C154.745 39.9019 154.543 40.1543 154.4 40.44C154.256 40.7257 154.174 41.0382 154.159 41.3575H159.018C159.019 41.0501 158.956 40.7459 158.833 40.4643C158.709 40.1828 158.528 39.93 158.302 39.7223C157.846 39.324 157.256 39.1126 156.651 39.1302Z" fill="#0B151C"/>
<path d="M164.828 45.9365C164.228 45.9709 163.637 45.7885 163.161 45.4226C162.756 45.0799 162.554 44.4621 162.554 43.569V39.3172H161.214V38.2113H162.554L162.725 36.3579H163.862V38.2113H166.136V39.3172H163.862V43.5691C163.862 44.0574 163.961 44.3871 164.158 44.5582C164.355 44.7295 164.703 44.8152 165.201 44.8152H166.011V45.9366L164.828 45.9365Z" fill="#0B151C"/>
<path d="M168.643 49.363L170.559 45.1889H170.107L167.039 38.2113H168.456L171.011 44.2232L173.721 38.2113H175.076L170.014 49.363L168.643 49.363Z" fill="#0B151C"/>
</svg>
