<svg width="72" height="72" viewBox="0 0 72 72" fill="none" xmlns="http://www.w3.org/2000/svg">
<path d="M61.456 10.5436C75.5146 24.6022 75.5146 47.3964 61.456 61.4552C47.3973 75.5139 24.6031 75.5139 10.5444 61.4552L10.4935 61.4043C10.4548 61.3656 10.4171 61.3279 10.3804 61.2892C9.24589 60.0947 8.62756 58.5013 8.65937 56.8542C8.69118 55.2071 9.37056 53.6388 10.5504 52.489C11.7302 51.3392 13.3155 50.7004 14.9629 50.711C16.6102 50.7216 18.1872 51.3807 19.3521 52.5457L19.403 52.5966C23.8048 56.9984 29.775 59.4714 36.0002 59.4714C42.2253 59.4714 48.1955 56.9984 52.5974 52.5966C56.9992 48.1947 59.4721 42.2245 59.4721 35.9994C59.4721 29.7742 56.9992 23.804 52.5974 19.4022C53.7767 20.5545 55.3628 21.1954 57.0116 21.1859C58.6604 21.1763 60.239 20.5171 61.4049 19.3512C62.5708 18.1852 63.2301 16.6067 63.2396 14.9579C63.2492 13.309 62.6083 11.7229 61.456 10.5436Z" fill="#FFDF00"/>
<path d="M61.4048 10.4932L61.4557 10.5441C62.608 11.7235 63.2489 13.3096 63.2393 14.9584C63.2298 16.6072 62.5705 18.1858 61.4046 19.3517C60.2387 20.5176 58.6602 21.1768 57.0113 21.1864C55.3625 21.196 53.7764 20.5551 52.5971 19.4028L52.5461 19.3518C48.1392 14.9745 42.1768 12.5225 35.9654 12.533C29.754 12.5435 23.8 15.0156 19.4078 19.4078C15.0157 23.7999 12.5435 29.754 12.533 35.9654C12.5225 42.1768 14.9745 48.1392 19.3518 52.5461C18.1869 51.3812 16.61 50.7221 14.9626 50.7115C13.3152 50.7009 11.7299 51.3396 10.5501 52.4895C9.37027 53.6393 8.69089 55.2076 8.65908 56.8547C8.62728 58.5018 9.2456 60.0952 10.3801 61.2897C-3.51466 47.2177 -3.45965 24.5478 10.5441 10.5441C24.5478 -3.45969 47.2177 -3.51461 61.2897 10.3801C61.3284 10.4168 61.3661 10.4545 61.4048 10.4932Z" fill="#24A98B"/>
<path d="M52.5466 19.351L52.5975 19.4019C56.9994 23.8038 59.4723 29.774 59.4723 35.9991C59.4723 42.2243 56.9994 48.1945 52.5975 52.5963C50.4179 54.7759 47.8304 56.5048 44.9827 57.6844C42.1349 58.864 39.0827 59.4711 36.0003 59.4711C29.7752 59.4711 23.805 56.9982 19.4032 52.5963L19.3522 52.5454C14.9725 48.1389 12.5184 42.1758 12.5279 35.963C12.5373 29.7502 15.0095 23.7945 19.4026 19.4014C23.7958 15.0083 29.7514 12.5361 35.9642 12.5266C42.177 12.5172 48.1401 14.9713 52.5466 19.351Z" fill="white" stroke="black" stroke-miterlimit="10"/>
<path d="M52.594 19.2919L52.6449 19.3428C57.0467 23.7447 59.5197 29.7149 59.5197 35.94C59.5196 42.1652 57.0467 48.1354 52.6449 52.5372C50.4653 54.7168 47.8778 56.4457 45.03 57.6253C42.1822 58.8049 39.13 59.412 36.0477 59.412C29.8225 59.412 23.8523 56.9391 19.4505 52.5372L19.3996 52.4863C15.0188 48.0801 12.5638 42.1166 12.5728 35.9032C12.5818 29.6898 15.054 23.7334 19.4476 19.3399C23.8411 14.9464 29.7975 12.4741 36.0109 12.4651C42.2243 12.4561 48.1877 14.9111 52.594 19.2919Z" fill="black"/>
<path d="M41.6202 22.9303C43.1123 23.5078 44.4727 24.38 45.6202 25.4949L42.7111 28.9018C40.8989 27.422 38.9595 26.682 36.8929 26.6816C35.7954 26.6816 34.9278 26.9048 34.29 27.3514C33.6519 27.7983 33.3329 28.4426 33.3331 29.2845C33.3101 29.7965 33.4582 30.3016 33.7541 30.72C34.0347 31.0902 34.5323 31.4411 35.247 31.7726C36.2951 32.2294 37.3687 32.6256 38.4623 32.9592C41.1668 33.8271 43.1573 34.8925 44.4336 36.1555C45.7093 37.4187 46.3473 39.2114 46.3475 41.5336C46.3475 43.1927 45.9264 44.6537 45.0843 45.9165C44.2422 47.1797 43.0301 48.1622 41.4479 48.864C39.8654 49.5655 37.9898 49.9164 35.8211 49.9166C33.6519 49.9166 31.7316 49.5721 30.0604 48.8831C28.4647 48.2429 27.0038 47.3079 25.7542 46.127L28.9312 42.6436C29.8706 43.4617 30.9373 44.1211 32.089 44.5958C33.2166 45.0379 34.4187 45.2589 35.6297 45.2465C36.9312 45.2465 37.9583 44.9595 38.7111 44.3853C39.4634 43.8111 39.8398 43.0136 39.8403 41.9929C39.8609 41.4091 39.7148 40.8315 39.4192 40.3277C39.1381 39.8816 38.6533 39.4797 37.9647 39.122C37.2756 38.7649 36.2804 38.3822 34.979 37.9736C32.0442 37.0807 29.9581 35.9833 28.7206 34.6816C27.4826 33.3802 26.8638 31.7343 26.8641 29.7438C26.8366 28.3022 27.2653 26.8887 28.089 25.7053C28.9054 24.5445 30.041 23.6513 31.4957 23.0258C32.9503 22.4008 34.5962 22.0882 36.4335 22.088C38.424 22.0881 40.1529 22.3689 41.6202 22.9303Z" fill="white"/>
</svg>
