<svg width="17" height="17" viewBox="0 0 17 17" fill="none" xmlns="http://www.w3.org/2000/svg">
<path fill-rule="evenodd" clip-rule="evenodd" d="M8.07969 14.9C9.77707 14.9 11.4049 14.2257 12.6052 13.0255C13.8054 11.8252 14.4797 10.1974 14.4797 8.5C14.4797 6.80261 13.8054 5.17475 12.6052 3.97452C11.4049 2.77428 9.77707 2.1 8.07969 2.1C6.3823 2.1 4.75444 2.77428 3.5542 3.97452C2.35397 5.17475 1.67969 6.80261 1.67969 8.5C1.67969 10.1974 2.35397 11.8252 3.5542 13.0255C4.75444 14.2257 6.3823 14.9 8.07969 14.9V14.9ZM8.87969 5.3C8.87969 5.08783 8.7954 4.88434 8.64537 4.73431C8.49534 4.58428 8.29186 4.5 8.07969 4.5C7.86751 4.5 7.66403 4.58428 7.514 4.73431C7.36397 4.88434 7.27969 5.08783 7.27969 5.3V8.5C7.27973 8.71215 7.36405 8.9156 7.51409 9.0656L9.77649 11.3288C9.85082 11.4031 9.93906 11.4621 10.0362 11.5023C10.1333 11.5425 10.2374 11.5632 10.3425 11.5632C10.4476 11.5632 10.5517 11.5425 10.6488 11.5023C10.7459 11.4621 10.8342 11.4031 10.9085 11.3288C10.9828 11.2545 11.0418 11.1662 11.082 11.0691C11.1222 10.972 11.1429 10.8679 11.1429 10.7628C11.1429 10.6577 11.1222 10.5536 11.082 10.4565C11.0418 10.3594 10.9828 10.2711 10.9085 10.1968L8.87969 8.1688V5.3Z" fill="white"/>
</svg>
