<svg width="18" height="14" viewBox="0 0 18 14" fill="none" xmlns="http://www.w3.org/2000/svg">
<path d="M15.0588 1.44162C13.9504 0.924957 12.7504 0.549957 11.5004 0.33329C11.4895 0.33294 11.4786 0.334997 11.4685 0.339316C11.4584 0.343635 11.4494 0.350112 11.4421 0.35829C11.2921 0.63329 11.1171 0.991624 11.0004 1.26662C9.67459 1.06662 8.32626 1.06662 7.00042 1.26662C6.88376 0.98329 6.70876 0.63329 6.55042 0.35829C6.54209 0.341624 6.51709 0.33329 6.49209 0.33329C5.24209 0.549957 4.05042 0.924957 2.93376 1.44162C2.92542 1.44162 2.91709 1.44996 2.90876 1.45829C0.64209 4.84996 0.0170899 8.14996 0.325423 11.4166C0.325423 11.4333 0.333757 11.45 0.350423 11.4583C1.85042 12.5583 3.29209 13.225 4.71709 13.6666C4.74209 13.675 4.76709 13.6666 4.77542 13.65C5.10876 13.1916 5.40876 12.7083 5.66709 12.2C5.68376 12.1666 5.66709 12.1333 5.63376 12.125C5.15876 11.9416 4.70876 11.725 4.26709 11.475C4.23376 11.4583 4.23376 11.4083 4.25876 11.3833C4.35042 11.3166 4.44209 11.2416 4.53376 11.175C4.55042 11.1583 4.57542 11.1583 4.59209 11.1666C7.45876 12.475 10.5504 12.475 13.3838 11.1666C13.4004 11.1583 13.4254 11.1583 13.4421 11.175C13.5338 11.25 13.6254 11.3166 13.7171 11.3916C13.7504 11.4166 13.7504 11.4666 13.7088 11.4833C13.2754 11.7416 12.8171 11.95 12.3421 12.1333C12.3088 12.1416 12.3004 12.1833 12.3088 12.2083C12.5754 12.7166 12.8754 13.2 13.2004 13.6583C13.2254 13.6666 13.2504 13.675 13.2754 13.6666C14.7088 13.225 16.1504 12.5583 17.6504 11.4583C17.6671 11.45 17.6754 11.4333 17.6754 11.4166C18.0421 7.64162 17.0671 4.36662 15.0921 1.45829C15.0838 1.44996 15.0754 1.44162 15.0588 1.44162ZM6.10042 9.42496C5.24209 9.42496 4.52542 8.63329 4.52542 7.65829C4.52542 6.68329 5.22542 5.89162 6.10042 5.89162C6.98376 5.89162 7.68376 6.69162 7.67542 7.65829C7.67542 8.63329 6.97542 9.42496 6.10042 9.42496ZM11.9088 9.42496C11.0504 9.42496 10.3338 8.63329 10.3338 7.65829C10.3338 6.68329 11.0338 5.89162 11.9088 5.89162C12.7921 5.89162 13.4921 6.69162 13.4838 7.65829C13.4838 8.63329 12.7921 9.42496 11.9088 9.42496Z" fill="white"/>
</svg>
