<svg width="16" height="16" viewBox="0 0 16 16" fill="none" xmlns="http://www.w3.org/2000/svg">
<path d="M14.375 0.5H1.625C1 0.5 0.5 1 0.5 1.5625V14.375C0.5 14.9375 1 15.4375 1.625 15.4375H14.375C15 15.4375 15.5 14.9375 15.5 14.375V1.5625C15.5 1 15 0.5 14.375 0.5ZM4.9375 13.25H2.75V6.125H4.9375V13.25ZM3.875 5.125C3.1875 5.125 2.5625 4.5625 2.5625 3.8125C2.5625 3.0625 3.125 2.5 3.875 2.5C4.5625 2.5 5.1875 3.0625 5.1875 3.8125C5.1875 4.5625 4.5625 5.125 3.875 5.125ZM13.3125 13.1875H11.125V9.6875C11.125 8.875 11.125 7.75 9.9375 7.75C8.75 7.75 8.625 8.6875 8.625 9.5625V13.125H6.4375V6.125H8.5V7.0625H8.5625C8.875 6.5 9.625 5.875 10.6875 5.875C12.9375 5.875 13.375 7.375 13.375 9.3125V13.1875H13.3125Z" fill="white"/>
</svg>
