<svg width="48" height="49" viewBox="0 0 48 49" fill="none" xmlns="http://www.w3.org/2000/svg">
<rect y="0.575195" width="48" height="48" rx="16" fill="#323434"/>
<path d="M16 30.5752H18V34.6562L23.101 30.5752H28C29.103 30.5752 30 29.6782 30 28.5752V20.5752C30 19.4722 29.103 18.5752 28 18.5752H16C14.897 18.5752 14 19.4722 14 20.5752V28.5752C14 29.6782 14.897 30.5752 16 30.5752Z" fill="white"/>
<path d="M32 14.5752H20C18.897 14.5752 18 15.4722 18 16.5752H30C31.103 16.5752 32 17.4722 32 18.5752V26.5752C33.103 26.5752 34 25.6782 34 24.5752V16.5752C34 15.4722 33.103 14.5752 32 14.5752Z" fill="white"/>
</svg>
