<svg width="18" height="18" viewBox="0 0 18 18" fill="none" xmlns="http://www.w3.org/2000/svg">
<path d="M0.667969 9.00169C0.668438 10.9861 1.37669 12.9053 2.66544 14.4143C3.95418 15.9233 5.7389 16.9232 7.6988 17.2342V11.41H5.58463V9.00169H7.7013V7.16836C7.65456 6.73927 7.70288 6.30515 7.84282 5.89683C7.98276 5.48852 8.21089 5.11602 8.511 4.8058C8.81112 4.49558 9.17586 4.25525 9.57932 4.10188C9.98278 3.9485 10.4151 3.88585 10.8455 3.91836C11.4705 3.92836 12.0955 3.98419 12.7121 4.08503V6.13419H11.6588C11.4798 6.11075 11.2978 6.12783 11.1262 6.18418C10.9547 6.24053 10.798 6.3347 10.6678 6.45975C10.5375 6.58479 10.4371 6.73751 10.3738 6.90661C10.3105 7.0757 10.286 7.25686 10.3021 7.43669V9.00169H12.6113L12.2421 11.4109H10.3021V17.2342C11.8752 16.9856 13.344 16.2915 14.5348 15.234C15.7255 14.1765 16.5884 12.8 17.0211 11.2674C17.4538 9.73475 17.4383 8.11023 16.9765 6.58614C16.5146 5.06205 15.6257 3.70222 14.4149 2.66765C13.2042 1.63307 11.7224 0.967084 10.1449 0.74853C8.56747 0.529976 6.9604 0.768008 5.51401 1.43445C4.06762 2.10088 2.84248 3.16782 1.98364 4.50893C1.1248 5.85003 0.668222 7.40915 0.667969 9.00169Z" fill="white"/>
</svg>
