<svg width="20" height="20" viewBox="0 0 20 20" fill="none" xmlns="http://www.w3.org/2000/svg">
<path d="M9.99884 6.14746C8.97687 6.14746 7.99676 6.55344 7.27412 7.27608C6.55148 7.99872 6.14551 8.97883 6.14551 10.0008C6.14551 11.0228 6.55148 12.0029 7.27412 12.7255C7.99676 13.4482 8.97687 13.8541 9.99884 13.8541C11.0208 13.8541 12.0009 13.4482 12.7236 12.7255C13.4462 12.0029 13.8522 11.0228 13.8522 10.0008C13.8522 8.97883 13.4462 7.99872 12.7236 7.27608C12.0009 6.55344 11.0208 6.14746 9.99884 6.14746ZM9.99884 12.5033C9.33492 12.5033 8.69818 12.2396 8.22872 11.7701C7.75925 11.3006 7.49551 10.6639 7.49551 9.99996C7.49551 9.33604 7.75925 8.6993 8.22872 8.22984C8.69818 7.76037 9.33492 7.49663 9.99884 7.49663C10.6628 7.49663 11.2995 7.76037 11.769 8.22984C12.2384 8.6993 12.5022 9.33604 12.5022 9.99996C12.5022 10.6639 12.2384 11.3006 11.769 11.7701C11.2995 12.2396 10.6628 12.5033 9.99884 12.5033Z" fill="white"/>
<path d="M14.005 6.90421C14.5012 6.90421 14.9034 6.50201 14.9034 6.00588C14.9034 5.50974 14.5012 5.10754 14.005 5.10754C13.5089 5.10754 13.1067 5.50974 13.1067 6.00588C13.1067 6.50201 13.5089 6.90421 14.005 6.90421Z" fill="white"/>
<path d="M17.1111 5.09248C16.9182 4.5943 16.6234 4.14189 16.2456 3.7642C15.8677 3.38651 15.4152 3.09188 14.917 2.89915C14.3339 2.68028 13.7179 2.56193 13.0953 2.54915C12.2928 2.51415 12.0386 2.50415 10.0036 2.50415C7.96862 2.50415 7.70779 2.50415 6.91195 2.54915C6.28978 2.56128 5.67425 2.67965 5.09195 2.89915C4.59357 3.09165 4.14092 3.38621 3.76306 3.76392C3.38521 4.14164 3.09048 4.59417 2.89779 5.09248C2.67887 5.67549 2.5608 6.29151 2.54862 6.91415C2.51279 7.71582 2.50195 7.96998 2.50195 10.0058C2.50195 12.0408 2.50195 12.3 2.54862 13.0975C2.56112 13.7208 2.67862 14.3358 2.89779 14.92C3.09102 15.4181 3.38603 15.8705 3.76398 16.2481C4.14193 16.6258 4.59451 16.9205 5.09279 17.1133C5.67398 17.341 6.28976 17.4678 6.91362 17.4883C7.71612 17.5233 7.97029 17.5341 10.0053 17.5341C12.0403 17.5341 12.3011 17.5341 13.097 17.4883C13.7195 17.4757 14.3355 17.3576 14.9186 17.1392C15.4167 16.946 15.8691 16.6511 16.2469 16.2733C16.6247 15.8955 16.9196 15.4431 17.1128 14.945C17.332 14.3617 17.4495 13.7466 17.462 13.1233C17.4978 12.3217 17.5086 12.0675 17.5086 10.0317C17.5086 7.99582 17.5086 7.73748 17.462 6.93998C17.4523 6.30854 17.3336 5.68352 17.1111 5.09248ZM16.0961 13.0358C16.0907 13.5161 16.0031 13.9918 15.837 14.4425C15.7118 14.7665 15.5202 15.0608 15.2745 15.3064C15.0288 15.5519 14.7344 15.7434 14.4103 15.8683C13.9646 16.0337 13.4939 16.1214 13.0186 16.1275C12.227 16.1641 12.0036 16.1733 9.97362 16.1733C7.94195 16.1733 7.73445 16.1733 6.92779 16.1275C6.45273 16.1217 5.98222 16.034 5.53695 15.8683C5.21169 15.7441 4.91612 15.5531 4.66936 15.3074C4.4226 15.0618 4.23015 14.7672 4.10445 14.4425C3.94066 13.9967 3.85305 13.5265 3.84529 13.0517C3.80945 12.26 3.80112 12.0367 3.80112 10.0067C3.80112 7.97582 3.80112 7.76832 3.84529 6.96082C3.85067 6.48084 3.93833 6.00533 4.10445 5.55498C4.35862 4.89748 4.87945 4.37998 5.53695 4.12832C5.98244 3.96343 6.45281 3.87579 6.92779 3.86915C7.72029 3.83332 7.94279 3.82332 9.97362 3.82332C12.0045 3.82332 12.2128 3.82332 13.0186 3.86915C13.494 3.87487 13.9648 3.96254 14.4103 4.12832C14.7344 4.25354 15.0287 4.44515 15.2744 4.69084C15.5201 4.93653 15.7117 5.23088 15.837 5.55498C16.0007 6.00077 16.0884 6.47095 16.0961 6.94582C16.132 7.73832 16.1411 7.96082 16.1411 9.99165C16.1411 12.0217 16.1411 12.24 16.1053 13.0366H16.0961V13.0358Z" fill="white"/>
</svg>
