<svg width="48" height="49" viewBox="0 0 48 49" fill="none" xmlns="http://www.w3.org/2000/svg">
<rect y="0.575195" width="48" height="48" rx="16" fill="#323434"/>
<path d="M18.75 14.5752C18.1533 14.5752 17.581 14.8122 17.159 15.2342C16.7371 15.6562 16.5 16.2285 16.5 16.8252V33.3252C16.5 33.7392 16.836 34.0752 17.25 34.0752H19.5V29.8252C19.5 29.6263 19.579 29.4355 19.7197 29.2949C19.8603 29.1542 20.0511 29.0752 20.25 29.0752H27.75C27.9489 29.0752 28.1397 29.1542 28.2803 29.2949C28.421 29.4355 28.5 29.6263 28.5 29.8252V34.0752H30.75C30.9489 34.0752 31.1397 33.9962 31.2803 33.8555C31.421 33.7149 31.5 33.5241 31.5 33.3252V24.3252C31.5 23.7285 31.2629 23.1562 30.841 22.7342C30.419 22.3122 29.8467 22.0752 29.25 22.0752H28.5V16.8252C28.5 16.2285 28.2629 15.6562 27.841 15.2342C27.419 14.8122 26.8467 14.5752 26.25 14.5752H18.75ZM19.5 19.0752C19.5 18.81 19.6054 18.5556 19.7929 18.3681C19.9804 18.1806 20.2348 18.0752 20.5 18.0752C20.7652 18.0752 21.0196 18.1806 21.2071 18.3681C21.3946 18.5556 21.5 18.81 21.5 19.0752C21.5 19.3404 21.3946 19.5948 21.2071 19.7823C21.0196 19.9698 20.7652 20.0752 20.5 20.0752C20.2348 20.0752 19.9804 19.9698 19.7929 19.7823C19.6054 19.5948 19.5 19.3404 19.5 19.0752ZM20.5 25.0752C20.7652 25.0752 21.0196 25.1806 21.2071 25.3681C21.3946 25.5556 21.5 25.81 21.5 26.0752C21.5 26.3404 21.3946 26.5948 21.2071 26.7823C21.0196 26.9698 20.7652 27.0752 20.5 27.0752C20.2348 27.0752 19.9804 26.9698 19.7929 26.7823C19.6054 26.5948 19.5 26.3404 19.5 26.0752C19.5 25.81 19.6054 25.5556 19.7929 25.3681C19.9804 25.1806 20.2348 25.0752 20.5 25.0752ZM19.5 22.5752C19.5 22.31 19.6054 22.0556 19.7929 21.8681C19.9804 21.6806 20.2348 21.5752 20.5 21.5752C20.7652 21.5752 21.0196 21.6806 21.2071 21.8681C21.3946 22.0556 21.5 22.31 21.5 22.5752C21.5 22.8404 21.3946 23.0948 21.2071 23.2823C21.0196 23.4698 20.7652 23.5752 20.5 23.5752C20.2348 23.5752 19.9804 23.4698 19.7929 23.2823C19.6054 23.0948 19.5 22.8404 19.5 22.5752ZM24 18.0752C24.2652 18.0752 24.5196 18.1806 24.7071 18.3681C24.8946 18.5556 25 18.81 25 19.0752C25 19.3404 24.8946 19.5948 24.7071 19.7823C24.5196 19.9698 24.2652 20.0752 24 20.0752C23.7348 20.0752 23.4804 19.9698 23.2929 19.7823C23.1054 19.5948 23 19.3404 23 19.0752C23 18.81 23.1054 18.5556 23.2929 18.3681C23.4804 18.1806 23.7348 18.0752 24 18.0752ZM23 26.0752C23 25.81 23.1054 25.5556 23.2929 25.3681C23.4804 25.1806 23.7348 25.0752 24 25.0752C24.2652 25.0752 24.5196 25.1806 24.7071 25.3681C24.8946 25.5556 25 25.81 25 26.0752C25 26.3404 24.8946 26.5948 24.7071 26.7823C24.5196 26.9698 24.2652 27.0752 24 27.0752C23.7348 27.0752 23.4804 26.9698 23.2929 26.7823C23.1054 26.5948 23 26.3404 23 26.0752ZM27.5 25.0752C27.7652 25.0752 28.0196 25.1806 28.2071 25.3681C28.3946 25.5556 28.5 25.81 28.5 26.0752C28.5 26.3404 28.3946 26.5948 28.2071 26.7823C28.0196 26.9698 27.7652 27.0752 27.5 27.0752C27.2348 27.0752 26.9804 26.9698 26.7929 26.7823C26.6054 26.5948 26.5 26.3404 26.5 26.0752C26.5 25.81 26.6054 25.5556 26.7929 25.3681C26.9804 25.1806 27.2348 25.0752 27.5 25.0752ZM23 22.5752C23 22.31 23.1054 22.0556 23.2929 21.8681C23.4804 21.6806 23.7348 21.5752 24 21.5752C24.2652 21.5752 24.5196 21.6806 24.7071 21.8681C24.8946 22.0556 25 22.31 25 22.5752C25 22.8404 24.8946 23.0948 24.7071 23.2823C24.5196 23.4698 24.2652 23.5752 24 23.5752C23.7348 23.5752 23.4804 23.4698 23.2929 23.2823C23.1054 23.0948 23 22.8404 23 22.5752ZM27 34.0752V30.5752H24.75V34.0752H27ZM23.25 34.0752V30.5752H21V34.0752H23.25Z" fill="white"/>
</svg>

