<svg xmlns="http://www.w3.org/2000/svg" width="4.43in" height="4.59in" viewBox="0 0 319.2 330.68"><path d="M308,97.61c1.77,2.8,3.71,5.51,5.27,8.43A92.47,92.47,0,0,1,323,131.58c3.94,19.58.92,37.77-11.14,54.07-7.66,10.35-17.35,18.36-28.44,24.8-17.88,10.39-37.29,16.45-57.45,20.43a6.24,6.24,0,0,1-1,.05,13.21,13.21,0,0,0-10.41-3.58c-10,.78-20.05,1.39-30.08,2.09-2.87.19-5.75.32-8.58.73-5.52.8-8.92,4.09-10.37,9.78-1.61-5.83-5.22-9.18-10.86-9.72-7.93-.77-15.89-1.12-23.83-1.69-4.3-.31-8.58-.7-12.87-1.07-4.8-.41-9.45-.32-13.14,3.46A195.66,195.66,0,0,1,59.7,217.21a116.2,116.2,0,0,1-30.44-19.38c-11.88-10.72-20-23.69-22.87-39.64-1.83-10.32-.87-20.52,1.86-30.59A103.34,103.34,0,0,1,22.77,96.53c2.71.39,5.41.84,8.13,1.17,9.39,1.17,18.78,2.35,28.18,3.41,5.64.63,11.3,1,17,1.56,1.23,3.08,2.4,6.19,5,8.43C84.3,113.8,88,114,90.91,111c1.87-1.89,3.07-4.44,4.58-6.69l19.21,1.23c5.39,11.65,14.25,18.28,27.27,18.92.07,5.17-.07,10.35.26,15.5a22,22,0,0,0,10.1,17.52c7.42,5,15.37,5.38,23.24,1.26s11.86-10.85,12.2-19.66c.2-4.9,0-9.81.06-14.72,13.4.16,22.68-6.07,28.21-18.15l19.29-1.06c.69,1.17,1.31,2.4,2.07,3.52,4,5.79,9.76,6,13.9.3a45.49,45.49,0,0,0,2.89-5.27c10.26-1,20.52-2,30.77-3.12C292.67,99.74,300.35,98.62,308,97.61Z" transform="translate(-5.45 0.19)" style="fill:#eefc9b"/><path d="M76,102.67c-5.66-.51-11.32-.93-17-1.56-9.4-1.06-18.79-2.24-28.18-3.41-2.72-.33-5.42-.78-8.13-1.17,3.52-4.86,7.06-9.71,10.56-14.58,4.47-6.21,9.11-12.29,13.31-18.67C56.15,48.8,66.92,35.5,80.8,24.93S110.51,7.8,127.55,4.23c13.92-2.91,28-5.05,42.25-4.25,20.53,1.13,40.69,4.26,59.63,12.86,16.34,7.42,29.85,18.53,41,32.42,5.28,6.55,9.86,13.67,14.83,20.49,5.11,7,10.32,14,15.46,21,2.17,3,4.27,6,6.37,9a12.42,12.42,0,0,1,.91,1.91c-7.69,1-15.37,2.13-23.08,3-10.25,1.14-20.51,2.09-30.77,3.12a36.17,36.17,0,0,0,1.2-13.38c-.6-4.76-1.85-9.26-5.22-12.85s-7.89-3.77-11.15-.08a22,22,0,0,0-4,6.82c-2.55,7-2,14,.35,20.94L216,106.24c-.19-2.94-1.3-4.47-3.57-4.95s-3.46.36-5.18,2.87a42.36,42.36,0,0,1-5.37,6.68c-4.42,4.26-9.93,5.42-15.8,4.27-7.26-1.43-12.17-6-15.3-12.57A5.7,5.7,0,0,0,165.45,99a5.94,5.94,0,0,0-5.63,3.57,28.32,28.32,0,0,1-3.18,5.15c-5.09,6.26-11.08,9.52-19.36,7.31-6.38-1.7-10.79-5.83-13.88-11.57a6.74,6.74,0,0,0-2.67-2.91c-3.3-1.58-6,.79-6,5l-19.22-1.23A33.64,33.64,0,0,0,97,91.2c-.43-4.89-1.7-9.51-5-13.36-3.4-4-8.72-4.1-12,0A23.26,23.26,0,0,0,76.63,84C74.31,90.09,74.61,96.38,76,102.67Z" transform="translate(-5.45 0.19)" style="fill:#24a88b"/><path d="M104.88,230.93c3.69-3.78,8.34-3.87,13.14-3.46,4.29.37,8.57.76,12.87,1.07,7.94.57,15.9.92,23.83,1.69,5.64.54,9.25,3.89,10.86,9.72,1.45-5.69,4.85-9,10.37-9.78,2.83-.41,5.71-.54,8.58-.73,10-.7,20.06-1.31,30.08-2.09A13.21,13.21,0,0,1,225,230.93c2.59,3.48,3.82,7.29,2.47,11.58a11.42,11.42,0,0,1-8.53,8.1c-.38.09-.74.23-1.27.39.29,4.49.55,9,.86,13.44q.72,10.67,1.5,21.31c.06.85.22,1.68.34,2.52.34,5.54.6,11.09,1.05,16.62s.64,11-2.21,16c-3.76,5.65-8.9,9-15.75,9.59-.39,0-.78-.09-1.18-.09H122.2c-9.46-1.7-15.72-7.66-17.06-16.85-.48-3.24,0-6.62.1-9.94q.57-7.67,1.12-15.35.83-10.95,1.65-21.91c.37-4.95.74-9.91,1-14.87a2.21,2.21,0,0,0-.72-1.74c-7.23-4.94-8.48-11.25-3.6-18.47A1.39,1.39,0,0,0,104.88,230.93Z" transform="translate(-5.45 0.19)" style="fill:#f6c720"/><path d="M187.83,124.39c0,4.91.14,9.82-.06,14.72-.34,8.81-4.4,15.58-12.2,19.66s-15.82,3.72-23.24-1.26A22,22,0,0,1,142.23,140c-.33-5.15-.19-10.33-.26-15.5,10.19-.38,17.57-5.56,23-13.41,2.81,2.62,5.47,5.41,8.44,7.79C177.56,122.21,182.6,123.63,187.83,124.39Z" transform="translate(-5.45 0.19)" style="fill:#fb4c8a"/><path d="M187.83,124.39c-5.23-.76-10.27-2.18-14.46-5.52-3-2.38-5.63-5.17-8.44-7.79-5.39,7.85-12.77,13-23,13.41-13-.64-21.88-7.27-27.27-18.92,0-4.26,2.73-6.63,6-5a6.74,6.74,0,0,1,2.67,2.91c3.09,5.74,7.5,9.87,13.88,11.57,8.28,2.21,14.27-1,19.36-7.31a28.32,28.32,0,0,0,3.18-5.15A5.94,5.94,0,0,1,165.45,99a5.7,5.7,0,0,1,5.37,3.57c3.13,6.52,8,11.14,15.3,12.57,5.87,1.15,11.38,0,15.8-4.27a42.36,42.36,0,0,0,5.37-6.68c1.72-2.51,2.93-3.35,5.18-2.87s3.38,2,3.57,4.95C210.51,118.32,201.23,124.55,187.83,124.39Z" transform="translate(-5.45 0.19)" style="fill:#0b6262"/><path d="M235.33,105.18c-2.37-6.94-2.9-14-.35-20.94a22,22,0,0,1,4-6.82c3.26-3.69,7.73-3.55,11.15.08s4.62,8.09,5.22,12.85a36.17,36.17,0,0,1-1.2,13.38A45.49,45.49,0,0,1,251.3,109c-4.14,5.65-9.94,5.49-13.9-.3C236.64,107.58,236,106.35,235.33,105.18Z" transform="translate(-5.45 0.19)" style="fill:#1c1d1d"/><path d="M76,102.67c-1.43-6.29-1.73-12.58.59-18.71a23.26,23.26,0,0,1,3.44-6.08c3.27-4.14,8.59-4.07,12,0,3.26,3.85,4.53,8.47,5,13.36a33.64,33.64,0,0,1-1.54,13.14c-1.5,2.25-2.7,4.8-4.57,6.69-2.93,3-6.61,2.77-9.82.07C78.44,108.86,77.27,105.75,76,102.67Z" transform="translate(-5.45 0.19)" style="fill:#1c1d1d"/><path d="M203.47,259.36a7,7,0,0,0-9.84,0h0l0,0a7,7,0,0,0-.53,9.29v0a1.63,1.63,0,0,1,1.62-1.63h.17a4.55,4.55,0,0,1,.47-5.9l0,0h0a4.56,4.56,0,0,1,6.41,0h0a1.21,1.21,0,0,0,1.72,0,1.22,1.22,0,0,0,0-1.7h0Z" transform="translate(-5.45 0.19)" style="fill:#fff"/><path d="M204.27,260.25a1.64,1.64,0,0,1-1.63,1.63h-.16a4.57,4.57,0,0,1-.47,5.9l0,0a4.57,4.57,0,0,1-6.42,0h0a1.22,1.22,0,0,0-1.72,0,1.23,1.23,0,0,0,0,1.71h0l0,0a7,7,0,0,0,9.84,0l0,0a7,7,0,0,0,.54-9.3Z" transform="translate(-5.45 0.19)" style="fill:#fff"/></svg>