<svg width="330" height="245" viewBox="0 0 330 245" fill="none" xmlns="http://www.w3.org/2000/svg">
<mask id="mask0_1014_3478" style="mask-type:alpha" maskUnits="userSpaceOnUse" x="0" y="0" width="330" height="245">
<path fill-rule="evenodd" clip-rule="evenodd" d="M300.276 83.8012C316.042 102.901 325.272 121.231 328.476 138.408C328.435 138.414 328.393 138.42 328.351 138.427C336.287 180.847 307.83 215.45 252.078 232.496C251.565 232.753 251.052 232.881 250.54 233.009C249.77 233.137 248.873 233.393 248.104 233.65L245.412 234.419C245.156 234.483 244.931 234.547 244.707 234.611C244.483 234.675 244.258 234.739 244.002 234.804C242.977 235.188 241.823 235.444 240.67 235.701L240.669 235.701C240.541 235.765 240.381 235.797 240.221 235.829C240.06 235.861 239.9 235.893 239.772 235.957C239.28 236.066 238.765 236.199 238.237 236.335C237.526 236.518 236.79 236.707 236.055 236.854C235.221 237.047 234.42 237.207 233.619 237.367C232.818 237.527 232.017 237.688 231.184 237.88H230.927C211.571 241.854 189.523 244.033 165.296 244.033C140.044 244.033 117.355 241.726 97.3581 237.624C28.6507 223.139 -7.6257 185.58 1.34727 138.28C32.2582 142.562 96.2277 149.068 172.084 149.034C96.2276 149.063 32.2469 142.561 1.3474 138.28C4.55204 121.231 13.7814 102.773 29.5482 83.8012C33.7783 78.6738 37.6238 73.4182 41.0848 67.778C73.003 16.7602 107.741 5.60811 148.889 0.865251C159.272 -0.288417 169.911 -0.288417 180.294 0.865251C221.954 5.47992 256.436 16.3757 288.739 67.6498C292.2 73.29 296.045 78.6738 300.276 83.8012Z" fill="#EFFD9C"/>
</mask>
<g mask="url(#mask0_1014_3478)">
<path d="M328.476 138.408C325.272 121.231 316.042 102.901 300.276 83.8012C296.045 78.6738 292.2 73.29 288.739 67.6498C256.436 16.3757 221.954 5.47992 180.294 0.865251C169.911 -0.288417 159.272 -0.288417 148.889 0.865251C107.741 5.60811 73.003 16.7602 41.0849 67.778C37.6239 73.4182 33.7783 78.6738 29.5482 83.8012C13.7814 102.773 4.55204 121.231 1.34741 138.28C52.237 145.33 192.856 158.405 328.476 138.408Z" fill="#24A98B"/>
<path d="M252.982 278.478C254.569 277.988 256.155 277.254 257.583 276.765C257.9 276.52 258.376 276.52 258.694 276.275C260.121 275.786 261.549 275.296 262.819 274.562C263.453 274.318 263.929 274.073 264.564 273.828C265.674 273.339 266.785 272.849 267.895 272.36C268.847 271.87 269.958 271.381 270.91 271.136C271.544 270.891 272.179 270.647 272.813 270.157C341.826 237.609 377.046 171.535 367.21 90.5319C199.359 128.708 25.4784 103.747 -37.5056 90.2872C-48.6111 180.589 -3.71321 252.293 81.3231 279.946C106.072 287.777 134.153 292.182 165.408 292.182C195.392 292.182 222.68 288.022 246.636 280.436C246.795 280.436 246.795 280.436 246.954 280.436C249.016 279.701 250.92 279.212 252.982 278.478Z" fill="#EFFD9C"/>
</g>
<path d="M141.025 123.317V142.599C141.025 155.497 151.056 166.441 163.824 166.832C177.244 167.353 188.318 156.539 188.318 143.12V123.186L174.247 117.454L165.909 107.552C165.258 106.77 163.955 106.77 163.303 107.552L155.226 117.454L141.025 123.317Z" fill="#FC4C8B"/>
<path d="M213.997 103.545C211 113.577 202.792 121.003 193.151 122.436C182.207 123.999 171.003 117.485 166.052 106.541C165.401 105.238 163.577 105.238 162.925 106.541C159.147 114.749 151.981 121.394 143.773 122.566C131.526 124.26 118.889 115.922 115.11 102.372" fill="#24A98B"/>
<path d="M140.992 128.658C129.136 128.658 118.192 121.232 113.111 109.897C111.939 107.292 113.372 104.295 116.108 103.644C118.323 102.992 120.538 104.165 121.45 106.249C125.488 115.109 134.608 120.711 143.728 119.408C149.852 118.496 155.975 113.285 159.363 106.119C160.405 103.904 162.62 102.341 165.095 102.341C167.571 102.341 169.785 103.774 170.697 105.989C174.867 115.109 183.986 120.581 192.976 119.278C199.621 118.366 205.484 113.806 208.61 107.292C209.653 105.207 211.868 104.165 214.082 104.816C216.818 105.598 218.121 108.594 216.818 111.2C212.519 120.45 204.05 126.965 194.279 128.268C182.944 129.831 171.609 124.229 164.965 114.327C160.014 122.014 152.588 127.225 144.771 128.268C143.598 128.658 142.295 128.658 140.992 128.658Z" fill="#096162"/>
<path d="M83.183 116.964C89.515 116.964 94.6481 108.098 94.6481 97.1609C94.6481 86.2238 89.515 77.3575 83.183 77.3575C76.851 77.3575 71.7179 86.2238 71.7179 97.1609C71.7179 108.098 76.851 116.964 83.183 116.964Z" fill="#1C1C1C"/>
<path d="M246.821 116.964C253.153 116.964 258.286 108.098 258.286 97.161C258.286 86.2239 253.153 77.3576 246.821 77.3576C240.489 77.3576 235.356 86.2239 235.356 97.161C235.356 108.098 240.489 116.964 246.821 116.964Z" fill="#1C1C1C"/>
</svg>
