<svg width="493" height="107" viewBox="0 0 493 107" fill="none" xmlns="http://www.w3.org/2000/svg">
<path d="M230.456 84.4267L367.455 84.4267C371.827 84.4267 375.371 80.8922 375.371 76.5323C375.371 72.1723 371.827 68.6378 367.455 68.6378L230.456 68.6378C226.084 68.6378 222.54 72.1723 222.54 76.5323C222.54 80.8922 226.084 84.4267 230.456 84.4267Z" fill="#24A98B"/>
<path d="M177.02 84.4267H205.827C210.199 84.4267 213.743 80.8922 213.743 76.5322C213.743 72.1723 210.199 68.6378 205.827 68.6378H177.02C172.648 68.6378 169.103 72.1723 169.103 76.5322C169.103 80.8922 172.648 84.4267 177.02 84.4267Z" fill="white"/>
<path d="M105.552 84.4267H152.611C156.983 84.4267 160.527 80.8922 160.527 76.5322C160.527 72.1723 156.983 68.6378 152.611 68.6378H105.552C101.18 68.6378 97.6356 72.1723 97.6356 76.5322C97.6356 80.8922 101.18 84.4267 105.552 84.4267Z" fill="#FFDF00"/>
<path d="M7.91632 49.998L54.9752 49.998C59.3473 49.998 62.8916 46.4636 62.8916 42.1036C62.8916 37.7436 59.3473 34.2091 54.9752 34.2091L7.91632 34.2091C3.54419 34.2091 -0.000125885 37.7436 -0.000125885 42.1036C-0.000125885 46.4636 3.54419 49.998 7.91632 49.998Z" fill="white"/>
<path d="M241.011 49.998L288.07 49.998C292.442 49.998 295.986 46.4636 295.986 42.1036C295.986 37.7436 292.442 34.2092 288.07 34.2092L241.011 34.2092C236.639 34.2092 233.095 37.7436 233.095 42.1036C233.095 46.4636 236.639 49.998 241.011 49.998Z" fill="#24A98B"/>
<path d="M312.918 49.998L449.697 49.998C454.069 49.998 457.613 46.4636 457.613 42.1036C457.613 37.7436 454.069 34.2092 449.697 34.2092L312.918 34.2092C308.546 34.2092 305.002 37.7436 305.002 42.1036C305.002 46.4636 308.546 49.998 312.918 49.998Z" fill="#FFDF00"/>
<path d="M294.998 16.0083L334.8 16.0083C339.233 16.0083 342.826 12.4247 342.826 8.0042C342.826 3.58365 339.233 9.15527e-05 334.8 9.15527e-05L294.998 9.15527e-05C290.565 9.15527e-05 286.971 3.58365 286.971 8.0042C286.971 12.4247 290.565 16.0083 294.998 16.0083Z" fill="white"/>
<path d="M392.083 84.4268H431.885C436.257 84.4268 439.802 80.8923 439.802 76.5323C439.802 72.1723 436.257 68.6379 431.885 68.6379H392.083C387.711 68.6379 384.167 72.1723 384.167 76.5323C384.167 80.8923 387.711 84.4268 392.083 84.4268Z" fill="#24A98B"/>
<path d="M230.566 16.0083L270.148 16.0083C274.581 16.0083 278.175 12.4247 278.175 8.0042C278.175 3.58365 274.581 9.15527e-05 270.148 9.15527e-05L230.566 9.15527e-05C226.133 9.15527e-05 222.54 3.58365 222.54 8.0042C222.54 12.4247 226.133 16.0083 230.566 16.0083Z" fill="#FFDF00"/>
<path d="M166.135 16.0081L205.717 16.0081C210.15 16.0081 213.743 12.4245 213.743 8.00397C213.743 3.58343 210.15 -0.00012207 205.717 -0.00012207L166.135 -0.00012207C161.702 -0.00012207 158.108 3.58343 158.108 8.00397C158.108 12.4245 161.702 16.0081 166.135 16.0081Z" fill="white"/>
<path d="M359.648 16.0083L496.646 16.0083C501.079 16.0083 504.673 12.4247 504.673 8.0042C504.673 3.58365 501.079 9.15527e-05 496.646 9.15527e-05L359.648 9.15527e-05C355.215 9.15527e-05 351.622 3.58365 351.622 8.0042C351.622 12.4247 355.215 16.0083 359.648 16.0083Z" fill="#24A98B"/>
<path d="M79.6037 49.998L216.602 49.998C220.974 49.998 224.519 46.4636 224.519 42.1036C224.519 37.7436 220.974 34.2091 216.602 34.2091L79.6037 34.2091C75.2316 34.2091 71.6873 37.7436 71.6873 42.1036C71.6873 46.4636 75.2316 49.998 79.6037 49.998Z" fill="#24A98B"/>
<path d="M362.177 118.417H402.199C406.571 118.417 410.115 114.882 410.115 110.522C410.115 106.162 406.571 102.628 402.199 102.628H362.177C357.805 102.628 354.26 106.162 354.26 110.522C354.26 114.882 357.805 118.417 362.177 118.417Z" fill="white"/>
<path d="M297.746 118.417H337.548C341.92 118.417 345.464 114.882 345.464 110.522C345.464 106.162 341.92 102.628 337.548 102.628H297.746C293.374 102.628 289.829 106.162 289.829 110.522C289.829 114.882 293.374 118.417 297.746 118.417Z" fill="#FFDF00"/>
<path d="M233.315 118.417H273.117C277.489 118.417 281.033 114.882 281.033 110.522C281.033 106.162 277.489 102.628 273.117 102.628H233.315C228.943 102.628 225.398 106.162 225.398 110.522C225.398 114.882 228.943 118.417 233.315 118.417Z" fill="white"/>
<path d="M71.4677 118.417L208.686 118.417C213.058 118.417 216.603 114.882 216.603 110.522C216.603 106.162 213.058 102.628 208.686 102.628L71.4677 102.628C67.0955 102.628 63.5512 106.162 63.5512 110.522C63.5512 114.882 67.0955 118.417 71.4677 118.417Z" fill="#FFDF00"/>
<path d="M426.827 118.417L564.045 118.417C568.418 118.417 571.962 114.882 571.962 110.522C571.962 106.162 568.418 102.628 564.045 102.628L426.827 102.628C422.455 102.628 418.911 106.162 418.911 110.522C418.911 114.882 422.455 118.417 426.827 118.417Z" fill="#24A98B"/>
<path d="M474.326 49.998L496.756 49.998C501.129 49.998 504.673 46.4636 504.673 42.1036C504.673 37.7436 501.129 34.2092 496.756 34.2092H474.326C469.954 34.2092 466.41 37.7436 466.41 42.1036C466.41 46.4636 469.954 49.998 474.326 49.998Z" fill="white"/>
<path d="M456.514 84.4268H496.756C501.129 84.4268 504.673 80.8923 504.673 76.5323C504.673 72.1723 501.129 68.6379 496.756 68.6379H456.514C452.142 68.6379 448.598 72.1723 448.598 76.5323C448.598 80.8923 452.142 84.4268 456.514 84.4268Z" fill="white"/>
</svg>
