<svg width="274" height="118" viewBox="0 0 274 118" fill="none" xmlns="http://www.w3.org/2000/svg">
<g clip-path="url(#clip0_1536_4038)">
<path d="M166.456 84.4268L303.455 84.4268C307.827 84.4268 311.371 80.8923 311.371 76.5323C311.371 72.1723 307.827 68.6379 303.455 68.6379L166.456 68.6379C162.084 68.6379 158.54 72.1723 158.54 76.5323C158.54 80.8923 162.084 84.4268 166.456 84.4268Z" fill="#24A98B"/>
<path d="M113.02 84.4268H141.827C146.199 84.4268 149.743 80.8923 149.743 76.5323C149.743 72.1723 146.199 68.6378 141.827 68.6378H113.02C108.648 68.6378 105.104 72.1723 105.104 76.5323C105.104 80.8923 108.648 84.4268 113.02 84.4268Z" fill="white"/>
<path d="M41.5521 84.4268H88.611C92.9831 84.4268 96.5274 80.8923 96.5274 76.5323C96.5274 72.1723 92.9831 68.6378 88.611 68.6378H41.5521C37.18 68.6378 33.6357 72.1723 33.6357 76.5323C33.6357 80.8923 37.18 84.4268 41.5521 84.4268Z" fill="#FFDF00"/>
<path d="M177.011 49.998L224.07 49.998C228.442 49.998 231.986 46.4636 231.986 42.1036C231.986 37.7436 228.442 34.2092 224.07 34.2092L177.011 34.2092C172.639 34.2092 169.095 37.7436 169.095 42.1036C169.095 46.4636 172.639 49.998 177.011 49.998Z" fill="#24A98B"/>
<path d="M248.918 49.998L385.697 49.998C390.069 49.998 393.613 46.4636 393.613 42.1036C393.613 37.7436 390.069 34.2092 385.697 34.2092L248.918 34.2092C244.546 34.2092 241.002 37.7436 241.002 42.1036C241.002 46.4636 244.546 49.998 248.918 49.998Z" fill="#FFDF00"/>
<path d="M230.998 16.0083L270.8 16.0083C275.233 16.0083 278.826 12.4247 278.826 8.0042C278.826 3.58365 275.233 9.15527e-05 270.8 9.15527e-05L230.998 9.15527e-05C226.565 9.15527e-05 222.971 3.58365 222.971 8.0042C222.971 12.4247 226.565 16.0083 230.998 16.0083Z" fill="white"/>
<path d="M166.566 16.0083L206.148 16.0083C210.581 16.0083 214.175 12.4247 214.175 8.0042C214.175 3.58365 210.581 9.15527e-05 206.148 9.15527e-05L166.566 9.15527e-05C162.133 9.15527e-05 158.54 3.58365 158.54 8.0042C158.54 12.4247 162.133 16.0083 166.566 16.0083Z" fill="#FFDF00"/>
<path d="M102.135 16.0081L141.717 16.0081C146.15 16.0081 149.743 12.4245 149.743 8.00397C149.743 3.58343 146.15 -0.00012207 141.717 -0.00012207L102.135 -0.00012207C97.7019 -0.00012207 94.1084 3.58343 94.1084 8.00397C94.1084 12.4245 97.7019 16.0081 102.135 16.0081Z" fill="white"/>
<path d="M15.6037 49.998L152.602 49.998C156.974 49.998 160.519 46.4636 160.519 42.1036C160.519 37.7436 156.974 34.2091 152.602 34.2091L15.6037 34.2091C11.2316 34.2091 7.68727 37.7436 7.68727 42.1036C7.68727 46.4636 11.2316 49.998 15.6037 49.998Z" fill="#24A98B"/>
<path d="M233.746 118.417H273.548C277.92 118.417 281.464 114.882 281.464 110.522C281.464 106.162 277.92 102.628 273.548 102.628H233.746C229.374 102.628 225.829 106.162 225.829 110.522C225.829 114.882 229.374 118.417 233.746 118.417Z" fill="#FFDF00"/>
<path d="M169.315 118.417H209.117C213.489 118.417 217.033 114.882 217.033 110.522C217.033 106.162 213.489 102.628 209.117 102.628H169.315C164.942 102.628 161.398 106.162 161.398 110.522C161.398 114.882 164.942 118.417 169.315 118.417Z" fill="white"/>
<path d="M7.46765 118.417L144.686 118.417C149.058 118.417 152.603 114.882 152.603 110.522C152.603 106.162 149.058 102.628 144.686 102.628L7.46765 102.628C3.0955 102.628 -0.448807 106.162 -0.448807 110.522C-0.448807 114.882 3.0955 118.417 7.46765 118.417Z" fill="#FFDF00"/>
</g>
<defs>
<clipPath id="clip0_1536_4038">
<rect width="274" height="118" fill="white"/>
</clipPath>
</defs>
</svg>
