<svg width="36" height="36" viewBox="0 0 36 36" fill="none" xmlns="http://www.w3.org/2000/svg">
<path d="M30.377 5.43542C33.6971 8.77644 35.5572 13.2974 35.5498 18.0075C35.5424 22.7176 33.668 27.2327 30.3375 30.5633C27.0069 33.8938 22.4918 35.7682 17.7817 35.7756C13.0716 35.783 8.55065 33.9229 5.20964 30.6028L5.1844 30.5776C5.16529 30.5586 5.1467 30.5399 5.12862 30.5208C4.56781 29.9303 4.26219 29.1427 4.27792 28.3284C4.29366 27.5142 4.6295 26.739 5.2127 26.1706C5.79591 25.6022 6.57953 25.2864 7.39388 25.2917C8.20823 25.2969 8.98775 25.6227 9.56362 26.1985L9.58873 26.2237C11.7602 28.4009 14.7072 29.6271 17.7822 29.6329C20.8572 29.6388 23.8088 28.4237 25.9885 26.2547C28.1682 24.0857 29.3978 21.1402 29.4071 18.0651C29.4165 14.9901 28.2048 12.0372 26.0383 9.85498C26.0248 9.84148 26.0114 9.82804 25.9978 9.81467C26.5807 10.3848 27.365 10.702 28.1803 10.6975C28.9957 10.693 29.7764 10.3671 30.3529 9.79057C30.9294 9.21402 31.2553 8.43334 31.2599 7.61799C31.2644 6.80264 30.9471 6.01841 30.377 5.43552V5.43542Z" fill="#FFDF00"/>
<path d="M30.354 5.41094L30.3792 5.43612C30.9488 6.01911 31.2656 6.80317 31.2608 7.61822C31.2561 8.43328 30.9302 9.2136 30.3539 9.78994C29.7776 10.3663 28.9972 10.6922 28.1822 10.6969C27.3671 10.7017 26.5831 10.3849 26.0001 9.81527L25.9748 9.79009C23.7971 7.62241 20.8485 6.40704 17.7758 6.4106C14.7031 6.41415 11.7573 7.63634 9.58464 9.80905C7.41194 11.9818 6.18976 14.9276 6.18622 18.0002C6.18268 21.0729 7.39807 24.0215 9.56575 26.1992C8.98988 25.6234 8.21036 25.2976 7.39601 25.2924C6.58166 25.2872 5.79803 25.603 5.21483 26.1714C4.63162 26.7397 4.29579 27.515 4.28005 28.3292C4.26431 29.1434 4.56994 29.931 5.13074 30.5215C1.82923 27.1768 -0.0151735 22.6619 9.4035e-05 17.9623C0.0153615 13.2626 1.88906 8.75981 5.21224 5.43663C8.53541 2.11345 13.0382 0.239737 17.7379 0.224459C22.4375 0.209182 26.9524 2.05358 30.2972 5.35508C30.3161 5.37317 30.3346 5.39183 30.354 5.41094Z" fill="#24A98B"/>
<path d="M25.9744 9.78938L25.9996 9.81456C28.1682 11.9921 29.3844 14.941 29.3812 18.0142C29.3781 21.0874 28.1558 24.0338 25.9827 26.2068C23.8097 28.3799 20.8633 29.6021 17.7901 29.6052C14.7169 29.6084 11.768 28.3922 9.59047 26.2236L9.56536 26.1984C7.39926 24.0204 6.18524 21.0723 6.18946 18.0005C6.19369 14.9287 7.41582 11.984 9.5879 9.8119C11.76 7.63982 14.7047 6.41769 17.7765 6.41346C20.8483 6.40924 23.7964 7.62326 25.9744 9.78936V9.78938Z" fill="white" stroke="black" stroke-width="0.460997" stroke-miterlimit="10"/>
<path d="M25.9986 9.75987L26.0238 9.78503C28.1998 11.961 29.4223 14.9123 29.4223 17.9896C29.4223 21.067 28.1998 24.0182 26.0238 26.1942C23.8478 28.3702 20.8965 29.5927 17.8192 29.5927C14.7419 29.5927 11.7906 28.3702 9.6146 26.1942L9.5895 26.169C7.42181 23.9913 6.20643 21.0427 6.20997 17.97C6.21351 14.8974 7.43569 11.9515 9.60839 9.77884C11.7811 7.60613 14.7269 6.38393 17.7996 6.38038C20.8722 6.37682 23.8208 7.59219 25.9986 9.75987Z" fill="black"/>
<path d="M20.572 11.5585C21.3095 11.8441 21.982 12.2753 22.5493 12.8263L21.1111 14.5105C20.3126 13.8157 19.2934 13.4268 18.235 13.413C17.7823 13.3887 17.333 13.5043 16.9483 13.7442C16.7945 13.85 16.6704 13.9933 16.5876 14.1605C16.5048 14.3277 16.4661 14.5134 16.4752 14.6997C16.4639 14.9528 16.5372 15.2024 16.6834 15.4093C16.8852 15.6381 17.138 15.8164 17.4214 15.9296C17.9395 16.1555 18.4702 16.3513 19.0108 16.5162C20.3479 16.9453 21.3318 17.472 21.9627 18.0963C22.5936 18.7206 22.9089 19.6067 22.9085 20.7548C22.9235 21.5235 22.7058 22.2787 22.2841 22.9214C21.8379 23.5703 21.2136 24.0763 20.4865 24.3785C19.6059 24.7444 18.6584 24.9216 17.705 24.8988C16.7314 24.917 15.7638 24.7433 14.8572 24.3878C14.0684 24.0714 13.3462 23.6092 12.7285 23.0254L14.299 21.3035C14.7635 21.7079 15.2907 22.0338 15.8601 22.2685C16.4175 22.487 17.0118 22.5963 17.6104 22.5902C18.2538 22.5902 18.7615 22.4483 19.1336 22.1644C19.3156 22.0274 19.4615 21.8481 19.5588 21.6421C19.656 21.436 19.7016 21.2094 19.6916 20.9818C19.7018 20.6932 19.6296 20.4076 19.4833 20.1585C19.3002 19.9001 19.0522 19.6945 18.7644 19.5624C18.2889 19.3328 17.7953 19.1429 17.2885 18.9947C15.8376 18.5533 14.8063 18.0109 14.1946 17.3674C13.8887 17.0409 13.6501 16.6572 13.4926 16.2383C13.3352 15.8194 13.2619 15.3736 13.2769 14.9264C13.2634 14.2138 13.4753 13.5151 13.8825 12.9301C14.308 12.3389 14.8918 11.8797 15.5666 11.6055C16.3401 11.2859 17.1708 11.1282 18.0076 11.142C18.8806 11.1236 19.7497 11.2647 20.572 11.5585Z" fill="white"/>
</svg>
