<svg width="439" height="418" viewBox="0 0 439 418" fill="none" xmlns="http://www.w3.org/2000/svg">
<path fill-rule="evenodd" clip-rule="evenodd" d="M164.134 181.005C165.558 179.631 167.827 179.671 169.202 181.095L171.094 183.055L173.054 181.163C174.479 179.789 176.748 179.829 178.123 181.253C179.498 182.678 179.457 184.947 178.033 186.322L176.073 188.214L178.164 190.38C179.539 191.805 179.498 194.074 178.074 195.449C176.65 196.824 174.38 196.783 173.006 195.359L170.914 193.192L168.748 195.284C167.324 196.658 165.054 196.618 163.679 195.194C162.305 193.769 162.345 191.5 163.769 190.125L165.936 188.034L164.044 186.074C162.669 184.649 162.709 182.38 164.134 181.005ZM32.4232 205.266C31.0483 203.841 28.7791 203.801 27.3546 205.176C25.9302 206.55 25.89 208.82 27.2648 210.244L29.1567 212.204L26.9902 214.295C25.5658 215.67 25.5255 217.94 26.9004 219.364C28.2752 220.788 30.5445 220.829 31.9689 219.454L34.1354 217.363L36.2265 219.529C37.6013 220.954 39.8705 220.994 41.295 219.619C42.7195 218.244 42.7597 215.975 41.3848 214.551L39.2938 212.384L41.254 210.492C42.6784 209.117 42.7187 206.848 41.3438 205.424C39.969 203.999 37.6997 203.959 36.2753 205.334L34.3151 207.226L32.4232 205.266ZM282.564 209.492C283.989 208.117 286.258 208.157 287.633 209.581L289.525 211.542L291.485 209.65C292.909 208.275 295.179 208.315 296.553 209.74C297.928 211.164 297.888 213.433 296.464 214.808L294.503 216.7L296.594 218.866C297.969 220.291 297.929 222.56 296.505 223.935C295.08 225.31 292.811 225.27 291.436 223.845L289.345 221.679L287.179 223.77C285.754 225.145 283.485 225.104 282.11 223.68C280.735 222.255 280.775 219.986 282.2 218.611L284.366 216.52L282.474 214.56C281.1 213.136 281.14 210.866 282.564 209.492ZM233.651 237.688C235.076 236.313 237.345 236.354 238.72 237.778L240.612 239.738L242.572 237.846C243.997 236.472 246.266 236.512 247.641 237.936C249.015 239.361 248.975 241.63 247.551 243.005L245.591 244.897L247.682 247.063C249.057 248.488 249.016 250.757 247.592 252.132C246.167 253.507 243.898 253.466 242.523 252.042L240.432 249.875L238.266 251.966C236.841 253.341 234.572 253.301 233.197 251.877C231.822 250.452 231.863 248.183 233.287 246.808L235.454 244.717L233.562 242.757C232.187 241.332 232.227 239.063 233.651 237.688ZM169.091 260.796C167.716 259.371 165.447 259.331 164.023 260.706C162.598 262.081 162.558 264.35 163.933 265.775L165.825 267.735L163.658 269.826C162.234 271.201 162.194 273.47 163.568 274.894C164.943 276.319 167.213 276.359 168.637 274.984L170.803 272.893L172.895 275.06C174.269 276.484 176.539 276.524 177.963 275.15C179.387 273.775 179.428 271.505 178.053 270.081L175.962 267.914L177.922 266.023C179.346 264.648 179.387 262.378 178.012 260.954C176.637 259.53 174.368 259.489 172.943 260.864L170.983 262.756L169.091 260.796ZM298.964 354.504C300.389 353.129 302.658 353.169 304.033 354.593L305.925 356.554L307.885 354.662C309.31 353.287 311.579 353.327 312.954 354.752C314.328 356.176 314.288 358.445 312.864 359.82L310.904 361.712L312.995 363.879C314.369 365.303 314.329 367.572 312.905 368.947C311.48 370.322 309.211 370.282 307.836 368.857L305.745 366.691L303.579 368.782C302.154 370.157 299.885 370.116 298.51 368.692C297.135 367.267 297.176 364.998 298.6 363.623L300.767 361.532L298.875 359.572C297.5 358.148 297.54 355.878 298.964 354.504ZM29.6564 368.602C31.0809 367.227 33.3501 367.267 34.725 368.692L36.6169 370.652L38.5771 368.76C40.0015 367.385 42.2708 367.425 43.6456 368.85C45.0204 370.274 44.9802 372.544 43.5558 373.918L41.5956 375.81L43.6866 377.977C45.0615 379.401 45.0212 381.671 43.5968 383.045C42.1723 384.42 39.9031 384.38 38.5283 382.956L36.4372 380.789L34.2707 382.88C32.8463 384.255 30.577 384.215 29.2021 382.79C27.8273 381.366 27.8676 379.097 29.292 377.722L31.4585 375.631L29.5666 373.67C28.1918 372.246 28.232 369.977 29.6564 368.602ZM284.468 298.488C283.093 297.063 280.824 297.023 279.399 298.398C277.975 299.773 277.935 302.042 279.31 303.466L281.201 305.426L279.035 307.518C277.61 308.892 277.57 311.162 278.945 312.586C280.32 314.011 282.589 314.051 284.014 312.676L286.18 310.585L288.271 312.751C289.646 314.176 291.915 314.216 293.34 312.841C294.764 311.466 294.804 309.197 293.43 307.773L291.338 305.606L293.299 303.714C294.723 302.339 294.763 300.07 293.389 298.646C292.014 297.221 289.744 297.181 288.32 298.556L286.36 300.448L284.468 298.488ZM225.419 292.354C226.843 290.979 229.112 291.019 230.487 292.444L232.379 294.404L234.339 292.512C235.764 291.137 238.033 291.177 239.408 292.602C240.783 294.026 240.742 296.296 239.318 297.67L237.358 299.562L239.449 301.729C240.824 303.153 240.783 305.422 239.359 306.797C237.934 308.172 235.665 308.132 234.29 306.707L232.199 304.541L230.033 306.632C228.608 308.007 226.339 307.967 224.964 306.542C223.589 305.118 223.63 302.848 225.054 301.474L227.221 299.383L225.329 297.422C223.954 295.998 223.994 293.729 225.419 292.354ZM120.466 222.529C119.091 221.104 116.822 221.064 115.398 222.439C113.973 223.814 113.933 226.083 115.308 227.508L117.2 229.468L115.033 231.559C113.609 232.934 113.569 235.203 114.943 236.627C116.318 238.052 118.587 238.092 120.012 236.717L122.178 234.626L124.269 236.793C125.644 238.217 127.914 238.257 129.338 236.882C130.762 235.508 130.803 233.238 129.428 231.814L127.337 229.647L129.297 227.756C130.721 226.381 130.762 224.111 129.387 222.687C128.012 221.263 125.743 221.222 124.318 222.597L122.358 224.489L120.466 222.529ZM67.5253 326.972C66.1505 325.548 63.8812 325.507 62.4568 326.882C61.0323 328.257 60.9921 330.526 62.3669 331.951L64.2588 333.911L62.0923 336.002C60.6679 337.377 60.6277 339.646 62.0025 341.071C63.3773 342.495 65.6466 342.535 67.071 341.16L69.2375 339.069L71.3286 341.236C72.7034 342.66 74.9727 342.701 76.3971 341.326C77.8215 339.951 77.8618 337.682 76.4869 336.257L74.3959 334.091L76.3561 332.199C77.7805 330.824 77.8208 328.555 76.4459 327.13C75.0711 325.706 72.8018 325.666 71.3774 327.04L69.4172 328.932L67.5253 326.972ZM113.959 310.194C115.384 308.82 117.653 308.86 119.028 310.284L120.92 312.244L122.88 310.352C124.304 308.978 126.573 309.018 127.948 310.442C129.323 311.867 129.283 314.136 127.858 315.511L125.898 317.403L127.989 319.569C129.364 320.994 129.324 323.263 127.899 324.638C126.475 326.013 124.206 325.972 122.831 324.548L120.74 322.381L118.573 324.473C117.149 325.847 114.88 325.807 113.505 324.383C112.13 322.958 112.17 320.689 113.595 319.314L115.761 317.223L113.869 315.263C112.494 313.838 112.535 311.569 113.959 310.194ZM171.681 343.948C170.306 342.523 168.037 342.483 166.612 343.858C165.188 345.233 165.148 347.502 166.522 348.926L168.414 350.887L166.248 352.978C164.823 354.352 164.783 356.622 166.158 358.046C167.533 359.471 169.802 359.511 171.226 358.136L173.393 356.045L175.484 358.211C176.859 359.636 179.128 359.676 180.553 358.301C181.977 356.926 182.017 354.657 180.642 353.233L178.551 351.066L180.512 349.174C181.936 347.799 181.976 345.53 180.601 344.106C179.227 342.681 176.957 342.641 175.533 344.016L173.573 345.908L171.681 343.948ZM81.1587 181.295C82.5832 179.92 84.8524 179.96 86.2273 181.385L88.1192 183.345L90.0794 181.453C91.5038 180.078 93.7731 180.118 95.1479 181.543C96.5227 182.967 96.4825 185.236 95.0581 186.611L93.0979 188.503L95.1889 190.67C96.5637 192.094 96.5235 194.363 95.0991 195.738C93.6746 197.113 91.4054 197.073 90.0305 195.648L87.9395 193.482L85.773 195.573C84.3485 196.948 82.0793 196.907 80.7044 195.483C79.3296 194.059 79.3698 191.789 80.7943 190.415L82.9608 188.323L81.0689 186.363C79.6941 184.939 79.7343 182.67 81.1587 181.295ZM52.276 282.087C50.9012 280.663 48.6319 280.623 47.2075 281.998C45.7831 283.372 45.7428 285.642 47.1176 287.066L49.0096 289.026L46.843 291.117C45.4186 292.492 45.3784 294.761 46.7532 296.186C48.1281 297.61 50.3973 297.651 51.8217 296.276L53.9883 294.185L56.0793 296.351C57.4541 297.776 59.7234 297.816 61.1478 296.441C62.5723 295.066 62.6125 292.797 61.2377 291.372L59.1466 289.206L61.1068 287.314C62.5313 285.939 62.5715 283.67 61.1967 282.246C59.8218 280.821 57.5526 280.781 56.1281 282.156L54.1679 284.048L52.276 282.087ZM1.45966 312.784C2.8841 311.409 5.15335 311.449 6.5282 312.874L8.42011 314.834L10.3803 312.942C11.8047 311.567 14.074 311.607 15.4488 313.032C16.8237 314.456 16.7834 316.726 15.359 318.1L13.3988 319.992L15.4898 322.159C16.8647 323.583 16.8245 325.852 15.4 327.227C13.9756 328.602 11.7063 328.562 10.3315 327.137L8.24042 324.971L6.07391 327.062C4.64948 328.437 2.38022 328.397 1.00537 326.972C-0.369444 325.548 -0.329222 323.278 1.09522 321.904L3.26172 319.813L1.36981 317.852C-0.00500348 316.428 0.0352187 314.159 1.45966 312.784ZM296.468 264.359C296.123 266.455 297.542 268.434 299.637 268.779C301.732 269.124 303.711 267.706 304.056 265.611C304.402 263.515 302.983 261.537 300.888 261.191C298.793 260.846 296.814 262.264 296.468 264.359ZM198.071 320.569C195.976 320.224 194.557 318.245 194.902 316.15C195.248 314.054 197.227 312.636 199.322 312.981C201.417 313.327 202.836 315.305 202.49 317.401C202.145 319.496 200.166 320.914 198.071 320.569ZM207.275 202.211C206.929 204.307 208.348 206.286 210.443 206.631C212.538 206.976 214.517 205.558 214.862 203.463C215.208 201.367 213.789 199.389 211.694 199.043C209.599 198.698 207.62 200.116 207.275 202.211ZM241.916 348.476C239.82 348.131 238.402 346.152 238.747 344.057C239.093 341.962 241.071 340.543 243.167 340.888C245.262 341.234 246.681 343.213 246.335 345.308C245.99 347.403 244.011 348.822 241.916 348.476ZM49.0273 253.426C48.6818 255.521 50.1004 257.5 52.1957 257.846C54.2911 258.191 56.2698 256.772 56.6152 254.677C56.9607 252.582 55.5422 250.603 53.4468 250.258C51.3515 249.912 49.3728 251.331 49.0273 253.426ZM16.2304 253.242C14.1351 252.897 12.7165 250.918 13.062 248.822C13.4075 246.727 15.3862 245.309 17.4815 245.654C19.5769 246 20.9954 247.978 20.6499 250.074C20.3045 252.169 18.3258 253.587 16.2304 253.242ZM102.831 268.675C102.486 270.771 103.904 272.749 106 273.095C108.095 273.44 110.074 272.022 110.419 269.926C110.765 267.831 109.346 265.852 107.251 265.507C105.156 265.161 103.177 266.58 102.831 268.675ZM120.098 383.005C118.003 382.659 116.584 380.68 116.93 378.585C117.275 376.49 119.254 375.071 121.349 375.417C123.445 375.762 124.863 377.741 124.518 379.836C124.172 381.932 122.194 383.35 120.098 383.005Z" fill="#FFEC66"/>
<path fill-rule="evenodd" clip-rule="evenodd" d="M390.134 1.00538C391.558 -0.369453 393.827 -0.329233 395.202 1.09521L397.094 3.0554L399.054 1.1635C400.479 -0.211332 402.748 -0.171109 404.123 1.25334C405.498 2.67778 405.457 4.94704 404.033 6.32187L402.073 8.21378L404.164 10.3803C405.539 11.8047 405.498 14.074 404.074 15.4488C402.65 16.8236 400.38 16.7834 399.006 15.359L396.914 13.1925L394.748 15.2835C393.324 16.6583 391.054 16.6181 389.679 15.1937C388.305 13.7692 388.345 11.5 389.769 10.1251L391.936 8.0341L390.044 6.07391C388.669 4.64946 388.709 2.3802 390.134 1.00538ZM258.423 25.2655C257.048 23.8411 254.779 23.8008 253.355 25.1757C251.93 26.5505 251.89 28.8198 253.265 30.2442L255.157 32.2044L252.99 34.2954C251.566 35.6703 251.526 37.9395 252.9 39.364C254.275 40.7884 256.544 40.8286 257.969 39.4538L260.135 37.3628L262.226 39.5293C263.601 40.9537 265.871 40.9939 267.295 39.6191C268.719 38.2443 268.76 35.975 267.385 34.5506L265.294 32.3841L267.254 30.4922C268.678 29.1173 268.719 26.8481 267.344 25.4236C265.969 23.9992 263.7 23.959 262.275 25.3338L260.315 27.2257L258.423 25.2655ZM508.564 29.4916C509.989 28.1167 512.258 28.1569 513.633 29.5814L515.525 31.5416L517.485 29.6497C518.909 28.2748 521.179 28.3151 522.553 29.7395C523.928 31.164 523.888 33.4332 522.464 34.808L520.503 36.7L522.594 38.8665C523.969 40.2909 523.929 42.5602 522.505 43.935C521.08 45.3098 518.811 45.2696 517.436 43.8452L515.345 41.6787L513.179 43.7697C511.754 45.1445 509.485 45.1043 508.11 43.6799C506.735 42.2554 506.775 39.9862 508.2 38.6113L510.366 36.5203L508.474 34.5601C507.1 33.1356 507.14 30.8664 508.564 29.4916ZM459.651 57.6883C461.076 56.3135 463.345 56.3537 464.72 57.7781L466.612 59.7383L468.572 57.8464C469.997 56.4716 472.266 56.5118 473.641 57.9363C475.015 59.3607 474.975 61.63 473.551 63.0048L471.591 64.8967L473.682 67.0632C475.057 68.4877 475.016 70.7569 473.592 72.1318C472.167 73.5066 469.898 73.4664 468.523 72.0419L466.432 69.8754L464.266 71.9664C462.841 73.3413 460.572 73.3011 459.197 71.8766C457.822 70.4522 457.863 68.1829 459.287 66.8081L461.454 64.717L459.562 62.7568C458.187 61.3324 458.227 59.0631 459.651 57.6883ZM395.091 80.7959C393.716 79.3715 391.447 79.3313 390.023 80.7061C388.598 82.0809 388.558 84.3502 389.933 85.7746L391.825 87.7348L389.658 89.8259C388.234 91.2007 388.194 93.4699 389.568 94.8944C390.943 96.3188 393.213 96.3591 394.637 94.9842L396.803 92.8932L398.895 95.0597C400.269 96.4841 402.539 96.5244 403.963 95.1495C405.387 93.7747 405.428 91.5054 404.053 90.081L401.962 87.9145L403.922 86.0226C405.346 84.6478 405.387 82.3785 404.012 80.954C402.637 79.5296 400.368 79.4894 398.943 80.8642L396.983 82.7561L395.091 80.7959ZM524.964 174.504C526.389 173.129 528.658 173.169 530.033 174.593L531.925 176.554L533.885 174.662C535.31 173.287 537.579 173.327 538.954 174.752C540.328 176.176 540.288 178.445 538.864 179.82L536.904 181.712L538.995 183.879C540.369 185.303 540.329 187.572 538.905 188.947C537.48 190.322 535.211 190.282 533.836 188.857L531.745 186.691L529.579 188.782C528.154 190.157 525.885 190.116 524.51 188.692C523.135 187.267 523.176 184.998 524.6 183.623L526.767 181.532L524.875 179.572C523.5 178.148 523.54 175.878 524.964 174.504ZM255.656 188.602C257.081 187.227 259.35 187.267 260.725 188.692L262.617 190.652L264.577 188.76C266.002 187.385 268.271 187.425 269.646 188.85C271.02 190.274 270.98 192.544 269.556 193.918L267.596 195.81L269.687 197.977C271.061 199.401 271.021 201.671 269.597 203.045C268.172 204.42 265.903 204.38 264.528 202.956L262.437 200.789L260.271 202.88C258.846 204.255 256.577 204.215 255.202 202.79C253.827 201.366 253.868 199.097 255.292 197.722L257.458 195.631L255.567 193.67C254.192 192.246 254.232 189.977 255.656 188.602ZM510.468 118.488C509.093 117.063 506.824 117.023 505.399 118.398C503.975 119.773 503.935 122.042 505.31 123.466L507.201 125.426L505.035 127.518C503.61 128.892 503.57 131.162 504.945 132.586C506.32 134.011 508.589 134.051 510.014 132.676L512.18 130.585L514.271 132.751C515.646 134.176 517.915 134.216 519.34 132.841C520.764 131.466 520.804 129.197 519.43 127.773L517.338 125.606L519.299 123.714C520.723 122.339 520.763 120.07 519.389 118.646C518.014 117.221 515.744 117.181 514.32 118.556L512.36 120.448L510.468 118.488ZM451.419 112.354C452.843 110.979 455.112 111.019 456.487 112.444L458.379 114.404L460.339 112.512C461.764 111.137 464.033 111.177 465.408 112.602C466.783 114.026 466.742 116.296 465.318 117.67L463.358 119.562L465.449 121.729C466.824 123.153 466.783 125.422 465.359 126.797C463.934 128.172 461.665 128.132 460.29 126.707L458.199 124.541L456.033 126.632C454.608 128.007 452.339 127.967 450.964 126.542C449.589 125.118 449.63 122.848 451.054 121.474L453.221 119.383L451.329 117.422C449.954 115.998 449.994 113.729 451.419 112.354ZM346.466 42.5289C345.091 41.1044 342.822 41.0642 341.398 42.4391C339.973 43.8139 339.933 46.0831 341.308 47.5076L343.2 49.4678L341.033 51.5588C339.609 52.9337 339.569 55.2029 340.943 56.6274C342.318 58.0518 344.587 58.092 346.012 56.7172L348.178 54.6261L350.269 56.7927C351.644 58.2171 353.914 58.2573 355.338 56.8825C356.762 55.5077 356.803 53.2384 355.428 51.814L353.337 49.6475L355.297 47.7555C356.721 46.3807 356.762 44.1115 355.387 42.687C354.012 41.2626 351.743 41.2223 350.318 42.5972L348.358 44.4891L346.466 42.5289ZM293.525 146.972C292.15 145.548 289.881 145.507 288.457 146.882C287.032 148.257 286.992 150.526 288.367 151.951L290.259 153.911L288.092 156.002C286.668 157.377 286.628 159.646 288.002 161.071C289.377 162.495 291.647 162.535 293.071 161.16L295.238 159.069L297.329 161.236C298.703 162.66 300.973 162.701 302.397 161.326C303.822 159.951 303.862 157.682 302.487 156.257L300.396 154.091L302.356 152.199C303.781 150.824 303.821 148.555 302.446 147.13C301.071 145.706 298.802 145.666 297.377 147.04L295.417 148.932L293.525 146.972ZM339.959 130.194C341.384 128.82 343.653 128.86 345.028 130.284L346.92 132.244L348.88 130.352C350.304 128.978 352.573 129.018 353.948 130.442C355.323 131.867 355.283 134.136 353.858 135.511L351.898 137.403L353.989 139.569C355.364 140.994 355.324 143.263 353.899 144.638C352.475 146.013 350.206 145.972 348.831 144.548L346.74 142.381L344.573 144.473C343.149 145.847 340.88 145.807 339.505 144.383C338.13 142.958 338.17 140.689 339.595 139.314L341.761 137.223L339.869 135.263C338.494 133.838 338.535 131.569 339.959 130.194ZM397.681 163.948C396.306 162.523 394.037 162.483 392.612 163.858C391.188 165.233 391.148 167.502 392.522 168.926L394.414 170.887L392.248 172.978C390.823 174.352 390.783 176.622 392.158 178.046C393.533 179.471 395.802 179.511 397.226 178.136L399.393 176.045L401.484 178.211C402.859 179.636 405.128 179.676 406.553 178.301C407.977 176.926 408.017 174.657 406.642 173.233L404.551 171.066L406.512 169.174C407.936 167.799 407.976 165.53 406.601 164.106C405.227 162.681 402.957 162.641 401.533 164.016L399.573 165.908L397.681 163.948ZM307.159 1.29473C308.583 -0.0801014 310.852 -0.0398813 312.227 1.38456L314.119 3.34476L316.079 1.45285C317.504 0.0780196 319.773 0.118242 321.148 1.54269C322.523 2.96713 322.482 5.23639 321.058 6.61122L319.098 8.50313L321.189 10.6696C322.564 12.0941 322.524 14.3633 321.099 15.7382C319.675 17.113 317.405 17.0728 316.031 15.6483L313.94 13.4818L311.773 15.5729C310.349 16.9477 308.079 16.9075 306.704 15.483C305.33 14.0586 305.37 11.7893 306.794 10.4145L308.961 8.32345L307.069 6.36326C305.694 4.93882 305.734 2.66956 307.159 1.29473ZM278.276 102.087C276.901 100.663 274.632 100.623 273.207 101.998C271.783 103.372 271.743 105.642 273.118 107.066L275.01 109.026L272.843 111.117C271.419 112.492 271.378 114.761 272.753 116.186C274.128 117.61 276.397 117.651 277.822 116.276L279.988 114.185L282.079 116.351C283.454 117.776 285.723 117.816 287.148 116.441C288.572 115.066 288.613 112.797 287.238 111.372L285.147 109.206L287.107 107.314C288.531 105.939 288.571 103.67 287.197 102.246C285.822 100.821 283.553 100.781 282.128 102.156L280.168 104.048L278.276 102.087ZM227.46 132.784C228.884 131.409 231.153 131.449 232.528 132.874L234.42 134.834L236.38 132.942C237.805 131.567 240.074 131.607 241.449 133.032C242.824 134.456 242.783 136.726 241.359 138.1L239.399 139.992L241.49 142.159C242.865 143.583 242.824 145.852 241.4 147.227C239.976 148.602 237.706 148.562 236.331 147.137L234.24 144.971L232.074 147.062C230.649 148.437 228.38 148.397 227.005 146.972C225.631 145.548 225.671 143.278 227.095 141.904L229.262 139.813L227.37 137.852C225.995 136.428 226.035 134.159 227.46 132.784ZM522.468 84.3595C522.123 86.4548 523.542 88.4335 525.637 88.779C527.732 89.1245 529.711 87.7059 530.056 85.6106C530.402 83.5152 528.983 81.5365 526.888 81.191C524.793 80.8456 522.814 82.2641 522.468 84.3595ZM424.071 140.569C421.976 140.224 420.557 138.245 420.902 136.15C421.248 134.054 423.227 132.636 425.322 132.981C427.417 133.327 428.836 135.305 428.49 137.401C428.145 139.496 426.166 140.914 424.071 140.569ZM433.275 22.2115C432.929 24.3068 434.348 26.2855 436.443 26.631C438.538 26.9765 440.517 25.5579 440.862 23.4626C441.208 21.3672 439.789 19.3885 437.694 19.0431C435.599 18.6976 433.62 20.1161 433.275 22.2115ZM467.916 168.476C465.82 168.131 464.402 166.152 464.747 164.057C465.093 161.962 467.071 160.543 469.167 160.888C471.262 161.234 472.681 163.213 472.335 165.308C471.99 167.403 470.011 168.822 467.916 168.476ZM275.027 73.426C274.682 75.5214 276.1 77.5001 278.196 77.8455C280.291 78.191 282.27 76.7725 282.615 74.6771C282.961 72.5817 281.542 70.6031 279.447 70.2576C277.351 69.9121 275.373 71.3307 275.027 73.426ZM242.23 73.242C240.135 72.8965 238.717 70.9178 239.062 68.8225C239.407 66.7271 241.386 65.3086 243.482 65.6541C245.577 65.9995 246.995 67.9782 246.65 70.0736C246.304 72.1689 244.326 73.5875 242.23 73.242ZM328.831 88.6754C328.486 90.7707 329.904 92.7494 332 93.0949C334.095 93.4403 336.074 92.0218 336.419 89.9264C336.765 87.8311 335.346 85.8524 333.251 85.5069C331.156 85.1614 329.177 86.58 328.831 88.6754ZM346.098 203.005C344.003 202.659 342.584 200.68 342.93 198.585C343.275 196.49 345.254 195.071 347.349 195.417C349.445 195.762 350.863 197.741 350.518 199.836C350.172 201.932 348.194 203.35 346.098 203.005Z" fill="#FFEC66"/>
<path fill-rule="evenodd" clip-rule="evenodd" d="M494.134 214.005C495.558 212.631 497.827 212.671 499.202 214.095L501.094 216.055L503.054 214.163C504.479 212.789 506.748 212.829 508.123 214.253C509.498 215.678 509.457 217.947 508.033 219.322L506.073 221.214L508.164 223.38C509.539 224.805 509.498 227.074 508.074 228.449C506.65 229.824 504.38 229.783 503.006 228.359L500.914 226.192L498.748 228.284C497.324 229.658 495.054 229.618 493.679 228.194C492.305 226.769 492.345 224.5 493.769 223.125L495.936 221.034L494.044 219.074C492.669 217.649 492.709 215.38 494.134 214.005ZM362.423 238.266C361.048 236.841 358.779 236.801 357.355 238.176C355.93 239.55 355.89 241.82 357.265 243.244L359.157 245.204L356.99 247.295C355.566 248.67 355.526 250.94 356.9 252.364C358.275 253.788 360.544 253.829 361.969 252.454L364.135 250.363L366.226 252.529C367.601 253.954 369.871 253.994 371.295 252.619C372.719 251.244 372.76 248.975 371.385 247.551L369.294 245.384L371.254 243.492C372.678 242.117 372.719 239.848 371.344 238.424C369.969 236.999 367.7 236.959 366.275 238.334L364.315 240.226L362.423 238.266ZM612.564 242.492C613.989 241.117 616.258 241.157 617.633 242.581L619.525 244.542L621.485 242.65C622.909 241.275 625.179 241.315 626.553 242.74C627.928 244.164 627.888 246.433 626.464 247.808L624.503 249.7L626.594 251.866C627.969 253.291 627.929 255.56 626.505 256.935C625.08 258.31 622.811 258.27 621.436 256.845L619.345 254.679L617.179 256.77C615.754 258.145 613.485 258.104 612.11 256.68C610.735 255.255 610.775 252.986 612.2 251.611L614.366 249.52L612.474 247.56C611.1 246.136 611.14 243.866 612.564 242.492ZM563.651 270.688C565.076 269.313 567.345 269.354 568.72 270.778L570.612 272.738L572.572 270.846C573.997 269.472 576.266 269.512 577.641 270.936C579.015 272.361 578.975 274.63 577.551 276.005L575.591 277.897L577.682 280.063C579.057 281.488 579.016 283.757 577.592 285.132C576.167 286.507 573.898 286.466 572.523 285.042L570.432 282.875L568.266 284.966C566.841 286.341 564.572 286.301 563.197 284.877C561.822 283.452 561.863 281.183 563.287 279.808L565.454 277.717L563.562 275.757C562.187 274.332 562.227 272.063 563.651 270.688ZM499.091 293.796C497.716 292.371 495.447 292.331 494.023 293.706C492.598 295.081 492.558 297.35 493.933 298.775L495.825 300.735L493.658 302.826C492.234 304.201 492.194 306.47 493.568 307.894C494.943 309.319 497.213 309.359 498.637 307.984L500.803 305.893L502.895 308.06C504.269 309.484 506.539 309.524 507.963 308.15C509.387 306.775 509.428 304.505 508.053 303.081L505.962 300.914L507.922 299.023C509.346 297.648 509.387 295.378 508.012 293.954C506.637 292.53 504.368 292.489 502.943 293.864L500.983 295.756L499.091 293.796ZM628.964 387.504C630.389 386.129 632.658 386.169 634.033 387.593L635.925 389.554L637.885 387.662C639.31 386.287 641.579 386.327 642.954 387.752C644.328 389.176 644.288 391.445 642.864 392.82L640.904 394.712L642.995 396.879C644.369 398.303 644.329 400.572 642.905 401.947C641.48 403.322 639.211 403.282 637.836 401.857L635.745 399.691L633.579 401.782C632.154 403.157 629.885 403.116 628.51 401.692C627.135 400.267 627.176 397.998 628.6 396.623L630.767 394.532L628.875 392.572C627.5 391.148 627.54 388.878 628.964 387.504ZM359.656 401.602C361.081 400.227 363.35 400.267 364.725 401.692L366.617 403.652L368.577 401.76C370.002 400.385 372.271 400.425 373.646 401.85C375.02 403.274 374.98 405.544 373.556 406.918L371.596 408.81L373.687 410.977C375.061 412.401 375.021 414.671 373.597 416.045C372.172 417.42 369.903 417.38 368.528 415.956L366.437 413.789L364.271 415.88C362.846 417.255 360.577 417.215 359.202 415.79C357.827 414.366 357.868 412.097 359.292 410.722L361.458 408.631L359.567 406.67C358.192 405.246 358.232 402.977 359.656 401.602ZM614.468 331.488C613.093 330.063 610.824 330.023 609.399 331.398C607.975 332.773 607.935 335.042 609.31 336.466L611.201 338.426L609.035 340.518C607.61 341.892 607.57 344.162 608.945 345.586C610.32 347.011 612.589 347.051 614.014 345.676L616.18 343.585L618.271 345.751C619.646 347.176 621.915 347.216 623.34 345.841C624.764 344.466 624.804 342.197 623.43 340.773L621.338 338.606L623.299 336.714C624.723 335.339 624.763 333.07 623.389 331.646C622.014 330.221 619.744 330.181 618.32 331.556L616.36 333.448L614.468 331.488ZM555.419 325.354C556.843 323.979 559.112 324.019 560.487 325.444L562.379 327.404L564.339 325.512C565.764 324.137 568.033 324.177 569.408 325.602C570.783 327.026 570.742 329.296 569.318 330.67L567.358 332.562L569.449 334.729C570.824 336.153 570.783 338.422 569.359 339.797C567.934 341.172 565.665 341.132 564.29 339.707L562.199 337.541L560.033 339.632C558.608 341.007 556.339 340.967 554.964 339.542C553.589 338.118 553.63 335.848 555.054 334.474L557.221 332.383L555.329 330.422C553.954 328.998 553.994 326.729 555.419 325.354ZM450.466 255.529C449.091 254.104 446.822 254.064 445.398 255.439C443.973 256.814 443.933 259.083 445.308 260.508L447.2 262.468L445.033 264.559C443.609 265.934 443.569 268.203 444.943 269.627C446.318 271.052 448.587 271.092 450.012 269.717L452.178 267.626L454.269 269.793C455.644 271.217 457.914 271.257 459.338 269.882C460.762 268.508 460.803 266.238 459.428 264.814L457.337 262.647L459.297 260.756C460.721 259.381 460.762 257.111 459.387 255.687C458.012 254.263 455.743 254.222 454.318 255.597L452.358 257.489L450.466 255.529ZM397.525 359.972C396.15 358.548 393.881 358.507 392.457 359.882C391.032 361.257 390.992 363.526 392.367 364.951L394.259 366.911L392.092 369.002C390.668 370.377 390.628 372.646 392.002 374.071C393.377 375.495 395.647 375.535 397.071 374.16L399.238 372.069L401.329 374.236C402.703 375.66 404.973 375.701 406.397 374.326C407.822 372.951 407.862 370.682 406.487 369.257L404.396 367.091L406.356 365.199C407.781 363.824 407.821 361.555 406.446 360.13C405.071 358.706 402.802 358.666 401.377 360.04L399.417 361.932L397.525 359.972ZM443.959 343.194C445.384 341.82 447.653 341.86 449.028 343.284L450.92 345.244L452.88 343.352C454.304 341.978 456.573 342.018 457.948 343.442C459.323 344.867 459.283 347.136 457.858 348.511L455.898 350.403L457.989 352.569C459.364 353.994 459.324 356.263 457.899 357.638C456.475 359.013 454.206 358.972 452.831 357.548L450.74 355.381L448.573 357.473C447.149 358.847 444.88 358.807 443.505 357.383C442.13 355.958 442.17 353.689 443.595 352.314L445.761 350.223L443.869 348.263C442.494 346.838 442.535 344.569 443.959 343.194ZM501.681 376.948C500.306 375.523 498.037 375.483 496.612 376.858C495.188 378.233 495.148 380.502 496.522 381.926L498.414 383.887L496.248 385.978C494.823 387.352 494.783 389.622 496.158 391.046C497.533 392.471 499.802 392.511 501.226 391.136L503.393 389.045L505.484 391.211C506.859 392.636 509.128 392.676 510.553 391.301C511.977 389.926 512.017 387.657 510.642 386.233L508.551 384.066L510.512 382.174C511.936 380.799 511.976 378.53 510.601 377.106C509.227 375.681 506.957 375.641 505.533 377.016L503.573 378.908L501.681 376.948ZM411.159 214.295C412.583 212.92 414.852 212.96 416.227 214.385L418.119 216.345L420.079 214.453C421.504 213.078 423.773 213.118 425.148 214.543C426.523 215.967 426.482 218.236 425.058 219.611L423.098 221.503L425.189 223.67C426.564 225.094 426.524 227.363 425.099 228.738C423.675 230.113 421.405 230.073 420.031 228.648L417.94 226.482L415.773 228.573C414.349 229.948 412.079 229.907 410.704 228.483C409.33 227.059 409.37 224.789 410.794 223.415L412.961 221.323L411.069 219.363C409.694 217.939 409.734 215.67 411.159 214.295ZM382.276 315.087C380.901 313.663 378.632 313.623 377.207 314.998C375.783 316.372 375.743 318.642 377.118 320.066L379.01 322.026L376.843 324.117C375.419 325.492 375.378 327.761 376.753 329.186C378.128 330.61 380.397 330.651 381.822 329.276L383.988 327.185L386.079 329.351C387.454 330.776 389.723 330.816 391.148 329.441C392.572 328.066 392.613 325.797 391.238 324.372L389.147 322.206L391.107 320.314C392.531 318.939 392.571 316.67 391.197 315.246C389.822 313.821 387.553 313.781 386.128 315.156L384.168 317.048L382.276 315.087ZM331.46 345.784C332.884 344.409 335.153 344.449 336.528 345.874L338.42 347.834L340.38 345.942C341.805 344.567 344.074 344.607 345.449 346.032C346.824 347.456 346.783 349.726 345.359 351.1L343.399 352.992L345.49 355.159C346.865 356.583 346.824 358.852 345.4 360.227C343.976 361.602 341.706 361.562 340.331 360.137L338.24 357.971L336.074 360.062C334.649 361.437 332.38 361.397 331.005 359.972C329.631 358.548 329.671 356.278 331.095 354.904L333.262 352.813L331.37 350.852C329.995 349.428 330.035 347.159 331.46 345.784ZM626.468 297.359C626.123 299.455 627.542 301.434 629.637 301.779C631.732 302.124 633.711 300.706 634.056 298.611C634.402 296.515 632.983 294.537 630.888 294.191C628.793 293.846 626.814 295.264 626.468 297.359ZM528.071 353.569C525.976 353.224 524.557 351.245 524.902 349.15C525.248 347.054 527.227 345.636 529.322 345.981C531.417 346.327 532.836 348.305 532.49 350.401C532.145 352.496 530.166 353.914 528.071 353.569ZM537.275 235.211C536.929 237.307 538.348 239.286 540.443 239.631C542.538 239.976 544.517 238.558 544.862 236.463C545.208 234.367 543.789 232.389 541.694 232.043C539.599 231.698 537.62 233.116 537.275 235.211ZM571.916 381.476C569.82 381.131 568.402 379.152 568.747 377.057C569.093 374.962 571.071 373.543 573.167 373.888C575.262 374.234 576.681 376.213 576.335 378.308C575.99 380.403 574.011 381.822 571.916 381.476ZM379.027 286.426C378.682 288.521 380.1 290.5 382.196 290.846C384.291 291.191 386.27 289.772 386.615 287.677C386.961 285.582 385.542 283.603 383.447 283.258C381.351 282.912 379.373 284.331 379.027 286.426ZM346.23 286.242C344.135 285.897 342.717 283.918 343.062 281.822C343.407 279.727 345.386 278.309 347.482 278.654C349.577 279 350.995 280.978 350.65 283.074C350.304 285.169 348.326 286.587 346.23 286.242ZM432.831 301.675C432.486 303.771 433.904 305.749 436 306.095C438.095 306.44 440.074 305.022 440.419 302.926C440.765 300.831 439.346 298.852 437.251 298.507C435.156 298.161 433.177 299.58 432.831 301.675ZM450.098 416.005C448.003 415.659 446.584 413.68 446.93 411.585C447.275 409.49 449.254 408.071 451.349 408.417C453.445 408.762 454.863 410.741 454.518 412.836C454.172 414.932 452.194 416.35 450.098 416.005Z" fill="#FFEC66"/>
</svg>
