<svg width="322" height="103" viewBox="0 0 322 103" fill="none" xmlns="http://www.w3.org/2000/svg">
<path d="M85.9765 14.5803C66.308 -4.86727 34.6674 -4.85906 15.0061 14.5987C14.9343 14.6699 14.8608 14.7388 14.7892 14.8106C-3.53844 33.1634 -4.83033 62.1103 10.9066 81.9618C10.904 81.8469 10.8995 81.7323 10.9002 81.617C10.9143 78.5026 12.1567 75.5196 14.3574 73.3159C16.5581 71.1122 19.5393 69.8658 22.6537 69.8473C23.0448 69.8452 23.4328 69.8619 23.8178 69.8974C19.2308 63.5428 17.054 55.7636 17.6766 47.9512C18.2993 40.1388 21.6808 32.8026 27.2164 27.2548C27.288 27.1829 27.3612 27.1138 27.4333 27.0429C33.6106 20.9664 41.936 17.5728 50.601 17.599C59.2659 17.6253 67.5706 21.0694 73.7109 27.1833L73.7823 27.2548C75.4389 28.8719 77.6662 29.7706 79.9812 29.7558C82.2961 29.7411 84.5119 28.8141 86.1477 27.1761C87.7835 25.538 88.7075 23.3209 88.719 21.006C88.7306 18.691 87.8288 16.4649 86.2094 14.8105L86.138 14.739C86.0837 14.6847 86.0309 14.6318 85.9765 14.5803Z" fill="white"/>
<path d="M91.7408 21.0245C91.7266 24.1388 90.4843 27.1218 88.2836 29.3255C86.0829 31.5293 83.1016 32.7757 79.9873 32.7942C79.5961 32.7963 79.2081 32.7796 78.8232 32.7441C83.4101 39.0987 85.587 46.8778 84.9643 54.6903C84.3417 62.5027 80.9602 69.8388 75.4246 75.3867C75.353 75.4584 75.2798 75.5276 75.2077 75.5985C69.0304 81.675 60.705 85.0687 52.04 85.0424C43.3751 85.0162 35.0704 81.572 28.9301 75.4582L28.8587 75.3867C27.2021 73.7696 24.9748 72.8709 22.6598 72.8857C20.3449 72.9004 18.1291 73.8274 16.4933 75.4654C14.8575 77.1035 13.9335 79.3206 13.922 81.6355C13.9104 83.9505 14.8122 86.1766 16.4316 87.8309L16.503 87.9025C16.5573 87.9568 16.6101 88.0098 16.6644 88.0612C36.333 107.509 67.9736 107.501 87.6348 88.0428C87.7066 87.9715 87.7801 87.9027 87.8517 87.8309C106.179 69.478 107.471 40.5311 91.7343 20.6796C91.737 20.7945 91.7414 20.9091 91.7408 21.0245Z" fill="white"/>
<path d="M59.1072 31.7183C61.2007 32.5298 63.1092 33.7552 64.7186 35.321L60.6375 40.1067C58.0953 38.028 55.3746 36.9884 52.4755 36.9879C50.9359 36.9879 49.7187 37.3015 48.8241 37.9289C47.9289 38.5566 47.4813 39.4617 47.4815 40.6444C47.4492 41.3635 47.657 42.0728 48.0722 42.6608C48.4657 43.1809 49.1638 43.6738 50.1664 44.1395C51.6368 44.7812 53.1428 45.3378 54.677 45.8064C58.4711 47.0256 61.2633 48.5222 63.0538 50.2964C64.8435 52.0708 65.7384 54.5891 65.7387 57.8512C65.7387 60.1819 65.148 62.2341 63.9667 64.0081C62.7853 65.7825 61.0849 67.1626 58.8654 68.1485C56.6454 69.134 54.0143 69.6269 50.972 69.6271C47.9289 69.6271 45.2351 69.1432 42.8906 68.1753C40.6516 67.2756 38.6022 65.9622 36.8496 64.3037L41.3065 59.4105C42.6241 60.5595 44.1205 61.4858 45.7365 62.1528C47.318 62.7738 49.0045 63.0842 50.7035 63.0669C52.5293 63.0669 53.9701 62.6636 55.0261 61.8571C56.0816 61.0505 56.6097 59.9303 56.6102 58.4964C56.6392 57.6764 56.4343 56.8652 56.0196 56.1573C55.6252 55.5305 54.9451 54.966 53.9791 54.4635C52.6295 53.8119 51.2286 53.2724 49.7906 52.8504C45.6735 51.596 42.747 50.0545 41.0111 48.226C39.2743 46.3978 38.4062 44.0857 38.4067 41.2895C38.368 39.2648 38.9694 37.2795 40.125 35.6166C41.2703 33.9859 42.8633 32.7312 44.9041 31.8526C46.9447 30.9746 49.2536 30.5355 51.8311 30.5352C54.6233 30.5352 57.0487 30.9296 59.1072 31.7183Z" fill="white"/>
<path d="M146.509 67.3827C144.261 67.3827 142.232 66.8676 140.421 65.8374C138.642 64.8072 137.222 63.3868 136.16 61.5762C135.13 59.7343 134.615 57.6115 134.615 55.2078C134.615 52.804 135.146 50.6968 136.207 48.8862C137.268 47.0443 138.689 45.6083 140.468 44.5781C142.279 43.548 144.308 43.0329 146.556 43.0329C148.772 43.0329 150.77 43.548 152.55 44.5781C154.36 45.6083 155.781 47.0443 156.811 48.8862C157.872 50.6968 158.403 52.804 158.403 55.2078C158.403 57.6115 157.872 59.7343 156.811 61.5762C155.781 63.3868 154.36 64.8072 152.55 65.8374C150.739 66.8676 148.725 67.3827 146.509 67.3827ZM146.509 62.1849C148.07 62.1849 149.428 61.6074 150.583 60.4524C151.738 59.2661 152.315 57.5179 152.315 55.2078C152.315 52.8977 151.738 51.1651 150.583 50.01C149.428 48.8238 148.085 48.2306 146.556 48.2306C144.964 48.2306 143.59 48.8238 142.435 50.01C141.311 51.1651 140.749 52.8977 140.749 55.2078C140.749 57.5179 141.311 59.2661 142.435 60.4524C143.59 61.6074 144.948 62.1849 146.509 62.1849ZM163.762 66.8208V43.5948H169.053L169.522 47.5282C170.24 46.1546 171.27 45.062 172.612 44.2504C173.986 43.4387 175.593 43.0329 177.435 43.0329C180.307 43.0329 182.539 43.9382 184.131 45.7488C185.724 47.5594 186.52 50.2129 186.52 53.7093V66.8208H180.526V54.2712C180.526 52.2733 180.12 50.7436 179.308 49.6822C178.497 48.6208 177.232 48.0901 175.515 48.0901C173.83 48.0901 172.44 48.6833 171.348 49.8695C170.286 51.0558 169.756 52.7104 169.756 54.8332V66.8208H163.762Z" fill="white"/>
<g clip-path="url(#clip0_630_6071)">
<path d="M305.889 19.2109C299.346 16.26 292.332 14.0788 284.997 12.8386C284.932 12.826 284.864 12.8341 284.804 12.8617C284.743 12.8893 284.693 12.935 284.659 12.9925C283.761 14.5706 282.761 16.6278 282.059 18.2529C274.28 17.0907 266.372 17.0907 258.593 18.2529C257.812 16.4518 256.931 14.6956 255.954 12.9925C255.921 12.9343 255.871 12.8875 255.811 12.8585C255.75 12.8295 255.682 12.8195 255.616 12.83C248.286 14.0703 241.272 16.2514 234.724 19.2066C234.668 19.2302 234.62 19.2705 234.588 19.3221C221.278 38.8881 217.63 57.9708 219.422 76.8141C219.427 76.8602 219.442 76.9049 219.464 76.9453C219.487 76.9857 219.518 77.0211 219.555 77.0493C227.323 82.7049 235.988 87.0133 245.185 89.7939C245.249 89.8137 245.318 89.8136 245.382 89.7938C245.446 89.7739 245.503 89.7352 245.545 89.6827C247.52 87.0312 249.282 84.2299 250.788 81.2875C250.878 81.1164 250.792 80.9112 250.612 80.8427C247.85 79.8023 245.173 78.5468 242.606 77.0878C242.56 77.0614 242.521 77.0241 242.493 76.979C242.465 76.934 242.449 76.8827 242.445 76.8297C242.442 76.7767 242.452 76.7237 242.474 76.6754C242.496 76.6272 242.53 76.5852 242.572 76.5532C243.111 76.1554 243.65 75.7406 244.163 75.3258C244.209 75.2885 244.265 75.2647 244.324 75.2572C244.383 75.2496 244.443 75.2586 244.497 75.283C261.291 82.8271 279.48 82.8271 296.078 75.283C296.133 75.2571 296.193 75.247 296.253 75.2538C296.312 75.2606 296.369 75.284 296.416 75.3215C296.929 75.7406 297.464 76.1554 298.007 76.5532C298.05 76.5845 298.084 76.6259 298.107 76.6738C298.13 76.7216 298.141 76.7744 298.138 76.8274C298.135 76.8803 298.12 76.9318 298.093 76.9773C298.065 77.0227 298.027 77.0607 297.981 77.0878C295.424 78.559 292.764 79.8035 289.971 80.8385C289.928 80.854 289.889 80.8786 289.857 80.9104C289.824 80.9423 289.798 80.9808 289.782 81.0233C289.765 81.0658 289.758 81.1114 289.76 81.1569C289.763 81.2025 289.775 81.247 289.796 81.2875C291.335 84.2256 293.097 87.0226 295.035 89.6784C295.075 89.7329 295.131 89.7737 295.195 89.7951C295.26 89.8166 295.329 89.8176 295.394 89.7982C304.608 87.0253 313.286 82.715 321.063 77.0493C321.101 77.0228 321.133 76.9884 321.156 76.9486C321.18 76.9088 321.195 76.8644 321.2 76.8183C323.338 55.0327 317.616 36.1039 306.022 19.3306C305.993 19.2761 305.946 19.2336 305.889 19.2109ZM253.298 65.3396C248.243 65.3396 244.073 60.7678 244.073 55.161C244.073 49.55 248.162 44.9824 253.298 44.9824C258.473 44.9824 262.604 49.5884 262.523 55.161C262.523 60.7721 258.435 65.3396 253.298 65.3396ZM287.405 65.3396C282.346 65.3396 278.18 60.7678 278.18 55.161C278.18 49.55 282.264 44.9824 287.405 44.9824C292.58 44.9824 296.711 49.5884 296.63 55.161C296.63 60.7721 292.584 65.3396 287.405 65.3396Z" fill="white"/>
</g>
<defs>
<clipPath id="clip0_630_6071">
<rect width="102.641" height="102.641" fill="white" transform="translate(219 0.00012207)"/>
</clipPath>
</defs>
</svg>
