<svg width="32" height="32" viewBox="0 0 32 32" fill="none" xmlns="http://www.w3.org/2000/svg">
<path fill-rule="evenodd" clip-rule="evenodd" d="M8.46895 11.6688C8.76899 11.3689 9.17588 11.2004 9.60015 11.2004C10.0244 11.2004 10.4313 11.3689 10.7313 11.6688L16.0001 16.9376L21.2689 11.6688C21.4165 11.516 21.5931 11.3941 21.7883 11.3103C21.9835 11.2264 22.1935 11.1823 22.4059 11.1804C22.6184 11.1786 22.829 11.2191 23.0257 11.2995C23.2223 11.38 23.4009 11.4988 23.5512 11.649C23.7014 11.7992 23.8202 11.9779 23.9007 12.1745C23.9811 12.3711 24.0216 12.5818 24.0197 12.7943C24.0179 13.0067 23.9738 13.2167 23.8899 13.4119C23.8061 13.6071 23.6842 13.7836 23.5313 13.9312L17.1313 20.3312C16.8313 20.6312 16.4244 20.7997 16.0001 20.7997C15.5759 20.7997 15.169 20.6312 14.8689 20.3312L8.46895 13.9312C8.16899 13.6312 8.00049 13.2243 8.00049 12.8C8.00049 12.3758 8.16899 11.9689 8.46895 11.6688Z" fill="white"/>
</svg>
