<svg width="20" height="20" viewBox="0 0 20 20" fill="none" xmlns="http://www.w3.org/2000/svg">
<path d="M9.99967 1.66669C9.11562 1.66669 8.26777 2.01788 7.64265 2.643C7.01753 3.26812 6.66634 4.11596 6.66634 5.00002C6.66634 5.88407 7.01753 6.73192 7.64265 7.35704C8.26777 7.98216 9.11562 8.33335 9.99967 8.33335C10.8837 8.33335 11.7316 7.98216 12.3567 7.35704C12.9818 6.73192 13.333 5.88407 13.333 5.00002C13.333 4.11596 12.9818 3.26812 12.3567 2.643C11.7316 2.01788 10.8837 1.66669 9.99967 1.66669ZM14.1663 10H5.83301C5.16997 10 4.53408 10.2634 4.06524 10.7323C3.5964 11.2011 3.33301 11.837 3.33301 12.5C3.33301 14.36 4.09801 15.85 5.35301 16.8584C6.58801 17.85 8.24467 18.3334 9.99967 18.3334C11.7547 18.3334 13.4113 17.85 14.6463 16.8584C15.8997 15.85 16.6663 14.36 16.6663 12.5C16.6663 11.837 16.4029 11.2011 15.9341 10.7323C15.4653 10.2634 14.8294 10 14.1663 10Z" fill="white"/>
</svg>
