<?xml version="1.0" standalone="no"?>
<!DOCTYPE svg PUBLIC "-//W3C//DTD SVG 20010904//EN"
 "http://www.w3.org/TR/2001/REC-SVG-20010904/DTD/svg10.dtd">
<svg version="1.0" xmlns="http://www.w3.org/2000/svg"
width="25" height="24" viewBox="0 0 25 24" fill="none"
 preserveAspectRatio="xMidYMid meet">

<g>
<path d="M1835 4124 c-221 -6 -564 -25 -720 -39 -315 -29 -440 -72 -563 -193
-83 -82 -122 -157 -157 -297 -62 -253 -96 -842 -76 -1326 19 -480 61 -762 133
-909 43 -88 145 -187 240 -235 126 -62 307 -88 803 -117 302 -17 1828 -17
2130 0 499 29 677 55 804 118 95 47 196 147 240 236 71 145 113 430 132 907
20 484 -14 1073 -76 1326 -34 137 -73 212 -154 294 -147 149 -293 184 -921
221 -172 11 -1569 21 -1815 14z m864 -1228 c314 -182 571 -333 571 -336 0 -5
-1126 -659 -1151 -668 -5 -2 -9 268 -9 668 0 400 4 670 9 668 5 -1 266 -151
580 -332z"/>
</g>
</svg>
