<?xml version="1.0" encoding="UTF-8"?>
<svg xmlns="http://www.w3.org/2000/svg" xmlns:xlink="http://www.w3.org/1999/xlink" width="24px" height="24px" viewBox="0 0 24 24" version="1.1">
<g id="surface1">
<path style=" stroke:none;fill-rule:nonzero;fill:rgb(0%,0%,0%);fill-opacity:1;" d="M 8.601562 4.667969 C 7.566406 4.695312 5.957031 4.785156 5.226562 4.851562 C 3.75 4.988281 3.164062 5.1875 2.585938 5.757812 C 2.199219 6.140625 2.015625 6.492188 1.851562 7.148438 C 1.5625 8.335938 1.402344 11.09375 1.496094 13.363281 C 1.585938 15.613281 1.78125 16.9375 2.117188 17.625 C 2.320312 18.039062 2.796875 18.5 3.242188 18.726562 C 3.835938 19.015625 4.683594 19.140625 7.007812 19.273438 C 8.421875 19.355469 15.578125 19.355469 16.992188 19.273438 C 19.332031 19.140625 20.164062 19.015625 20.761719 18.722656 C 21.207031 18.5 21.679688 18.03125 21.886719 17.617188 C 22.21875 16.9375 22.414062 15.601562 22.503906 13.363281 C 22.597656 11.09375 22.4375 8.335938 22.148438 7.148438 C 21.988281 6.507812 21.804688 6.15625 21.425781 5.769531 C 20.738281 5.070312 20.054688 4.90625 17.109375 4.734375 C 16.304688 4.683594 9.753906 4.636719 8.601562 4.667969 Z M 12.652344 10.425781 C 14.125 11.277344 15.328125 11.984375 15.328125 12 C 15.328125 12.023438 10.050781 15.089844 9.933594 15.132812 C 9.910156 15.140625 9.890625 13.875 9.890625 12 C 9.890625 10.125 9.910156 8.859375 9.933594 8.867188 C 9.957031 8.875 11.179688 9.578125 12.652344 10.425781 Z M 12.652344 10.425781 "/>
</g>
</svg>
