<svg width="24" height="24" viewBox="0 0 24 24" fill="none" xmlns="http://www.w3.org/2000/svg">
<path d="M20.3161 4.49285C18.7862 3.8029 17.1464 3.29293 15.4315 3.00295C15.4162 3.00002 15.4004 3.00191 15.3862 3.00836C15.3721 3.01481 15.3603 3.0255 15.3525 3.03895C15.1425 3.40792 14.9085 3.88889 14.7445 4.26887C12.9257 3.99712 11.0767 3.99712 9.25787 4.26887C9.07522 3.84776 8.86925 3.43715 8.64091 3.03895C8.63317 3.02533 8.62146 3.0144 8.60735 3.00761C8.59324 3.00082 8.57739 2.9985 8.56192 3.00095C6.84803 3.29093 5.20814 3.8009 3.67724 4.49185C3.66407 4.49738 3.6529 4.5068 3.64524 4.51885C0.533446 9.09355 -0.319498 13.5553 0.0994741 17.961C0.10064 17.9718 0.103989 17.9822 0.109318 17.9917C0.114647 18.0011 0.121845 18.0094 0.130472 18.016C1.94675 19.3383 3.97256 20.3456 6.12308 20.9958C6.13807 21.0004 6.1541 21.0004 6.16909 20.9957C6.18407 20.9911 6.19731 20.982 6.20707 20.9698C6.66904 20.3498 7.08102 19.6949 7.43299 19.0069C7.45399 18.9669 7.43399 18.9189 7.39199 18.9029C6.74604 18.6596 6.12016 18.3661 5.52012 18.025C5.50934 18.0188 5.50025 18.0101 5.49368 17.9995C5.4871 17.989 5.48325 17.977 5.48245 17.9646C5.48166 17.9522 5.48396 17.9398 5.48913 17.9286C5.49431 17.9173 5.50221 17.9074 5.51212 17.9C5.63811 17.807 5.7641 17.71 5.88409 17.613C5.89489 17.6043 5.9079 17.5987 5.92168 17.5969C5.93545 17.5952 5.94944 17.5973 5.96209 17.603C9.88883 19.3669 14.1416 19.3669 18.0223 17.603C18.035 17.5969 18.0491 17.5946 18.0631 17.5962C18.0771 17.5978 18.0903 17.6032 18.1013 17.612C18.2213 17.71 18.3463 17.807 18.4733 17.9C18.4833 17.9073 18.4913 17.917 18.4966 17.9282C18.502 17.9394 18.5045 17.9517 18.5039 17.9641C18.5033 17.9765 18.4996 17.9885 18.4932 17.9991C18.4868 18.0098 18.4779 18.0186 18.4673 18.025C17.8693 18.3689 17.2473 18.6599 16.5944 18.9019C16.5844 18.9055 16.5752 18.9113 16.5676 18.9187C16.56 18.9262 16.554 18.9352 16.5501 18.9451C16.5462 18.9551 16.5445 18.9657 16.5451 18.9764C16.5457 18.987 16.5485 18.9974 16.5534 19.0069C16.9134 19.6939 17.3253 20.3478 17.7783 20.9688C17.7877 20.9815 17.8008 20.991 17.8159 20.996C17.8309 21.0011 17.8471 21.0013 17.8623 20.9968C20.0165 20.3485 22.0456 19.3407 23.8639 18.016C23.8728 18.0098 23.8802 18.0017 23.8857 17.9924C23.8913 17.9831 23.8947 17.9727 23.8959 17.962C24.3959 12.8683 23.058 8.44259 20.3471 4.52085C20.3405 4.50811 20.3295 4.49817 20.3161 4.49285ZM8.01995 15.2781C6.83803 15.2781 5.8631 14.2092 5.8631 12.8983C5.8631 11.5864 6.81903 10.5185 8.01995 10.5185C9.22987 10.5185 10.1958 11.5954 10.1768 12.8983C10.1768 14.2102 9.22087 15.2781 8.01995 15.2781V15.2781ZM15.9944 15.2781C14.8115 15.2781 13.8376 14.2092 13.8376 12.8983C13.8376 11.5864 14.7925 10.5185 15.9944 10.5185C17.2043 10.5185 18.1703 11.5954 18.1513 12.8983C18.1513 14.2102 17.2053 15.2781 15.9944 15.2781V15.2781Z" fill="black"/>
</svg>
