<svg width="25" height="24" viewBox="0 0 25 24" fill="none" xmlns="http://www.w3.org/2000/svg">
<path fill-rule="evenodd" clip-rule="evenodd" d="M7.9628 1.066C9.1358 1.012 9.5098 1 12.4978 1C15.4858 1 15.8598 1.013 17.0318 1.066C18.2038 1.119 19.0038 1.306 19.7038 1.577C20.4368 1.854 21.1018 2.287 21.6518 2.847C22.2118 3.396 22.6438 4.06 22.9198 4.794C23.1918 5.494 23.3778 6.294 23.4318 7.464C23.4858 8.639 23.4978 9.013 23.4978 12C23.4978 14.988 23.4848 15.362 23.4318 16.535C23.3788 17.705 23.1918 18.505 22.9198 19.205C22.6438 19.9391 22.2111 20.6042 21.6518 21.154C21.1018 21.714 20.4368 22.146 19.7038 22.422C19.0038 22.694 18.2038 22.88 17.0338 22.934C15.8598 22.988 15.4858 23 12.4978 23C9.5098 23 9.1358 22.987 7.9628 22.934C6.7928 22.881 5.9928 22.694 5.2928 22.422C4.55872 22.146 3.89362 21.7133 3.3438 21.154C2.78418 20.6047 2.35112 19.9399 2.0748 19.206C1.8038 18.506 1.6178 17.706 1.5638 16.536C1.5098 15.361 1.4978 14.987 1.4978 12C1.4978 9.012 1.5108 8.638 1.5638 7.466C1.6168 6.294 1.8038 5.494 2.0748 4.794C2.35153 4.06008 2.78492 3.39531 3.3448 2.846C3.89384 2.2865 4.55827 1.85344 5.2918 1.577C5.9918 1.306 6.7918 1.12 7.9618 1.066H7.9628ZM16.9428 3.046C15.7828 2.993 15.4348 2.982 12.4978 2.982C9.5608 2.982 9.2128 2.993 8.0528 3.046C6.9798 3.095 6.3978 3.274 6.0098 3.425C5.4968 3.625 5.1298 3.862 4.7448 4.247C4.37985 4.60205 4.09898 5.03428 3.9228 5.512C3.7718 5.9 3.5928 6.482 3.5438 7.555C3.4908 8.715 3.4798 9.063 3.4798 12C3.4798 14.937 3.4908 15.285 3.5438 16.445C3.5928 17.518 3.7718 18.1 3.9228 18.488C4.0988 18.965 4.3798 19.398 4.7448 19.753C5.0998 20.118 5.5328 20.399 6.0098 20.575C6.3978 20.726 6.9798 20.905 8.0528 20.954C9.2128 21.007 9.5598 21.018 12.4978 21.018C15.4358 21.018 15.7828 21.007 16.9428 20.954C18.0158 20.905 18.5978 20.726 18.9858 20.575C19.4988 20.375 19.8658 20.138 20.2508 19.753C20.6158 19.398 20.8968 18.965 21.0728 18.488C21.2238 18.1 21.4028 17.518 21.4518 16.445C21.5048 15.285 21.5158 14.937 21.5158 12C21.5158 9.063 21.5048 8.715 21.4518 7.555C21.4028 6.482 21.2238 5.9 21.0728 5.512C20.8728 4.999 20.6358 4.632 20.2508 4.247C19.8957 3.88207 19.4635 3.60121 18.9858 3.425C18.5978 3.274 18.0158 3.095 16.9428 3.046V3.046ZM11.0928 15.391C11.8775 15.7176 12.7512 15.7617 13.5647 15.5157C14.3783 15.2697 15.0812 14.7489 15.5534 14.0422C16.0256 13.3356 16.2379 12.4869 16.1538 11.6411C16.0698 10.7953 15.6948 10.005 15.0928 9.405C14.709 9.02148 14.245 8.72781 13.7341 8.54515C13.2233 8.36248 12.6782 8.29536 12.1383 8.34862C11.5984 8.40187 11.077 8.57418 10.6116 8.85313C10.1463 9.13208 9.74855 9.51074 9.44711 9.96185C9.14566 10.413 8.94799 10.9253 8.86832 11.462C8.78865 11.9986 8.82895 12.5463 8.98634 13.0655C9.14373 13.5847 9.41428 14.0626 9.77852 14.4647C10.1428 14.8668 10.5916 15.1832 11.0928 15.391ZM8.4998 8.002C9.02483 7.47698 9.64812 7.0605 10.3341 6.77636C11.0201 6.49222 11.7553 6.34597 12.4978 6.34597C13.2403 6.34597 13.9755 6.49222 14.6615 6.77636C15.3475 7.0605 15.9708 7.47698 16.4958 8.002C17.0208 8.52702 17.4373 9.15032 17.7214 9.8363C18.0056 10.5223 18.1518 11.2575 18.1518 12C18.1518 12.7425 18.0056 13.4777 17.7214 14.1637C17.4373 14.8497 17.0208 15.473 16.4958 15.998C15.4355 17.0583 13.9973 17.654 12.4978 17.654C10.9983 17.654 9.56014 17.0583 8.4998 15.998C7.43947 14.9377 6.84378 13.4995 6.84378 12C6.84378 10.5005 7.43947 9.06234 8.4998 8.002V8.002ZM19.4058 7.188C19.5359 7.06527 19.6401 6.91768 19.7121 6.75397C19.7841 6.59027 19.8226 6.41377 19.8252 6.23493C19.8278 6.05609 19.7945 5.87855 19.7273 5.71281C19.66 5.54707 19.5602 5.39651 19.4338 5.27004C19.3073 5.14357 19.1567 5.04376 18.991 4.97652C18.8253 4.90928 18.6477 4.87598 18.4689 4.87858C18.29 4.88119 18.1135 4.91965 17.9498 4.9917C17.7861 5.06374 17.6385 5.1679 17.5158 5.298C17.2771 5.55103 17.1464 5.88712 17.1515 6.23493C17.1566 6.58274 17.297 6.91488 17.543 7.16084C17.7889 7.40681 18.1211 7.54723 18.4689 7.5523C18.8167 7.55737 19.1528 7.42669 19.4058 7.188V7.188Z" fill="black"/>
</svg>
