<svg width="25" height="24" viewBox="0 0 25 24" fill="none" xmlns="http://www.w3.org/2000/svg">
<path fill-rule="evenodd" clip-rule="evenodd" d="M1.4978 2.838C1.4978 2.35053 1.69145 1.88303 2.03614 1.53834C2.38083 1.19365 2.84834 1 3.3358 1H21.6578C21.8994 0.999608 22.1387 1.04687 22.3619 1.13907C22.5852 1.23127 22.7881 1.36661 22.9591 1.53734C23.13 1.70807 23.2655 1.91083 23.358 2.13401C23.4504 2.3572 23.4979 2.59643 23.4978 2.838V21.16C23.4981 21.4016 23.4507 21.6409 23.3584 21.8642C23.2661 22.0875 23.1306 22.2904 22.9598 22.4613C22.789 22.6322 22.5862 22.7678 22.3629 22.8602C22.1397 22.9526 21.9004 23.0001 21.6588 23H3.3358C3.09435 23 2.85526 22.9524 2.6322 22.86C2.40914 22.7676 2.20647 22.6321 2.03579 22.4613C1.8651 22.2905 1.72973 22.0878 1.63743 21.8647C1.54512 21.6416 1.49767 21.4025 1.4978 21.161V2.838ZM10.2058 9.388H13.1848V10.884C13.6148 10.024 14.7148 9.25 16.3678 9.25C19.5368 9.25 20.2878 10.963 20.2878 14.106V19.928H17.0808V14.822C17.0808 13.032 16.6508 12.022 15.5588 12.022C14.0438 12.022 13.4138 13.111 13.4138 14.822V19.928H10.2058V9.388ZM4.7058 19.791H7.9138V9.25H4.7058V19.79V19.791ZM8.3728 5.812C8.37885 6.08667 8.32998 6.35979 8.22904 6.61532C8.12811 6.87084 7.97716 7.10364 7.78504 7.30003C7.59292 7.49643 7.3635 7.65247 7.11026 7.75901C6.85702 7.86554 6.58504 7.92042 6.3103 7.92042C6.03556 7.92042 5.76359 7.86554 5.51035 7.75901C5.25711 7.65247 5.02769 7.49643 4.83557 7.30003C4.64345 7.10364 4.4925 6.87084 4.39156 6.61532C4.29063 6.35979 4.24175 6.08667 4.2478 5.812C4.25968 5.27286 4.48219 4.75979 4.86769 4.38269C5.25319 4.00558 5.77103 3.79442 6.3103 3.79442C6.84958 3.79442 7.36742 4.00558 7.75292 4.38269C8.13842 4.75979 8.36093 5.27286 8.3728 5.812V5.812Z" fill="black"/>
</svg>
